ISO-10303-21;
HEADER;
FILE_DESCRIPTION (( 'STEP AP203' ),
    '1' );
FILE_NAME ('04_06_FL_002_Default_sldprt.STEP',
    '2026-09-12T21:35:10',
    ( '' ),
    ( '' ),
    'SwSTEP 2.0',
    'SolidWorks 2025',
    '' );
FILE_SCHEMA (( 'CONFIG_CONTROL_DESIGN' ));
ENDSEC;

DATA;
#1 = AXIS2_PLACEMENT_3D ( 'NONE', #439, #177, #422 ) ;
#2 = DIRECTION ( 'NONE',  ( 1.000000000000000000, 0.000000000000000000, 0.000000000000000000 ) ) ;
#3 = ORIENTED_EDGE ( 'NONE', *, *, #426, .T. ) ;
#4 = FACE_BOUND ( 'NONE', #472, .T. ) ;
#5 = ORIENTED_EDGE ( 'NONE', *, *, #151, .T. ) ;
#6 = CARTESIAN_POINT ( 'NONE',  ( -9.155600280865369811, 8.000000000000001776, 5.900000000000000355 ) ) ;
#7 = DESIGN_CONTEXT ( 'detailed design', #100, 'design' ) ;
#8 = CARTESIAN_POINT ( 'NONE',  ( -25.71749999999999758, -5.139070771039472512E-15, 5.900000000000000355 ) ) ;
#9 = DIRECTION ( 'NONE',  ( -0.000000000000000000, -0.000000000000000000, -1.000000000000000000 ) ) ;
#10 = AXIS2_PLACEMENT_3D ( 'NONE', #466, #92, #81 ) ;
#11 = DIRECTION ( 'NONE',  ( 0.000000000000000000, 0.000000000000000000, 1.000000000000000000 ) ) ;
#12 = CARTESIAN_POINT ( 'NONE',  ( 25.71749999999999403, 8.000000000000012434, 5.900000000000000355 ) ) ;
#13 = DIRECTION ( 'NONE',  ( -1.000000000000000000, -3.142254521634274268E-16, 0.000000000000000000 ) ) ;
#14 = EDGE_CURVE ( 'NONE', #247, #454, #128, .T. ) ;
#15 = DIRECTION ( 'NONE',  ( -0.000000000000000000, -0.000000000000000000, -1.000000000000000000 ) ) ;
#16 = DIRECTION ( 'NONE',  ( -0.000000000000000000, -0.000000000000000000, -1.000000000000000000 ) ) ;
#17 = CARTESIAN_POINT ( 'NONE',  ( 25.71749999999999403, 8.000000000000012434, 5.900000000000000355 ) ) ;
#18 = ORIENTED_EDGE ( 'NONE', *, *, #492, .T. ) ;
#19 = DIRECTION ( 'NONE',  ( -0.000000000000000000, -0.000000000000000000, -1.000000000000000000 ) ) ;
#20 = VECTOR ( 'NONE', #184, 1000.000000000000000 ) ;
#21 = DIRECTION ( 'NONE',  ( 1.000000000000000000, 0.000000000000000000, 0.000000000000000000 ) ) ;
#22 = EDGE_LOOP ( 'NONE', ( #260, #45, #155, #248 ) ) ;
#23 = SECURITY_CLASSIFICATION_LEVEL ( 'unclassified' ) ;
#24 = EDGE_CURVE ( 'NONE', #291, #200, #110, .T. ) ;
#25 = DIRECTION ( 'NONE',  ( 1.000000000000000000, 0.000000000000000000, 0.000000000000000000 ) ) ;
#26 = ORIENTED_EDGE ( 'NONE', *, *, #196, .T. ) ;
#27 = DIRECTION ( 'NONE',  ( -0.000000000000000000, -0.000000000000000000, -1.000000000000000000 ) ) ;
#28 = EDGE_LOOP ( 'NONE', ( #122, #267, #5, #417 ) ) ;
#29 = COORDINATED_UNIVERSAL_TIME_OFFSET ( 8, 0, .BEHIND. ) ;
#30 = ORIENTED_EDGE ( 'NONE', *, *, #355, .T. ) ;
#31 = AXIS2_PLACEMENT_3D ( 'NONE', #277, #362, #352 ) ;
#32 = SECURITY_CLASSIFICATION ( '', '', #23 ) ;
#33 = DIRECTION ( 'NONE',  ( -0.000000000000000000, -0.000000000000000000, -1.000000000000000000 ) ) ;
#34 = ADVANCED_FACE ( 'NONE', ( #65 ), #521, .F. ) ;
#35 = VERTEX_POINT ( 'NONE', #484 ) ;
#36 = ORIENTED_EDGE ( 'NONE', *, *, #412, .F. ) ;
#37 = PLANE ( 'NONE',  #424 ) ;
#38 = FACE_OUTER_BOUND ( 'NONE', #206, .T. ) ;
#39 = CIRCLE ( 'NONE', #451, 8.000000000000000000 ) ;
#40 = AXIS2_PLACEMENT_3D ( 'NONE', #109, #409, #104 ) ;
#41 = ORIENTED_EDGE ( 'NONE', *, *, #443, .F. ) ;
#42 = DIRECTION ( 'NONE',  ( -0.000000000000000000, -0.000000000000000000, -1.000000000000000000 ) ) ;
#43 = ORIENTED_EDGE ( 'NONE', *, *, #428, .T. ) ;
#44 = DIRECTION ( 'NONE',  ( -0.000000000000000000, -0.000000000000000000, -1.000000000000000000 ) ) ;
#45 = ORIENTED_EDGE ( 'NONE', *, *, #315, .T. ) ;
#46 = VECTOR ( 'NONE', #52, 1000.000000000000000 ) ;
#47 = DIRECTION ( 'NONE',  ( 0.000000000000000000, 0.000000000000000000, 1.000000000000000000 ) ) ;
#48 = ORIENTED_EDGE ( 'NONE', *, *, #492, .F. ) ;
#49 = APPROVAL ( #368, 'UNSPECIFIED' ) ;
#50 = CARTESIAN_POINT ( 'NONE',  ( 25.71749999999999758, 1.060835625749655086E-14, 5.900000000000000355 ) ) ;
#51 = ORIENTED_EDGE ( 'NONE', *, *, #151, .F. ) ;
#52 = DIRECTION ( 'NONE',  ( -0.000000000000000000, -0.000000000000000000, 1.000000000000000000 ) ) ;
#53 = VERTEX_POINT ( 'NONE', #403 ) ;
#54 = DIRECTION ( 'NONE',  ( 0.000000000000000000, 0.000000000000000000, 1.000000000000000000 ) ) ;
#55 = ADVANCED_FACE ( 'NONE', ( #93 ), #435, .T. ) ;
#56 = VECTOR ( 'NONE', #16, 1000.000000000000000 ) ;
#57 = LOCAL_TIME ( 14, 35, 10.00000000000000000, #485 ) ;
#58 = LINE ( 'NONE', #293, #46 ) ;
#59 = ORIENTED_EDGE ( 'NONE', *, *, #385, .T. ) ;
#60 = CALENDAR_DATE ( 2026, 12, 9 ) ;
#61 = CARTESIAN_POINT ( 'NONE',  ( -8.790724335300154735, 6.125000000000003553, 5.900000000000000355 ) ) ;
#62 = DIRECTION ( 'NONE',  ( 0.000000000000000000, 0.000000000000000000, 1.000000000000000000 ) ) ;
#63 = COORDINATED_UNIVERSAL_TIME_OFFSET ( 8, 0, .BEHIND. ) ;
#64 = DIRECTION ( 'NONE',  ( 0.000000000000000000, 0.000000000000000000, 1.000000000000000000 ) ) ;
#65 = FACE_OUTER_BOUND ( 'NONE', #294, .T. ) ;
#66 = EDGE_CURVE ( 'NONE', #549, #53, #129, .T. ) ;
#67 = CARTESIAN_POINT ( 'NONE',  ( 25.71750000000000469, -7.999999999999991118, 0.000000000000000000 ) ) ;
#68 = AXIS2_PLACEMENT_3D ( 'NONE', #532, #276, #25 ) ;
#69 = CC_DESIGN_DATE_AND_TIME_ASSIGNMENT ( #236, #188, ( #32 ) ) ;
#70 = DIRECTION ( 'NONE',  ( -1.000000000000000000, -3.035386659626959625E-16, 0.000000000000000000 ) ) ;
#71 = VERTEX_POINT ( 'NONE', #136 ) ;
#72 = ADVANCED_FACE ( 'NONE', ( #173 ), #314, .T. ) ;
#73 = CARTESIAN_POINT ( 'NONE',  ( -4.155600280865368035, 8.000000000000010658, 5.900000000000000355 ) ) ;
#74 = ORIENTED_EDGE ( 'NONE', *, *, #333, .T. ) ;
#75 = LINE ( 'NONE', #243, #341 ) ;
#76 = VERTEX_POINT ( 'NONE', #449 ) ;
#77 = AXIS2_PLACEMENT_3D ( 'NONE', #50, #11, #168 ) ;
#78 = EDGE_LOOP ( 'NONE', ( #162, #438, #357, #212 ) ) ;
#79 = ORIENTED_EDGE ( 'NONE', *, *, #264, .F. ) ;
#80 = EDGE_CURVE ( 'NONE', #241, #87, #482, .T. ) ;
#81 = DIRECTION ( 'NONE',  ( -1.000000000000000000, 0.000000000000000000, 0.000000000000000000 ) ) ;
#82 = ORIENTED_EDGE ( 'NONE', *, *, #66, .T. ) ;
#83 = CARTESIAN_POINT ( 'NONE',  ( 25.71749999999999758, 1.060835625749655086E-14, 5.900000000000000355 ) ) ;
#84 = AXIS2_PLACEMENT_3D ( 'NONE', #395, #9, #178 ) ;
#85 = CIRCLE ( 'NONE', #498, 3.149999999999999911 ) ;
#86 = VERTEX_POINT ( 'NONE', #270 ) ;
#87 = VERTEX_POINT ( 'NONE', #440 ) ;
#88 = CARTESIAN_POINT ( 'NONE',  ( -11.57179876796102747, 8.000000000000001776, 0.000000000000000000 ) ) ;
#89 = VERTEX_POINT ( 'NONE', #360 ) ;
#90 = LINE ( 'NONE', #94, #452 ) ;
#91 = AXIS2_PLACEMENT_3D ( 'NONE', #96, #181, #108 ) ;
#92 = DIRECTION ( 'NONE',  ( -0.000000000000000000, -0.000000000000000000, -1.000000000000000000 ) ) ;
#93 = FACE_OUTER_BOUND ( 'NONE', #406, .T. ) ;
#94 = CARTESIAN_POINT ( 'NONE',  ( -22.56749999999999901, -4.753307029308056638E-15, 5.900000000000000355 ) ) ;
#95 = DIRECTION ( 'NONE',  ( 0.000000000000000000, 0.000000000000000000, 1.000000000000000000 ) ) ;
#96 = CARTESIAN_POINT ( 'NONE',  ( -25.71749999999999758, -5.139070771039472512E-15, 0.000000000000000000 ) ) ;
#97 = CARTESIAN_POINT ( 'NONE',  ( -33.71749999999999403, -5.139070771039472512E-15, 0.000000000000000000 ) ) ;
#98 = DIRECTION ( 'NONE',  ( 0.000000000000000000, 0.000000000000000000, 1.000000000000000000 ) ) ;
#99 = ORIENTED_EDGE ( 'NONE', *, *, #542, .T. ) ;
#100 = APPLICATION_CONTEXT ( 'configuration controlled 3d designs of mechanical parts and assemblies' ) ;
#101 = DATE_TIME_ROLE ( 'creation_date' ) ;
#102 = AXIS2_PLACEMENT_3D ( 'NONE', #8, #117, #305 ) ;
#103 = LOCAL_TIME ( 14, 35, 10.00000000000000000, #29 ) ;
#104 = DIRECTION ( 'NONE',  ( 1.000000000000000000, 0.000000000000000000, 0.000000000000000000 ) ) ;
#105 = ORIENTED_EDGE ( 'NONE', *, *, #223, .F. ) ;
#106 =( LENGTH_UNIT ( ) NAMED_UNIT ( * ) SI_UNIT ( .MILLI., .METRE. ) );
#107 = DIRECTION ( 'NONE',  ( -1.000000000000000000, 0.000000000000000000, 0.000000000000000000 ) ) ;
#108 = DIRECTION ( 'NONE',  ( 1.000000000000000000, 0.000000000000000000, 0.000000000000000000 ) ) ;
#109 = CARTESIAN_POINT ( 'NONE',  ( 3.260598206230293172, 5.000000000000006217, 5.900000000000000355 ) ) ;
#110 = CIRCLE ( 'NONE', #378, 3.149999999999999911 ) ;
#111 = CARTESIAN_POINT ( 'NONE',  ( 25.71750000000000469, -7.999999999999991118, 5.900000000000000355 ) ) ;
#112 = CIRCLE ( 'NONE', #329, 3.000000000000000000 ) ;
#113 = CARTESIAN_POINT ( 'NONE',  ( -25.71750000000000114, 7.999999999999996447, 5.900000000000000355 ) ) ;
#114 = CARTESIAN_POINT ( 'NONE',  ( -11.57179876796102747, 8.000000000000001776, 5.900000000000000355 ) ) ;
#115 = ORIENTED_EDGE ( 'NONE', *, *, #554, .F. ) ;
#116 = ORIENTED_EDGE ( 'NONE', *, *, #24, .T. ) ;
#117 = DIRECTION ( 'NONE',  ( -0.000000000000000000, -0.000000000000000000, -1.000000000000000000 ) ) ;
#118 = VERTEX_POINT ( 'NONE', #533 ) ;
#119 = VERTEX_POINT ( 'NONE', #144 ) ;
#120 = LINE ( 'NONE', #384, #289 ) ;
#121 = APPROVAL_PERSON_ORGANIZATION ( #226, #523, #534 ) ;
#122 = ORIENTED_EDGE ( 'NONE', *, *, #542, .F. ) ;
#123 = CC_DESIGN_PERSON_AND_ORGANIZATION_ASSIGNMENT ( #331, #325, ( #491 ) ) ;
#124 = CARTESIAN_POINT ( 'NONE',  ( 0.4795237735694211079, 6.125000000000007105, 5.900000000000000355 ) ) ;
#125 = EDGE_LOOP ( 'NONE', ( #561, #153 ) ) ;
#126 = APPLICATION_PROTOCOL_DEFINITION ( 'international standard', 'config_control_design', 1994, #372 ) ;
#127 = CARTESIAN_POINT ( 'NONE',  ( -25.71749999999999758, -5.139070771039472512E-15, 0.000000000000000000 ) ) ;
#128 = LINE ( 'NONE', #445, #272 ) ;
#129 = CIRCLE ( 'NONE', #91, 8.000000000000000000 ) ;
#130 = PRODUCT_DEFINITION_SHAPE ( 'NONE', 'NONE',  #287 ) ;
#131 = EDGE_CURVE ( 'NONE', #454, #286, #512, .T. ) ;
#132 = CARTESIAN_POINT ( 'NONE',  ( -11.57179876796102747, 8.000000000000001776, 5.900000000000000355 ) ) ;
#133 = ORIENTED_EDGE ( 'NONE', *, *, #404, .F. ) ;
#134 = APPROVAL_DATE_TIME ( #441, #137 ) ;
#135 = CARTESIAN_POINT ( 'NONE',  ( -8.790724335300154735, 6.125000000000003553, 0.000000000000000000 ) ) ;
#136 = CARTESIAN_POINT ( 'NONE',  ( 28.86749999999999616, 1.099411999922796753E-14, 5.900000000000000355 ) ) ;
#137 = APPROVAL ( #358, 'UNSPECIFIED' ) ;
#138 = PERSON_AND_ORGANIZATION_ROLE ( 'creator' ) ;
#139 = LINE ( 'NONE', #17, #157 ) ;
#140 = EDGE_LOOP ( 'NONE', ( #232, #257, #517, #389 ) ) ;
#141 = CIRCLE ( 'NONE', #461, 3.149999999999999911 ) ;
#142 = CIRCLE ( 'NONE', #505, 8.000000000000000000 ) ;
#143 = DIRECTION ( 'NONE',  ( 1.000000000000000000, 0.000000000000000000, 0.000000000000000000 ) ) ;
#144 = CARTESIAN_POINT ( 'NONE',  ( 25.71749999999999403, 8.000000000000012434, 5.900000000000000355 ) ) ;
#145 = EDGE_CURVE ( 'NONE', #286, #237, #285, .T. ) ;
#146 = CARTESIAN_POINT ( 'NONE',  ( 25.71749999999999758, 1.060835625749655086E-14, 5.900000000000000355 ) ) ;
#147 = CARTESIAN_POINT ( 'NONE',  ( 25.71749999999999758, 1.060835625749655086E-14, 5.900000000000000355 ) ) ;
#148 = PERSON_AND_ORGANIZATION_ROLE ( 'classification_officer' ) ;
#149 = ORIENTED_EDGE ( 'NONE', *, *, #196, .F. ) ;
#150 = DIRECTION ( 'NONE',  ( 1.000000000000000000, 3.035386659626959132E-16, -0.000000000000000000 ) ) ;
#151 = EDGE_CURVE ( 'NONE', #237, #297, #459, .T. ) ;
#152 = AXIS2_PLACEMENT_3D ( 'NONE', #235, #359, #107 ) ;
#153 = ORIENTED_EDGE ( 'NONE', *, *, #419, .T. ) ;
#154 = CARTESIAN_POINT ( 'NONE',  ( -9.155600280865369811, 8.000000000000001776, 0.000000000000000000 ) ) ;
#155 = ORIENTED_EDGE ( 'NONE', *, *, #156, .T. ) ;
#156 = EDGE_CURVE ( 'NONE', #291, #284, #75, .T. ) ;
#157 = VECTOR ( 'NONE', #180, 1000.000000000000000 ) ;
#158 = VECTOR ( 'NONE', #159, 1000.000000000000000 ) ;
#159 = DIRECTION ( 'NONE',  ( -0.000000000000000000, -0.000000000000000000, -1.000000000000000000 ) ) ;
#160 = CC_DESIGN_PERSON_AND_ORGANIZATION_ASSIGNMENT ( #213, #230, ( #308 ) ) ;
#161 = ORIENTED_EDGE ( 'NONE', *, *, #14, .F. ) ;
#162 = ORIENTED_EDGE ( 'NONE', *, *, #486, .F. ) ;
#163 = ORIENTED_EDGE ( 'NONE', *, *, #338, .T. ) ;
#164 = CIRCLE ( 'NONE', #414, 8.000000000000000000 ) ;
#165 = VECTOR ( 'NONE', #13, 1000.000000000000000 ) ;
#166 = FACE_BOUND ( 'NONE', #470, .T. ) ;
#167 = EDGE_LOOP ( 'NONE', ( #133, #317, #41, #246 ) ) ;
#168 = DIRECTION ( 'NONE',  ( 1.000000000000000000, 0.000000000000000000, 0.000000000000000000 ) ) ;
#169 = ORIENTED_EDGE ( 'NONE', *, *, #463, .T. ) ;
#170 = PERSON_AND_ORGANIZATION ( #559, #469 ) ;
#171 = EDGE_CURVE ( 'NONE', #87, #247, #209, .T. ) ;
#172 = CYLINDRICAL_SURFACE ( 'NONE', #102, 3.149999999999999911 ) ;
#173 = FACE_OUTER_BOUND ( 'NONE', #425, .T. ) ;
#174 = PERSON_AND_ORGANIZATION ( #559, #469 ) ;
#175 = AXIS2_PLACEMENT_3D ( 'NONE', #322, #552, #500 ) ;
#176 = AXIS2_PLACEMENT_3D ( 'NONE', #265, #522, #436 ) ;
#177 = DIRECTION ( 'NONE',  ( -0.000000000000000000, -0.000000000000000000, -1.000000000000000000 ) ) ;
#178 = DIRECTION ( 'NONE',  ( -1.000000000000000000, 0.000000000000000000, 0.000000000000000000 ) ) ;
#179 =( NAMED_UNIT ( * ) SI_UNIT ( $, .STERADIAN. ) SOLID_ANGLE_UNIT ( ) );
#180 = DIRECTION ( 'NONE',  ( -1.000000000000000000, -2.789718139497573246E-16, 0.000000000000000000 ) ) ;
#181 = DIRECTION ( 'NONE',  ( 0.000000000000000000, 0.000000000000000000, 1.000000000000000000 ) ) ;
#182 = ADVANCED_FACE ( 'NONE', ( #394 ), #172, .F. ) ;
#183 = APPROVAL_STATUS ( 'not_yet_approved' ) ;
#184 = DIRECTION ( 'NONE',  ( -0.000000000000000000, -0.000000000000000000, -1.000000000000000000 ) ) ;
#185 = ORIENTED_EDGE ( 'NONE', *, *, #131, .T. ) ;
#186 = LINE ( 'NONE', #540, #20 ) ;
#187 = ORIENTED_EDGE ( 'NONE', *, *, #364, .T. ) ;
#188 = DATE_TIME_ROLE ( 'classification_date' ) ;
#189 = DIRECTION ( 'NONE',  ( -0.000000000000000000, -0.000000000000000000, -1.000000000000000000 ) ) ;
#190 = CARTESIAN_POINT ( 'NONE',  ( 25.71749999999999403, 8.000000000000012434, 5.900000000000000355 ) ) ;
#191 = ORIENTED_EDGE ( 'NONE', *, *, #476, .F. ) ;
#192 = CC_DESIGN_PERSON_AND_ORGANIZATION_ASSIGNMENT ( #170, #138, ( #287 ) ) ;
#193 = CLOSED_SHELL ( 'NONE', ( #182, #468, #72, #238, #258, #55, #34, #214, #519, #390, #455, #323, #510, #312, #377 ) ) ;
#194 = LOCAL_TIME ( 14, 35, 10.00000000000000000, #63 ) ;
#195 = ORIENTED_EDGE ( 'NONE', *, *, #301, .T. ) ;
#196 = EDGE_CURVE ( 'NONE', #252, #71, #423, .T. ) ;
#197 = MANIFOLD_SOLID_BREP ( 'Fillet1', #193 ) ;
#198 = LINE ( 'NONE', #376, #158 ) ;
#199 = AXIS2_PLACEMENT_3D ( 'NONE', #483, #98, #526 ) ;
#200 = VERTEX_POINT ( 'NONE', #397 ) ;
#201 = VECTOR ( 'NONE', #511, 1000.000000000000000 ) ;
#202 = CARTESIAN_POINT ( 'NONE',  ( -9.155600280865369811, 8.000000000000001776, 5.900000000000000355 ) ) ;
#203 = ORIENTED_EDGE ( 'NONE', *, *, #145, .F. ) ;
#204 = DIRECTION ( 'NONE',  ( 1.000000000000000000, 0.000000000000000000, 0.000000000000000000 ) ) ;
#205 = PRODUCT_RELATED_PRODUCT_CATEGORY ( 'detail', '', ( #308 ) ) ;
#206 = EDGE_LOOP ( 'NONE', ( #383, #503, #545, #115, #386, #255, #509, #51, #494 ) ) ;
#207 = FACE_BOUND ( 'NONE', #263, .T. ) ;
#208 = ORIENTED_EDGE ( 'NONE', *, *, #227, .F. ) ;
#209 = CIRCLE ( 'NONE', #550, 5.000000000000000888 ) ;
#210 = VECTOR ( 'NONE', #150, 1000.000000000000000 ) ;
#211 = DIRECTION ( 'NONE',  ( 1.000000000000000000, 0.000000000000000000, 0.000000000000000000 ) ) ;
#212 = ORIENTED_EDGE ( 'NONE', *, *, #333, .F. ) ;
#213 = PERSON_AND_ORGANIZATION ( #559, #469 ) ;
#214 = ADVANCED_FACE ( 'NONE', ( #507 ), #356, .F. ) ;
#215 = DIRECTION ( 'NONE',  ( 0.000000000000000000, 0.000000000000000000, 1.000000000000000000 ) ) ;
#216 = VERTEX_POINT ( 'NONE', #345 ) ;
#217 = CARTESIAN_POINT ( 'NONE',  ( 25.71749999999999758, 1.060835625749655086E-14, 0.000000000000000000 ) ) ;
#218 = FACE_OUTER_BOUND ( 'NONE', #167, .T. ) ;
#219 = EDGE_LOOP ( 'NONE', ( #332, #474, #30, #185, #99, #3, #418, #169, #300 ) ) ;
#220 = DIRECTION ( 'NONE',  ( 1.000000000000000000, 0.000000000000000000, 0.000000000000000000 ) ) ;
#221 = VECTOR ( 'NONE', #269, 1000.000000000000000 ) ;
#222 = APPROVAL_PERSON_ORGANIZATION ( #174, #137, #518 ) ;
#223 = EDGE_CURVE ( 'NONE', #89, #349, #39, .T. ) ;
#224 = CARTESIAN_POINT ( 'NONE',  ( -11.57179876796102569, 5.000000000000000888, 0.000000000000000000 ) ) ;
#225 = ORIENTED_EDGE ( 'NONE', *, *, #24, .F. ) ;
#226 = PERSON_AND_ORGANIZATION ( #559, #469 ) ;
#227 = EDGE_CURVE ( 'NONE', #237, #247, #280, .T. ) ;
#228 = DIRECTION ( 'NONE',  ( -0.000000000000000000, -0.000000000000000000, -1.000000000000000000 ) ) ;
#229 = CARTESIAN_POINT ( 'NONE',  ( -25.71749999999999758, -5.139070771039472512E-15, 5.900000000000000355 ) ) ;
#230 = PERSON_AND_ORGANIZATION_ROLE ( 'design_owner' ) ;
#231 = LINE ( 'NONE', #366, #408 ) ;
#232 = ORIENTED_EDGE ( 'NONE', *, *, #355, .F. ) ;
#233 = CIRCLE ( 'NONE', #40, 3.000000000000000000 ) ;
#234 = AXIS2_PLACEMENT_3D ( 'NONE', #421, #344, #204 ) ;
#235 = CARTESIAN_POINT ( 'NONE',  ( -25.71749999999999758, -5.139070771039472512E-15, 5.900000000000000355 ) ) ;
#236 = DATE_AND_TIME ( #544, #343 ) ;
#237 = VERTEX_POINT ( 'NONE', #88 ) ;
#238 = ADVANCED_FACE ( 'NONE', ( #207, #337, #166 ), #516, .T. ) ;
#239 = LINE ( 'NONE', #411, #210 ) ;
#240 = COORDINATED_UNIVERSAL_TIME_OFFSET ( 8, 0, .BEHIND. ) ;
#241 = VERTEX_POINT ( 'NONE', #124 ) ;
#242 = LINE ( 'NONE', #190, #328 ) ;
#243 = CARTESIAN_POINT ( 'NONE',  ( -28.86749999999999616, -5.139070771039472512E-15, 5.900000000000000355 ) ) ;
#244 = CC_DESIGN_APPROVAL ( #49, ( #32 ) ) ;
#245 = PERSON_AND_ORGANIZATION ( #559, #469 ) ;
#246 = ORIENTED_EDGE ( 'NONE', *, *, #80, .F. ) ;
#247 = VERTEX_POINT ( 'NONE', #135 ) ;
#248 = ORIENTED_EDGE ( 'NONE', *, *, #419, .F. ) ;
#249 = CARTESIAN_POINT ( 'NONE',  ( 25.71750000000000469, -7.999999999999991118, 0.000000000000000000 ) ) ;
#250 = CARTESIAN_POINT ( 'NONE',  ( 22.56749999999999901, 1.060835625749655086E-14, 5.900000000000000355 ) ) ;
#251 = AXIS2_PLACEMENT_3D ( 'NONE', #224, #15, #2 ) ;
#252 = VERTEX_POINT ( 'NONE', #302 ) ;
#253 = AXIS2_PLACEMENT_3D ( 'NONE', #528, #54, #220 ) ;
#254 = DIRECTION ( 'NONE',  ( -1.000000000000000000, 0.000000000000000000, 0.000000000000000000 ) ) ;
#255 = ORIENTED_EDGE ( 'NONE', *, *, #66, .F. ) ;
#256 = CARTESIAN_POINT ( 'NONE',  ( 25.71750000000000469, -7.999999999999991118, 5.900000000000000355 ) ) ;
#257 = ORIENTED_EDGE ( 'NONE', *, *, #80, .T. ) ;
#258 = ADVANCED_FACE ( 'NONE', ( #38, #4, #313 ), #473, .F. ) ;
#259 = CYLINDRICAL_SURFACE ( 'NONE', #10, 3.000000000000000000 ) ;
#260 = ORIENTED_EDGE ( 'NONE', *, *, #531, .F. ) ;
#261 = LINE ( 'NONE', #350, #555 ) ;
#262 = FACE_OUTER_BOUND ( 'NONE', #78, .T. ) ;
#263 = EDGE_LOOP ( 'NONE', ( #149, #410 ) ) ;
#264 = EDGE_CURVE ( 'NONE', #252, #433, #351, .T. ) ;
#265 = CARTESIAN_POINT ( 'NONE',  ( -25.71749999999999758, -5.139070771039472512E-15, 0.000000000000000000 ) ) ;
#266 = DIRECTION ( 'NONE',  ( 1.000000000000000000, 0.000000000000000000, 0.000000000000000000 ) ) ;
#267 = ORIENTED_EDGE ( 'NONE', *, *, #145, .T. ) ;
#268 = DIRECTION ( 'NONE',  ( 3.142254521634274268E-16, -1.000000000000000000, 0.000000000000000000 ) ) ;
#269 = DIRECTION ( 'NONE',  ( -0.000000000000000000, -0.000000000000000000, -1.000000000000000000 ) ) ;
#270 = CARTESIAN_POINT ( 'NONE',  ( -22.56749999999999901, -4.753307029308056638E-15, 0.000000000000000000 ) ) ;
#271 = MECHANICAL_CONTEXT ( 'NONE', #372, 'mechanical' ) ;
#272 = VECTOR ( 'NONE', #62, 1000.000000000000000 ) ;
#273 = DIRECTION ( 'NONE',  ( -0.000000000000000000, -0.000000000000000000, -1.000000000000000000 ) ) ;
#274 = ORIENTED_EDGE ( 'NONE', *, *, #502, .F. ) ;
#275 = DIRECTION ( 'NONE',  ( 0.000000000000000000, 0.000000000000000000, 1.000000000000000000 ) ) ;
#276 = DIRECTION ( 'NONE',  ( 0.000000000000000000, 0.000000000000000000, 1.000000000000000000 ) ) ;
#277 = CARTESIAN_POINT ( 'NONE',  ( -25.71749999999999758, -5.139070771039472512E-15, 5.900000000000000355 ) ) ;
#278 = DIRECTION ( 'NONE',  ( 0.000000000000000000, 0.000000000000000000, 1.000000000000000000 ) ) ;
#279 = EDGE_CURVE ( 'NONE', #216, #76, #58, .T. ) ;
#280 = CIRCLE ( 'NONE', #251, 2.999999999999999112 ) ;
#281 = AXIS2_PLACEMENT_3D ( 'NONE', #147, #499, #453 ) ;
#282 = DIRECTION ( 'NONE',  ( -3.035386659626959625E-16, 1.000000000000000000, 0.000000000000000000 ) ) ;
#283 = FACE_OUTER_BOUND ( 'NONE', #340, .T. ) ;
#284 = VERTEX_POINT ( 'NONE', #348 ) ;
#285 = LINE ( 'NONE', #114, #524 ) ;
#286 = VERTEX_POINT ( 'NONE', #132 ) ;
#287 = PRODUCT_DEFINITION ( 'UNKNOWN', '', #491, #7 ) ;
#288 = AXIS2_PLACEMENT_3D ( 'NONE', #529, #215, #437 ) ;
#289 = VECTOR ( 'NONE', #336, 1000.000000000000000 ) ;
#290 = FACE_OUTER_BOUND ( 'NONE', #380, .T. ) ;
#291 = VERTEX_POINT ( 'NONE', #478 ) ;
#292 = DIRECTION ( 'NONE',  ( -1.000000000000000000, 0.000000000000000000, 0.000000000000000000 ) ) ;
#293 = CARTESIAN_POINT ( 'NONE',  ( 3.260598206230293172, 8.000000000000005329, 5.900000000000000355 ) ) ;
#294 = EDGE_LOOP ( 'NONE', ( #43, #346, #556, #163 ) ) ;
#295 = CYLINDRICAL_SURFACE ( 'NONE', #442, 3.149999999999999911 ) ;
#296 = AXIS2_PLACEMENT_3D ( 'NONE', #12, #306, #479 ) ;
#297 = VERTEX_POINT ( 'NONE', #309 ) ;
#298 = CC_DESIGN_APPROVAL ( #137, ( #287 ) ) ;
#299 = FACE_OUTER_BOUND ( 'NONE', #22, .T. ) ;
#300 = ORIENTED_EDGE ( 'NONE', *, *, #476, .T. ) ;
#301 = EDGE_CURVE ( 'NONE', #297, #549, #164, .T. ) ;
#302 = CARTESIAN_POINT ( 'NONE',  ( 22.56749999999999901, 1.060835625749655086E-14, 5.900000000000000355 ) ) ;
#303 = ORIENTED_EDGE ( 'NONE', *, *, #156, .F. ) ;
#304 = DATE_AND_TIME ( #318, #194 ) ;
#305 = DIRECTION ( 'NONE',  ( -1.000000000000000000, 0.000000000000000000, 0.000000000000000000 ) ) ;
#306 = DIRECTION ( 'NONE',  ( 2.789718139497573246E-16, -1.000000000000000000, 0.000000000000000000 ) ) ;
#307 = DIRECTION ( 'NONE',  ( -0.000000000000000000, -0.000000000000000000, -1.000000000000000000 ) ) ;
#308 = PRODUCT ( '04_06_FL_002_Default_sldprt', '04_06_FL_002_Default_sldprt', '', ( #271 ) ) ;
#309 = CARTESIAN_POINT ( 'NONE',  ( -25.71750000000000114, 7.999999999999996447, 0.000000000000000000 ) ) ;
#310 = ORIENTED_EDGE ( 'NONE', *, *, #338, .F. ) ;
#311 = DIRECTION ( 'NONE',  ( 1.000000000000000000, 0.000000000000000000, 0.000000000000000000 ) ) ;
#312 = ADVANCED_FACE ( 'NONE', ( #218 ), #259, .T. ) ;
#313 = FACE_BOUND ( 'NONE', #125, .T. ) ;
#314 = CYLINDRICAL_SURFACE ( 'NONE', #31, 8.000000000000000000 ) ;
#315 = EDGE_CURVE ( 'NONE', #200, #291, #489, .T. ) ;
#316 = DIRECTION ( 'NONE',  ( 0.000000000000000000, 0.000000000000000000, 1.000000000000000000 ) ) ;
#317 = ORIENTED_EDGE ( 'NONE', *, *, #279, .F. ) ;
#318 = CALENDAR_DATE ( 2026, 12, 9 ) ;
#319 = VECTOR ( 'NONE', #334, 1000.000000000000000 ) ;
#320 = CIRCLE ( 'NONE', #525, 8.000000000000000000 ) ;
#321 = LINE ( 'NONE', #67, #504 ) ;
#322 = CARTESIAN_POINT ( 'NONE',  ( -11.57179876796102569, 5.000000000000000888, 5.900000000000000355 ) ) ;
#323 = ADVANCED_FACE ( 'NONE', ( #262 ), #391, .F. ) ;
#324 = CARTESIAN_POINT ( 'NONE',  ( -11.57179876796102569, 5.000000000000000888, 5.900000000000000355 ) ) ;
#325 = PERSON_AND_ORGANIZATION_ROLE ( 'creator' ) ;
#326 = PLANE ( 'NONE',  #365 ) ;
#327 = PERSON_AND_ORGANIZATION ( #559, #469 ) ;
#328 = VECTOR ( 'NONE', #405, 1000.000000000000000 ) ;
#329 = AXIS2_PLACEMENT_3D ( 'NONE', #456, #189, #543 ) ;
#330 = CYLINDRICAL_SURFACE ( 'NONE', #152, 8.000000000000000000 ) ;
#331 = PERSON_AND_ORGANIZATION ( #559, #469 ) ;
#332 = ORIENTED_EDGE ( 'NONE', *, *, #335, .T. ) ;
#333 = EDGE_CURVE ( 'NONE', #508, #433, #141, .T. ) ;
#334 = DIRECTION ( 'NONE',  ( -1.000000000000000000, -3.142254521634274268E-16, 0.000000000000000000 ) ) ;
#335 = EDGE_CURVE ( 'NONE', #119, #76, #139, .T. ) ;
#336 = DIRECTION ( 'NONE',  ( -0.000000000000000000, -0.000000000000000000, -1.000000000000000000 ) ) ;
#337 = FACE_OUTER_BOUND ( 'NONE', #219, .T. ) ;
#338 = EDGE_CURVE ( 'NONE', #119, #118, #242, .T. ) ;
#339 = ORIENTED_EDGE ( 'NONE', *, *, #557, .T. ) ;
#340 = EDGE_LOOP ( 'NONE', ( #187, #274, #464, #18 ) ) ;
#341 = VECTOR ( 'NONE', #33, 1000.000000000000000 ) ;
#342 = ORIENTED_EDGE ( 'NONE', *, *, #502, .T. ) ;
#343 = LOCAL_TIME ( 14, 35, 10.00000000000000000, #240 ) ;
#344 = DIRECTION ( 'NONE',  ( 0.000000000000000000, 0.000000000000000000, 1.000000000000000000 ) ) ;
#345 = CARTESIAN_POINT ( 'NONE',  ( 3.260598206230293172, 8.000000000000005329, 0.000000000000000000 ) ) ;
#346 = ORIENTED_EDGE ( 'NONE', *, *, #279, .T. ) ;
#347 = APPLICATION_PROTOCOL_DEFINITION ( 'international standard', 'config_control_design', 1994, #100 ) ;
#348 = CARTESIAN_POINT ( 'NONE',  ( -28.86749999999999616, -5.139070771039472512E-15, 0.000000000000000000 ) ) ;
#349 = VERTEX_POINT ( 'NONE', #450 ) ;
#350 = CARTESIAN_POINT ( 'NONE',  ( -25.71750000000000114, 7.999999999999996447, 5.900000000000000355 ) ) ;
#351 = LINE ( 'NONE', #250, #221 ) ;
#352 = DIRECTION ( 'NONE',  ( -1.000000000000000000, 0.000000000000000000, 0.000000000000000000 ) ) ;
#353 = CALENDAR_DATE ( 2026, 12, 9 ) ;
#354 = CIRCLE ( 'NONE', #68, 3.149999999999999911 ) ;
#355 = EDGE_CURVE ( 'NONE', #241, #454, #535, .T. ) ;
#356 = CYLINDRICAL_SURFACE ( 'NONE', #1, 5.000000000000000888 ) ;
#357 = ORIENTED_EDGE ( 'NONE', *, *, #264, .T. ) ;
#358 = APPROVAL_STATUS ( 'not_yet_approved' ) ;
#359 = DIRECTION ( 'NONE',  ( -0.000000000000000000, -0.000000000000000000, -1.000000000000000000 ) ) ;
#360 = CARTESIAN_POINT ( 'NONE',  ( -33.71749999999999403, -5.139070771039472512E-15, 5.900000000000000355 ) ) ;
#361 = CYLINDRICAL_SURFACE ( 'NONE', #399, 2.999999999999999112 ) ;
#362 = DIRECTION ( 'NONE',  ( -0.000000000000000000, -0.000000000000000000, -1.000000000000000000 ) ) ;
#363 = ADVANCED_BREP_SHAPE_REPRESENTATION ( '04_06_FL_002_Default_sldprt', ( #197, #253 ), #416 ) ;
#364 = EDGE_CURVE ( 'NONE', #53, #515, #321, .T. ) ;
#365 = AXIS2_PLACEMENT_3D ( 'NONE', #111, #282, #70 ) ;
#366 = CARTESIAN_POINT ( 'NONE',  ( 25.71749999999999403, 8.000000000000012434, 0.000000000000000000 ) ) ;
#367 = CARTESIAN_POINT ( 'NONE',  ( -4.155600280865368035, 8.000000000000010658, 0.000000000000000000 ) ) ;
#368 = APPROVAL_STATUS ( 'not_yet_approved' ) ;
#369 = FACE_OUTER_BOUND ( 'NONE', #530, .T. ) ;
#370 = EDGE_LOOP ( 'NONE', ( #429, #465, #339, #195 ) ) ;
#371 = FACE_OUTER_BOUND ( 'NONE', #370, .T. ) ;
#372 = APPLICATION_CONTEXT ( 'configuration controlled 3d designs of mechanical parts and assemblies' ) ;
#373 = AXIS2_PLACEMENT_3D ( 'NONE', #432, #47, #211 ) ;
#374 = AXIS2_PLACEMENT_3D ( 'NONE', #471, #44, #292 ) ;
#375 = EDGE_LOOP ( 'NONE', ( #116, #488, #420, #303 ) ) ;
#376 = CARTESIAN_POINT ( 'NONE',  ( 28.86749999999999616, 1.099411999922796753E-14, 5.900000000000000355 ) ) ;
#377 = ADVANCED_FACE ( 'NONE', ( #369 ), #361, .T. ) ;
#378 = AXIS2_PLACEMENT_3D ( 'NONE', #229, #401, #398 ) ;
#379 = CIRCLE ( 'NONE', #234, 8.000000000000000000 ) ;
#380 = EDGE_LOOP ( 'NONE', ( #26, #392, #36, #79 ) ) ;
#381 = CARTESIAN_POINT ( 'NONE',  ( 28.86749999999999616, 1.099411999922796753E-14, 0.000000000000000000 ) ) ;
#382 = CC_DESIGN_PERSON_AND_ORGANIZATION_ASSIGNMENT ( #327, #457, ( #491 ) ) ;
#383 = ORIENTED_EDGE ( 'NONE', *, *, #171, .F. ) ;
#384 = CARTESIAN_POINT ( 'NONE',  ( -25.71749999999999758, -8.000000000000007105, 5.900000000000000355 ) ) ;
#385 = EDGE_CURVE ( 'NONE', #89, #549, #186, .T. ) ;
#386 = ORIENTED_EDGE ( 'NONE', *, *, #364, .F. ) ;
#387 = CYLINDRICAL_SURFACE ( 'NONE', #374, 3.149999999999999911 ) ;
#388 = DIRECTION ( 'NONE',  ( 1.000000000000000000, 0.000000000000000000, 0.000000000000000000 ) ) ;
#389 = ORIENTED_EDGE ( 'NONE', *, *, #14, .T. ) ;
#390 = ADVANCED_FACE ( 'NONE', ( #371 ), #330, .T. ) ;
#391 = CYLINDRICAL_SURFACE ( 'NONE', #538, 3.149999999999999911 ) ;
#392 = ORIENTED_EDGE ( 'NONE', *, *, #486, .T. ) ;
#393 = DIRECTION ( 'NONE',  ( 1.000000000000000000, 3.142254521634274268E-16, 0.000000000000000000 ) ) ;
#394 = FACE_OUTER_BOUND ( 'NONE', #375, .T. ) ;
#395 = CARTESIAN_POINT ( 'NONE',  ( 25.71749999999999758, 1.060835625749655086E-14, 5.900000000000000355 ) ) ;
#396 =( NAMED_UNIT ( * ) PLANE_ANGLE_UNIT ( ) SI_UNIT ( $, .RADIAN. ) );
#397 = CARTESIAN_POINT ( 'NONE',  ( -22.56749999999999901, -4.753307029308056638E-15, 5.900000000000000355 ) ) ;
#398 = DIRECTION ( 'NONE',  ( 1.000000000000000000, 0.000000000000000000, 0.000000000000000000 ) ) ;
#399 = AXIS2_PLACEMENT_3D ( 'NONE', #324, #27, #496 ) ;
#400 = DIRECTION ( 'NONE',  ( -0.000000000000000000, -0.000000000000000000, -1.000000000000000000 ) ) ;
#401 = DIRECTION ( 'NONE',  ( 0.000000000000000000, 0.000000000000000000, 1.000000000000000000 ) ) ;
#402 = CARTESIAN_POINT ( 'NONE',  ( 25.71749999999999758, 1.060835625749655086E-14, 0.000000000000000000 ) ) ;
#403 = CARTESIAN_POINT ( 'NONE',  ( -25.71749999999999758, -8.000000000000007105, 0.000000000000000000 ) ) ;
#404 = EDGE_CURVE ( 'NONE', #76, #241, #233, .T. ) ;
#405 = DIRECTION ( 'NONE',  ( -0.000000000000000000, -0.000000000000000000, -1.000000000000000000 ) ) ;
#406 = EDGE_LOOP ( 'NONE', ( #527, #310, #191, #342 ) ) ;
#407 = PERSON_AND_ORGANIZATION ( #559, #469 ) ;
#408 = VECTOR ( 'NONE', #444, 1000.000000000000000 ) ;
#409 = DIRECTION ( 'NONE',  ( 0.000000000000000000, 0.000000000000000000, 1.000000000000000000 ) ) ;
#410 = ORIENTED_EDGE ( 'NONE', *, *, #447, .F. ) ;
#411 = CARTESIAN_POINT ( 'NONE',  ( 25.71750000000000469, -7.999999999999991118, 5.900000000000000355 ) ) ;
#412 = EDGE_CURVE ( 'NONE', #433, #508, #85, .T. ) ;
#413 = DIRECTION ( 'NONE',  ( 1.000000000000000000, 0.000000000000000000, 0.000000000000000000 ) ) ;
#414 = AXIS2_PLACEMENT_3D ( 'NONE', #127, #95, #520 ) ;
#415 = DIRECTION ( 'NONE',  ( 0.000000000000000000, 0.000000000000000000, -1.000000000000000000 ) ) ;
#416 =( GEOMETRIC_REPRESENTATION_CONTEXT ( 3 ) GLOBAL_UNCERTAINTY_ASSIGNED_CONTEXT ( ( #514 ) ) GLOBAL_UNIT_ASSIGNED_CONTEXT ( ( #106, #396, #179 ) ) REPRESENTATION_CONTEXT ( 'NONE', 'WORKASPACE' ) );
#417 = ORIENTED_EDGE ( 'NONE', *, *, #557, .F. ) ;
#418 = ORIENTED_EDGE ( 'NONE', *, *, #223, .T. ) ;
#419 = EDGE_CURVE ( 'NONE', #86, #284, #354, .T. ) ;
#420 = ORIENTED_EDGE ( 'NONE', *, *, #560, .F. ) ;
#421 = CARTESIAN_POINT ( 'NONE',  ( 25.71749999999999758, 1.060835625749655086E-14, 5.900000000000000355 ) ) ;
#422 = DIRECTION ( 'NONE',  ( -1.000000000000000000, 0.000000000000000000, 0.000000000000000000 ) ) ;
#423 = CIRCLE ( 'NONE', #77, 3.149999999999999911 ) ;
#424 = AXIS2_PLACEMENT_3D ( 'NONE', #202, #268, #393 ) ;
#425 = EDGE_LOOP ( 'NONE', ( #105, #59, #82, #48 ) ) ;
#426 = EDGE_CURVE ( 'NONE', #467, #89, #142, .T. ) ;
#427 = ORIENTED_EDGE ( 'NONE', *, *, #131, .F. ) ;
#428 = EDGE_CURVE ( 'NONE', #118, #216, #231, .T. ) ;
#429 = ORIENTED_EDGE ( 'NONE', *, *, #385, .F. ) ;
#430 = AXIS2_PLACEMENT_3D ( 'NONE', #73, #228, #413 ) ;
#431 = APPROVAL_PERSON_ORGANIZATION ( #407, #49, #497 ) ;
#432 = CARTESIAN_POINT ( 'NONE',  ( -25.71749999999999758, -5.139070771039472512E-15, 5.900000000000000355 ) ) ;
#433 = VERTEX_POINT ( 'NONE', #487 ) ;
#434 = CARTESIAN_POINT ( 'NONE',  ( -25.71749999999999758, -5.139070771039472512E-15, 5.900000000000000355 ) ) ;
#435 = CYLINDRICAL_SURFACE ( 'NONE', #84, 8.000000000000000000 ) ;
#436 = DIRECTION ( 'NONE',  ( 1.000000000000000000, 0.000000000000000000, 0.000000000000000000 ) ) ;
#437 = DIRECTION ( 'NONE',  ( 1.000000000000000000, 0.000000000000000000, -0.000000000000000000 ) ) ;
#438 = ORIENTED_EDGE ( 'NONE', *, *, #447, .T. ) ;
#439 = CARTESIAN_POINT ( 'NONE',  ( -4.155600280865368035, 8.000000000000010658, 5.900000000000000355 ) ) ;
#440 = CARTESIAN_POINT ( 'NONE',  ( 0.4795237735694211079, 6.125000000000007105, 0.000000000000000000 ) ) ;
#441 = DATE_AND_TIME ( #353, #551 ) ;
#442 = AXIS2_PLACEMENT_3D ( 'NONE', #83, #42, #254 ) ;
#443 = EDGE_CURVE ( 'NONE', #87, #216, #112, .T. ) ;
#444 = DIRECTION ( 'NONE',  ( -1.000000000000000000, -2.789718139497573246E-16, 0.000000000000000000 ) ) ;
#445 = CARTESIAN_POINT ( 'NONE',  ( -8.790724335300154735, 6.125000000000003553, 5.900000000000000355 ) ) ;
#446 = COORDINATED_UNIVERSAL_TIME_OFFSET ( 8, 0, .BEHIND. ) ;
#447 = EDGE_CURVE ( 'NONE', #71, #252, #477, .T. ) ;
#448 = CARTESIAN_POINT ( 'NONE',  ( -25.71749999999999758, -5.139070771039472512E-15, 5.900000000000000355 ) ) ;
#449 = CARTESIAN_POINT ( 'NONE',  ( 3.260598206230293172, 8.000000000000005329, 5.900000000000000355 ) ) ;
#450 = CARTESIAN_POINT ( 'NONE',  ( -25.71749999999999758, -8.000000000000007105, 5.900000000000000355 ) ) ;
#451 = AXIS2_PLACEMENT_3D ( 'NONE', #434, #481, #388 ) ;
#452 = VECTOR ( 'NONE', #19, 1000.000000000000000 ) ;
#453 = DIRECTION ( 'NONE',  ( 1.000000000000000000, 0.000000000000000000, 0.000000000000000000 ) ) ;
#454 = VERTEX_POINT ( 'NONE', #61 ) ;
#455 = ADVANCED_FACE ( 'NONE', ( #283 ), #326, .F. ) ;
#456 = CARTESIAN_POINT ( 'NONE',  ( 3.260598206230293172, 5.000000000000006217, 0.000000000000000000 ) ) ;
#457 = PERSON_AND_ORGANIZATION_ROLE ( 'design_supplier' ) ;
#458 = CC_DESIGN_PERSON_AND_ORGANIZATION_ASSIGNMENT ( #245, #148, ( #32 ) ) ;
#459 = LINE ( 'NONE', #154, #319 ) ;
#460 = SHAPE_DEFINITION_REPRESENTATION ( #130, #363 ) ;
#461 = AXIS2_PLACEMENT_3D ( 'NONE', #402, #278, #21 ) ;
#462 = CC_DESIGN_SECURITY_CLASSIFICATION ( #32, ( #491 ) ) ;
#463 = EDGE_CURVE ( 'NONE', #349, #35, #239, .T. ) ;
#464 = ORIENTED_EDGE ( 'NONE', *, *, #463, .F. ) ;
#465 = ORIENTED_EDGE ( 'NONE', *, *, #426, .F. ) ;
#466 = CARTESIAN_POINT ( 'NONE',  ( 3.260598206230293172, 5.000000000000006217, 5.900000000000000355 ) ) ;
#467 = VERTEX_POINT ( 'NONE', #113 ) ;
#468 = ADVANCED_FACE ( 'NONE', ( #290 ), #295, .F. ) ;
#469 = ORGANIZATION ( 'UNSPECIFIED', 'UNSPECIFIED', '' ) ;
#470 = EDGE_LOOP ( 'NONE', ( #225, #558 ) ) ;
#471 = CARTESIAN_POINT ( 'NONE',  ( -25.71749999999999758, -5.139070771039472512E-15, 5.900000000000000355 ) ) ;
#472 = EDGE_LOOP ( 'NONE', ( #553, #74 ) ) ;
#473 = PLANE ( 'NONE',  #199 ) ;
#474 = ORIENTED_EDGE ( 'NONE', *, *, #404, .T. ) ;
#475 = APPROVAL_DATE_TIME ( #304, #523 ) ;
#476 = EDGE_CURVE ( 'NONE', #35, #119, #379, .T. ) ;
#477 = CIRCLE ( 'NONE', #281, 3.149999999999999911 ) ;
#478 = CARTESIAN_POINT ( 'NONE',  ( -28.86749999999999616, -5.139070771039472512E-15, 5.900000000000000355 ) ) ;
#479 = DIRECTION ( 'NONE',  ( 1.000000000000000000, 2.789718139497573246E-16, 0.000000000000000000 ) ) ;
#480 = LINE ( 'NONE', #6, #165 ) ;
#481 = DIRECTION ( 'NONE',  ( 0.000000000000000000, 0.000000000000000000, 1.000000000000000000 ) ) ;
#482 = LINE ( 'NONE', #537, #56 ) ;
#483 = CARTESIAN_POINT ( 'NONE',  ( 25.71749999999999758, 1.060835625749655086E-14, 0.000000000000000000 ) ) ;
#484 = CARTESIAN_POINT ( 'NONE',  ( 25.71750000000000469, -7.999999999999991118, 5.900000000000000355 ) ) ;
#485 = COORDINATED_UNIVERSAL_TIME_OFFSET ( 8, 0, .BEHIND. ) ;
#486 = EDGE_CURVE ( 'NONE', #71, #508, #198, .T. ) ;
#487 = CARTESIAN_POINT ( 'NONE',  ( 22.56749999999999901, 1.060835625749655086E-14, 0.000000000000000000 ) ) ;
#488 = ORIENTED_EDGE ( 'NONE', *, *, #531, .T. ) ;
#489 = CIRCLE ( 'NONE', #373, 3.149999999999999911 ) ;
#490 = DATE_AND_TIME ( #60, #57 ) ;
#491 = PRODUCT_DEFINITION_FORMATION_WITH_SPECIFIED_SOURCE ( 'ANY', '', #308, .NOT_KNOWN. ) ;
#492 = EDGE_CURVE ( 'NONE', #349, #53, #120, .T. ) ;
#493 = DIRECTION ( 'NONE',  ( 1.000000000000000000, 3.035386659626959132E-16, -0.000000000000000000 ) ) ;
#494 = ORIENTED_EDGE ( 'NONE', *, *, #227, .T. ) ;
#495 = DIRECTION ( 'NONE',  ( -1.000000000000000000, 0.000000000000000000, 0.000000000000000000 ) ) ;
#496 = DIRECTION ( 'NONE',  ( -1.000000000000000000, 0.000000000000000000, 0.000000000000000000 ) ) ;
#497 = APPROVAL_ROLE ( '' ) ;
#498 = AXIS2_PLACEMENT_3D ( 'NONE', #536, #316, #143 ) ;
#499 = DIRECTION ( 'NONE',  ( 0.000000000000000000, 0.000000000000000000, 1.000000000000000000 ) ) ;
#500 = DIRECTION ( 'NONE',  ( 1.000000000000000000, 0.000000000000000000, 0.000000000000000000 ) ) ;
#501 = APPROVAL_DATE_TIME ( #541, #49 ) ;
#502 = EDGE_CURVE ( 'NONE', #35, #515, #506, .T. ) ;
#503 = ORIENTED_EDGE ( 'NONE', *, *, #443, .T. ) ;
#504 = VECTOR ( 'NONE', #493, 1000.000000000000000 ) ;
#505 = AXIS2_PLACEMENT_3D ( 'NONE', #448, #64, #547 ) ;
#506 = LINE ( 'NONE', #256, #201 ) ;
#507 = FACE_OUTER_BOUND ( 'NONE', #140, .T. ) ;
#508 = VERTEX_POINT ( 'NONE', #381 ) ;
#509 = ORIENTED_EDGE ( 'NONE', *, *, #301, .F. ) ;
#510 = ADVANCED_FACE ( 'NONE', ( #299 ), #387, .F. ) ;
#511 = DIRECTION ( 'NONE',  ( -0.000000000000000000, -0.000000000000000000, -1.000000000000000000 ) ) ;
#512 = CIRCLE ( 'NONE', #175, 2.999999999999999112 ) ;
#513 = CC_DESIGN_APPROVAL ( #523, ( #491 ) ) ;
#514 = UNCERTAINTY_MEASURE_WITH_UNIT (LENGTH_MEASURE( 1.000000000000000082E-05 ), #106, 'distance_accuracy_value', 'NONE');
#515 = VERTEX_POINT ( 'NONE', #249 ) ;
#516 = PLANE ( 'NONE',  #288 ) ;
#517 = ORIENTED_EDGE ( 'NONE', *, *, #171, .T. ) ;
#518 = APPROVAL_ROLE ( '' ) ;
#519 = ADVANCED_FACE ( 'NONE', ( #562 ), #37, .F. ) ;
#520 = DIRECTION ( 'NONE',  ( 1.000000000000000000, 0.000000000000000000, 0.000000000000000000 ) ) ;
#521 = PLANE ( 'NONE',  #296 ) ;
#522 = DIRECTION ( 'NONE',  ( 0.000000000000000000, 0.000000000000000000, 1.000000000000000000 ) ) ;
#523 = APPROVAL ( #183, 'UNSPECIFIED' ) ;
#524 = VECTOR ( 'NONE', #415, 1000.000000000000000 ) ;
#525 = AXIS2_PLACEMENT_3D ( 'NONE', #217, #275, #311 ) ;
#526 = DIRECTION ( 'NONE',  ( 1.000000000000000000, 0.000000000000000000, -0.000000000000000000 ) ) ;
#527 = ORIENTED_EDGE ( 'NONE', *, *, #554, .T. ) ;
#528 = CARTESIAN_POINT ( 'NONE',  ( 0.000000000000000000, 0.000000000000000000, 0.000000000000000000 ) ) ;
#529 = CARTESIAN_POINT ( 'NONE',  ( 25.71749999999999758, 1.060835625749655086E-14, 5.900000000000000355 ) ) ;
#530 = EDGE_LOOP ( 'NONE', ( #427, #161, #208, #203 ) ) ;
#531 = EDGE_CURVE ( 'NONE', #200, #86, #90, .T. ) ;
#532 = CARTESIAN_POINT ( 'NONE',  ( -25.71749999999999758, -5.139070771039472512E-15, 0.000000000000000000 ) ) ;
#533 = CARTESIAN_POINT ( 'NONE',  ( 25.71749999999999403, 8.000000000000012434, 0.000000000000000000 ) ) ;
#534 = APPROVAL_ROLE ( '' ) ;
#535 = CIRCLE ( 'NONE', #430, 5.000000000000000888 ) ;
#536 = CARTESIAN_POINT ( 'NONE',  ( 25.71749999999999758, 1.060835625749655086E-14, 0.000000000000000000 ) ) ;
#537 = CARTESIAN_POINT ( 'NONE',  ( 0.4795237735694211079, 6.125000000000007105, 5.900000000000000355 ) ) ;
#538 = AXIS2_PLACEMENT_3D ( 'NONE', #146, #273, #495 ) ;
#539 = CIRCLE ( 'NONE', #176, 3.149999999999999911 ) ;
#540 = CARTESIAN_POINT ( 'NONE',  ( -33.71749999999999403, -5.139070771039472512E-15, 5.900000000000000355 ) ) ;
#541 = DATE_AND_TIME ( #548, #103 ) ;
#542 = EDGE_CURVE ( 'NONE', #286, #467, #480, .T. ) ;
#543 = DIRECTION ( 'NONE',  ( 1.000000000000000000, 0.000000000000000000, 0.000000000000000000 ) ) ;
#544 = CALENDAR_DATE ( 2026, 12, 9 ) ;
#545 = ORIENTED_EDGE ( 'NONE', *, *, #428, .F. ) ;
#546 = CC_DESIGN_DATE_AND_TIME_ASSIGNMENT ( #490, #101, ( #287 ) ) ;
#547 = DIRECTION ( 'NONE',  ( 1.000000000000000000, 0.000000000000000000, 0.000000000000000000 ) ) ;
#548 = CALENDAR_DATE ( 2026, 12, 9 ) ;
#549 = VERTEX_POINT ( 'NONE', #97 ) ;
#550 = AXIS2_PLACEMENT_3D ( 'NONE', #367, #400, #266 ) ;
#551 = LOCAL_TIME ( 14, 35, 10.00000000000000000, #446 ) ;
#552 = DIRECTION ( 'NONE',  ( 0.000000000000000000, 0.000000000000000000, 1.000000000000000000 ) ) ;
#553 = ORIENTED_EDGE ( 'NONE', *, *, #412, .T. ) ;
#554 = EDGE_CURVE ( 'NONE', #515, #118, #320, .T. ) ;
#555 = VECTOR ( 'NONE', #307, 1000.000000000000000 ) ;
#556 = ORIENTED_EDGE ( 'NONE', *, *, #335, .F. ) ;
#557 = EDGE_CURVE ( 'NONE', #467, #297, #261, .T. ) ;
#558 = ORIENTED_EDGE ( 'NONE', *, *, #315, .F. ) ;
#559 = PERSON ( 'UNSPECIFIED', 'UNSPECIFIED', 'UNSPECIFIED', ('UNSPECIFIED'), ('UNSPECIFIED'), ('UNSPECIFIED') ) ;
#560 = EDGE_CURVE ( 'NONE', #284, #86, #539, .T. ) ;
#561 = ORIENTED_EDGE ( 'NONE', *, *, #560, .T. ) ;
#562 = FACE_OUTER_BOUND ( 'NONE', #28, .T. ) ;
ENDSEC;
END-ISO-10303-21;
