ISO-10303-21;
HEADER;
FILE_DESCRIPTION (( 'STEP AP203' ),
    '1' );
FILE_NAME ('04_06_FL_001_Default_sldprt.STEP',
    '2026-09-12T21:35:07',
    ( '' ),
    ( '' ),
    'SwSTEP 2.0',
    'SolidWorks 2025',
    '' );
FILE_SCHEMA (( 'CONFIG_CONTROL_DESIGN' ));
ENDSEC;

DATA;
#1 = LINE ( 'NONE', #4, #392 ) ;
#2 = APPROVAL_STATUS ( 'not_yet_approved' ) ;
#3 = ORIENTED_EDGE ( 'NONE', *, *, #310, .F. ) ;
#4 = CARTESIAN_POINT ( 'NONE',  ( 25.71750000000000469, -7.999999999999991118, 0.000000000000000000 ) ) ;
#5 = ORIENTED_EDGE ( 'NONE', *, *, #31, .T. ) ;
#6 = DIRECTION ( 'NONE',  ( -1.000000000000000000, 0.000000000000000000, 0.000000000000000000 ) ) ;
#7 = ORIENTED_EDGE ( 'NONE', *, *, #299, .F. ) ;
#8 = PLANE ( 'NONE',  #287 ) ;
#9 = VERTEX_POINT ( 'NONE', #304 ) ;
#10 = DIRECTION ( 'NONE',  ( -0.000000000000000000, -0.000000000000000000, -1.000000000000000000 ) ) ;
#11 = CC_DESIGN_PERSON_AND_ORGANIZATION_ASSIGNMENT ( #102, #263, ( #288 ) ) ;
#12 = EDGE_LOOP ( 'NONE', ( #41, #400, #385, #241 ) ) ;
#13 = LINE ( 'NONE', #283, #274 ) ;
#14 = DIRECTION ( 'NONE',  ( 0.000000000000000000, 0.000000000000000000, 1.000000000000000000 ) ) ;
#15 = ORIENTED_EDGE ( 'NONE', *, *, #399, .F. ) ;
#16 = AXIS2_PLACEMENT_3D ( 'NONE', #387, #121, #354 ) ;
#17 = ORIENTED_EDGE ( 'NONE', *, *, #175, .T. ) ;
#18 = CC_DESIGN_DATE_AND_TIME_ASSIGNMENT ( #164, #195, ( #288 ) ) ;
#19 = CIRCLE ( 'NONE', #328, 8.000000000000000000 ) ;
#20 = AXIS2_PLACEMENT_3D ( 'NONE', #262, #270, #97 ) ;
#21 = EDGE_CURVE ( 'NONE', #311, #409, #172, .T. ) ;
#22 = DIRECTION ( 'NONE',  ( -1.000000000000000000, 0.000000000000000000, 0.000000000000000000 ) ) ;
#23 = DIRECTION ( 'NONE',  ( 0.000000000000000000, 0.000000000000000000, 1.000000000000000000 ) ) ;
#24 = DIRECTION ( 'NONE',  ( 1.000000000000000000, 0.000000000000000000, 0.000000000000000000 ) ) ;
#25 = ORIENTED_EDGE ( 'NONE', *, *, #310, .T. ) ;
#26 = CIRCLE ( 'NONE', #307, 8.000000000000000000 ) ;
#27 = COORDINATED_UNIVERSAL_TIME_OFFSET ( 8, 0, .BEHIND. ) ;
#28 = CALENDAR_DATE ( 2026, 12, 9 ) ;
#29 = CARTESIAN_POINT ( 'NONE',  ( -22.56749999999999901, -4.753307029308056638E-15, 5.900000000000000355 ) ) ;
#30 = DIRECTION ( 'NONE',  ( 1.000000000000000000, 0.000000000000000000, 0.000000000000000000 ) ) ;
#31 = EDGE_CURVE ( 'NONE', #152, #285, #308, .T. ) ;
#32 = CIRCLE ( 'NONE', #185, 8.000000000000000000 ) ;
#33 = DIRECTION ( 'NONE',  ( 0.000000000000000000, 0.000000000000000000, 1.000000000000000000 ) ) ;
#34 = VERTEX_POINT ( 'NONE', #69 ) ;
#35 = LINE ( 'NONE', #108, #320 ) ;
#36 = LOCAL_TIME ( 14, 35, 7.000000000000000000, #27 ) ;
#37 = VERTEX_POINT ( 'NONE', #377 ) ;
#38 = FACE_BOUND ( 'NONE', #365, .T. ) ;
#39 = VECTOR ( 'NONE', #395, 1000.000000000000000 ) ;
#40 = AXIS2_PLACEMENT_3D ( 'NONE', #176, #372, #147 ) ;
#41 = ORIENTED_EDGE ( 'NONE', *, *, #358, .T. ) ;
#42 = LOCAL_TIME ( 14, 35, 7.000000000000000000, #330 ) ;
#43 = CARTESIAN_POINT ( 'NONE',  ( -28.86749999999999616, -5.139070771039472512E-15, 5.900000000000000355 ) ) ;
#44 = CC_DESIGN_PERSON_AND_ORGANIZATION_ASSIGNMENT ( #367, #201, ( #286 ) ) ;
#45 = FACE_OUTER_BOUND ( 'NONE', #234, .T. ) ;
#46 = CARTESIAN_POINT ( 'NONE',  ( -25.71749999999999758, -5.139070771039472512E-15, 5.900000000000000355 ) ) ;
#47 = CARTESIAN_POINT ( 'NONE',  ( 25.71749999999999758, 1.060835625749655086E-14, 5.900000000000000355 ) ) ;
#48 = ADVANCED_FACE ( 'NONE', ( #45 ), #273, .F. ) ;
#49 = AXIS2_PLACEMENT_3D ( 'NONE', #124, #258, #24 ) ;
#50 = ORIENTED_EDGE ( 'NONE', *, *, #299, .T. ) ;
#51 = CARTESIAN_POINT ( 'NONE',  ( -25.71749999999999758, -5.139070771039472512E-15, 5.900000000000000355 ) ) ;
#52 = AXIS2_PLACEMENT_3D ( 'NONE', #70, #298, #390 ) ;
#53 = PERSON_AND_ORGANIZATION ( #91, #296 ) ;
#54 = APPLICATION_PROTOCOL_DEFINITION ( 'international standard', 'config_control_design', 1994, #301 ) ;
#55 = LOCAL_TIME ( 14, 35, 7.000000000000000000, #389 ) ;
#56 = APPROVAL_DATE_TIME ( #226, #352 ) ;
#57 = EDGE_CURVE ( 'NONE', #285, #311, #313, .T. ) ;
#58 = ORIENTED_EDGE ( 'NONE', *, *, #208, .T. ) ;
#59 = VECTOR ( 'NONE', #373, 1000.000000000000000 ) ;
#60 = APPROVAL_STATUS ( 'not_yet_approved' ) ;
#61 = PRODUCT_RELATED_PRODUCT_CATEGORY ( 'detail', '', ( #284 ) ) ;
#62 = DIRECTION ( 'NONE',  ( -0.000000000000000000, -0.000000000000000000, -1.000000000000000000 ) ) ;
#63 = CARTESIAN_POINT ( 'NONE',  ( -25.71749999999999758, -5.139070771039472512E-15, 0.000000000000000000 ) ) ;
#64 = EDGE_CURVE ( 'NONE', #37, #324, #212, .T. ) ;
#65 = UNCERTAINTY_MEASURE_WITH_UNIT (LENGTH_MEASURE( 1.000000000000000082E-05 ), #322, 'distance_accuracy_value', 'NONE');
#66 = PERSON_AND_ORGANIZATION ( #91, #296 ) ;
#67 = PLANE ( 'NONE',  #384 ) ;
#68 = COORDINATED_UNIVERSAL_TIME_OFFSET ( 8, 0, .BEHIND. ) ;
#69 = CARTESIAN_POINT ( 'NONE',  ( -33.71749999999999403, -5.139070771039472512E-15, 0.000000000000000000 ) ) ;
#70 = CARTESIAN_POINT ( 'NONE',  ( -25.71749999999999758, -5.139070771039472512E-15, 5.900000000000000355 ) ) ;
#71 = VERTEX_POINT ( 'NONE', #105 ) ;
#72 = DIRECTION ( 'NONE',  ( -0.000000000000000000, -0.000000000000000000, -1.000000000000000000 ) ) ;
#73 = AXIS2_PLACEMENT_3D ( 'NONE', #87, #256, #388 ) ;
#74 = ORIENTED_EDGE ( 'NONE', *, *, #153, .F. ) ;
#75 = CC_DESIGN_PERSON_AND_ORGANIZATION_ASSIGNMENT ( #159, #356, ( #284 ) ) ;
#76 = PRODUCT_DEFINITION_SHAPE ( 'NONE', 'NONE',  #423 ) ;
#77 = MANIFOLD_SOLID_BREP ( 'Boss-Extrude1', #249 ) ;
#78 = FACE_OUTER_BOUND ( 'NONE', #192, .T. ) ;
#79 = ORIENTED_EDGE ( 'NONE', *, *, #175, .F. ) ;
#80 = ORIENTED_EDGE ( 'NONE', *, *, #31, .F. ) ;
#81 = CARTESIAN_POINT ( 'NONE',  ( 28.86749999999999616, 1.099411999922796753E-14, 5.900000000000000355 ) ) ;
#82 = CYLINDRICAL_SURFACE ( 'NONE', #264, 3.149999999999999911 ) ;
#83 = CARTESIAN_POINT ( 'NONE',  ( -25.71750000000000114, 7.999999999999996447, 5.900000000000000355 ) ) ;
#84 = ORIENTED_EDGE ( 'NONE', *, *, #57, .F. ) ;
#85 = CIRCLE ( 'NONE', #171, 3.149999999999999911 ) ;
#86 = APPLICATION_CONTEXT ( 'configuration controlled 3d designs of mechanical parts and assemblies' ) ;
#87 = CARTESIAN_POINT ( 'NONE',  ( -25.71749999999999758, -5.139070771039472512E-15, 0.000000000000000000 ) ) ;
#88 = CYLINDRICAL_SURFACE ( 'NONE', #119, 3.149999999999999911 ) ;
#89 = CARTESIAN_POINT ( 'NONE',  ( 0.000000000000000000, 0.000000000000000000, 0.000000000000000000 ) ) ;
#90 = MECHANICAL_CONTEXT ( 'NONE', #86, 'mechanical' ) ;
#91 = PERSON ( 'UNSPECIFIED', 'UNSPECIFIED', 'UNSPECIFIED', ('UNSPECIFIED'), ('UNSPECIFIED'), ('UNSPECIFIED') ) ;
#92 = CALENDAR_DATE ( 2026, 12, 9 ) ;
#93 = AXIS2_PLACEMENT_3D ( 'NONE', #291, #188, #292 ) ;
#94 = VERTEX_POINT ( 'NONE', #302 ) ;
#95 = AXIS2_PLACEMENT_3D ( 'NONE', #235, #203, #6 ) ;
#96 = VECTOR ( 'NONE', #272, 1000.000000000000000 ) ;
#97 = DIRECTION ( 'NONE',  ( 1.000000000000000000, 0.000000000000000000, 0.000000000000000000 ) ) ;
#98 = CC_DESIGN_SECURITY_CLASSIFICATION ( #288, ( #286 ) ) ;
#99 = DATE_AND_TIME ( #28, #220 ) ;
#100 = ORIENTED_EDGE ( 'NONE', *, *, #57, .T. ) ;
#101 = DIRECTION ( 'NONE',  ( -0.000000000000000000, -0.000000000000000000, -1.000000000000000000 ) ) ;
#102 = PERSON_AND_ORGANIZATION ( #91, #296 ) ;
#103 = FACE_BOUND ( 'NONE', #350, .T. ) ;
#104 = VERTEX_POINT ( 'NONE', #332 ) ;
#105 = CARTESIAN_POINT ( 'NONE',  ( 25.71750000000000469, -7.999999999999991118, 5.900000000000000355 ) ) ;
#106 = VERTEX_POINT ( 'NONE', #170 ) ;
#107 = ORIENTED_EDGE ( 'NONE', *, *, #247, .F. ) ;
#108 = CARTESIAN_POINT ( 'NONE',  ( -25.71749999999999758, -8.000000000000007105, 5.900000000000000355 ) ) ;
#109 = ADVANCED_FACE ( 'NONE', ( #393 ), #137, .F. ) ;
#110 = DIRECTION ( 'NONE',  ( 0.000000000000000000, 0.000000000000000000, 1.000000000000000000 ) ) ;
#111 = DIRECTION ( 'NONE',  ( 0.000000000000000000, 0.000000000000000000, 1.000000000000000000 ) ) ;
#112 = DIRECTION ( 'NONE',  ( 1.000000000000000000, 0.000000000000000000, 0.000000000000000000 ) ) ;
#113 = CARTESIAN_POINT ( 'NONE',  ( 25.71749999999999758, 1.060835625749655086E-14, 0.000000000000000000 ) ) ;
#114 = AXIS2_PLACEMENT_3D ( 'NONE', #404, #110, #112 ) ;
#115 = EDGE_CURVE ( 'NONE', #346, #104, #131, .T. ) ;
#116 = CARTESIAN_POINT ( 'NONE',  ( 25.71749999999999758, 1.060835625749655086E-14, 5.900000000000000355 ) ) ;
#117 = ORIENTED_EDGE ( 'NONE', *, *, #289, .T. ) ;
#118 = DIRECTION ( 'NONE',  ( 1.000000000000000000, 0.000000000000000000, 0.000000000000000000 ) ) ;
#119 = AXIS2_PLACEMENT_3D ( 'NONE', #156, #186, #160 ) ;
#120 = VECTOR ( 'NONE', #252, 1000.000000000000000 ) ;
#121 = DIRECTION ( 'NONE',  ( -3.035386659626959625E-16, 1.000000000000000000, 0.000000000000000000 ) ) ;
#122 = APPROVAL ( #2, 'UNSPECIFIED' ) ;
#123 = LINE ( 'NONE', #351, #182 ) ;
#124 = CARTESIAN_POINT ( 'NONE',  ( 25.71749999999999758, 1.060835625749655086E-14, 5.900000000000000355 ) ) ;
#125 = APPROVAL_DATE_TIME ( #394, #122 ) ;
#126 = APPROVAL_PERSON_ORGANIZATION ( #53, #352, #419 ) ;
#127 = CARTESIAN_POINT ( 'NONE',  ( 25.71749999999999403, 8.000000000000012434, 5.900000000000000355 ) ) ;
#128 = EDGE_CURVE ( 'NONE', #233, #346, #1, .T. ) ;
#129 = APPROVAL_DATE_TIME ( #99, #224 ) ;
#130 = EDGE_LOOP ( 'NONE', ( #402, #7, #74, #166 ) ) ;
#131 = CIRCLE ( 'NONE', #360, 8.000000000000000000 ) ;
#132 = FACE_OUTER_BOUND ( 'NONE', #341, .T. ) ;
#133 = CALENDAR_DATE ( 2026, 12, 9 ) ;
#134 = CARTESIAN_POINT ( 'NONE',  ( 25.71749999999999403, 8.000000000000012434, 0.000000000000000000 ) ) ;
#135 = COORDINATED_UNIVERSAL_TIME_OFFSET ( 8, 0, .BEHIND. ) ;
#136 = ORIENTED_EDGE ( 'NONE', *, *, #158, .F. ) ;
#137 = CYLINDRICAL_SURFACE ( 'NONE', #344, 3.149999999999999911 ) ;
#138 = DIRECTION ( 'NONE',  ( 1.000000000000000000, 0.000000000000000000, 0.000000000000000000 ) ) ;
#139 = CYLINDRICAL_SURFACE ( 'NONE', #255, 8.000000000000000000 ) ;
#140 = CIRCLE ( 'NONE', #154, 3.149999999999999911 ) ;
#141 = EDGE_CURVE ( 'NONE', #327, #104, #424, .T. ) ;
#142 = APPROVAL_PERSON_ORGANIZATION ( #66, #224, #197 ) ;
#143 = ORIENTED_EDGE ( 'NONE', *, *, #148, .T. ) ;
#144 = DIRECTION ( 'NONE',  ( 1.000000000000000000, 3.035386659626960118E-16, 0.000000000000000000 ) ) ;
#145 = ORIENTED_EDGE ( 'NONE', *, *, #294, .T. ) ;
#146 = DIRECTION ( 'NONE',  ( 3.035386659626960118E-16, -1.000000000000000000, 0.000000000000000000 ) ) ;
#147 = DIRECTION ( 'NONE',  ( -1.000000000000000000, 0.000000000000000000, 0.000000000000000000 ) ) ;
#148 = EDGE_CURVE ( 'NONE', #9, #293, #266, .T. ) ;
#149 = DIRECTION ( 'NONE',  ( 1.000000000000000000, 0.000000000000000000, 0.000000000000000000 ) ) ;
#150 = CARTESIAN_POINT ( 'NONE',  ( 25.71750000000000469, -7.999999999999991118, 5.900000000000000355 ) ) ;
#151 = ORIENTED_EDGE ( 'NONE', *, *, #371, .F. ) ;
#152 = VERTEX_POINT ( 'NONE', #196 ) ;
#153 = EDGE_CURVE ( 'NONE', #293, #71, #232, .T. ) ;
#154 = AXIS2_PLACEMENT_3D ( 'NONE', #63, #334, #30 ) ;
#155 =( NAMED_UNIT ( * ) PLANE_ANGLE_UNIT ( ) SI_UNIT ( $, .RADIAN. ) );
#156 = CARTESIAN_POINT ( 'NONE',  ( -25.71749999999999758, -5.139070771039472512E-15, 5.900000000000000355 ) ) ;
#157 = APPROVAL_STATUS ( 'not_yet_approved' ) ;
#158 = EDGE_CURVE ( 'NONE', #293, #233, #35, .T. ) ;
#159 = PERSON_AND_ORGANIZATION ( #91, #296 ) ;
#160 = DIRECTION ( 'NONE',  ( -1.000000000000000000, 0.000000000000000000, 0.000000000000000000 ) ) ;
#161 = DATE_AND_TIME ( #396, #36 ) ;
#162 = DIRECTION ( 'NONE',  ( -0.000000000000000000, -0.000000000000000000, -1.000000000000000000 ) ) ;
#163 = DIRECTION ( 'NONE',  ( 1.000000000000000000, 0.000000000000000000, 0.000000000000000000 ) ) ;
#164 = DATE_AND_TIME ( #362, #231 ) ;
#165 = LINE ( 'NONE', #366, #59 ) ;
#166 = ORIENTED_EDGE ( 'NONE', *, *, #158, .T. ) ;
#167 = EDGE_CURVE ( 'NONE', #37, #94, #240, .T. ) ;
#168 = CARTESIAN_POINT ( 'NONE',  ( 25.71749999999999758, 1.060835625749655086E-14, 5.900000000000000355 ) ) ;
#169 = ORIENTED_EDGE ( 'NONE', *, *, #21, .F. ) ;
#170 = CARTESIAN_POINT ( 'NONE',  ( -25.71750000000000114, 7.999999999999996447, 0.000000000000000000 ) ) ;
#171 = AXIS2_PLACEMENT_3D ( 'NONE', #113, #248, #349 ) ;
#172 = CIRCLE ( 'NONE', #114, 3.149999999999999911 ) ;
#173 = EDGE_LOOP ( 'NONE', ( #369, #3, #343, #375 ) ) ;
#174 = CARTESIAN_POINT ( 'NONE',  ( 28.86749999999999616, 1.099411999922796753E-14, 0.000000000000000000 ) ) ;
#175 = EDGE_CURVE ( 'NONE', #71, #327, #32, .T. ) ;
#176 = CARTESIAN_POINT ( 'NONE',  ( 25.71749999999999758, 1.060835625749655086E-14, 5.900000000000000355 ) ) ;
#177 = EDGE_CURVE ( 'NONE', #104, #106, #305, .T. ) ;
#178 = FACE_OUTER_BOUND ( 'NONE', #353, .T. ) ;
#179 = CARTESIAN_POINT ( 'NONE',  ( 25.71750000000000469, -7.999999999999991118, 0.000000000000000000 ) ) ;
#180 = ORIENTED_EDGE ( 'NONE', *, *, #21, .T. ) ;
#181 = ADVANCED_FACE ( 'NONE', ( #237 ), #368, .T. ) ;
#182 = VECTOR ( 'NONE', #359, 1000.000000000000000 ) ;
#183 = CYLINDRICAL_SURFACE ( 'NONE', #303, 8.000000000000000000 ) ;
#184 = ORIENTED_EDGE ( 'NONE', *, *, #141, .F. ) ;
#185 = AXIS2_PLACEMENT_3D ( 'NONE', #168, #194, #370 ) ;
#186 = DIRECTION ( 'NONE',  ( -0.000000000000000000, -0.000000000000000000, -1.000000000000000000 ) ) ;
#187 = ORIENTED_EDGE ( 'NONE', *, *, #333, .T. ) ;
#188 = DIRECTION ( 'NONE',  ( 0.000000000000000000, 0.000000000000000000, 1.000000000000000000 ) ) ;
#189 = ORIENTED_EDGE ( 'NONE', *, *, #333, .F. ) ;
#190 = PERSON_AND_ORGANIZATION ( #91, #296 ) ;
#191 = VECTOR ( 'NONE', #216, 1000.000000000000000 ) ;
#192 = EDGE_LOOP ( 'NONE', ( #17, #145, #25, #143, #265 ) ) ;
#193 = CC_DESIGN_DATE_AND_TIME_ASSIGNMENT ( #161, #335, ( #423 ) ) ;
#194 = DIRECTION ( 'NONE',  ( 0.000000000000000000, 0.000000000000000000, 1.000000000000000000 ) ) ;
#195 = DATE_TIME_ROLE ( 'classification_date' ) ;
#196 = CARTESIAN_POINT ( 'NONE',  ( 22.56749999999999901, 1.060835625749655086E-14, 5.900000000000000355 ) ) ;
#197 = APPROVAL_ROLE ( '' ) ;
#198 = CARTESIAN_POINT ( 'NONE',  ( 25.71749999999999758, 1.060835625749655086E-14, 0.000000000000000000 ) ) ;
#199 = VECTOR ( 'NONE', #62, 1000.000000000000000 ) ;
#200 = ADVANCED_FACE ( 'NONE', ( #132 ), #139, .T. ) ;
#201 = PERSON_AND_ORGANIZATION_ROLE ( 'creator' ) ;
#202 = ORIENTED_EDGE ( 'NONE', *, *, #64, .F. ) ;
#203 = DIRECTION ( 'NONE',  ( -0.000000000000000000, -0.000000000000000000, -1.000000000000000000 ) ) ;
#204 = EDGE_LOOP ( 'NONE', ( #219, #117, #338, #136 ) ) ;
#205 = APPROVAL_PERSON_ORGANIZATION ( #261, #122, #268 ) ;
#206 = FACE_OUTER_BOUND ( 'NONE', #420, .T. ) ;
#207 = ORIENTED_EDGE ( 'NONE', *, *, #128, .F. ) ;
#208 = EDGE_CURVE ( 'NONE', #324, #253, #165, .T. ) ;
#209 = CARTESIAN_POINT ( 'NONE',  ( 25.71749999999999403, 8.000000000000012434, 5.900000000000000355 ) ) ;
#210 = VECTOR ( 'NONE', #403, 1000.000000000000000 ) ;
#211 = ORIENTED_EDGE ( 'NONE', *, *, #247, .T. ) ;
#212 = CIRCLE ( 'NONE', #52, 3.149999999999999911 ) ;
#213 = DIRECTION ( 'NONE',  ( 0.000000000000000000, 0.000000000000000000, 1.000000000000000000 ) ) ;
#214 = CARTESIAN_POINT ( 'NONE',  ( -25.71749999999999758, -8.000000000000007105, 0.000000000000000000 ) ) ;
#215 = ORIENTED_EDGE ( 'NONE', *, *, #371, .T. ) ;
#216 = DIRECTION ( 'NONE',  ( -0.000000000000000000, -0.000000000000000000, -1.000000000000000000 ) ) ;
#217 = ADVANCED_BREP_SHAPE_REPRESENTATION ( '04_06_FL_001_Default_sldprt', ( #77, #411 ), #340 ) ;
#218 = CARTESIAN_POINT ( 'NONE',  ( -28.86749999999999616, -5.139070771039472512E-15, 0.000000000000000000 ) ) ;
#219 = ORIENTED_EDGE ( 'NONE', *, *, #148, .F. ) ;
#220 = LOCAL_TIME ( 14, 35, 7.000000000000000000, #135 ) ;
#221 = EDGE_CURVE ( 'NONE', #253, #94, #140, .T. ) ;
#222 = FACE_OUTER_BOUND ( 'NONE', #12, .T. ) ;
#223 = ADVANCED_FACE ( 'NONE', ( #206, #300, #103 ), #67, .F. ) ;
#224 = APPROVAL ( #60, 'UNSPECIFIED' ) ;
#225 = CC_DESIGN_APPROVAL ( #352, ( #423 ) ) ;
#226 = DATE_AND_TIME ( #92, #55 ) ;
#227 = ORIENTED_EDGE ( 'NONE', *, *, #399, .T. ) ;
#228 = PERSON_AND_ORGANIZATION_ROLE ( 'design_supplier' ) ;
#229 = AXIS2_PLACEMENT_3D ( 'NONE', #315, #14, #118 ) ;
#230 = ADVANCED_FACE ( 'NONE', ( #38, #78, #250 ), #376, .T. ) ;
#231 = LOCAL_TIME ( 14, 35, 7.000000000000000000, #68 ) ;
#232 = LINE ( 'NONE', #242, #378 ) ;
#233 = VERTEX_POINT ( 'NONE', #214 ) ;
#234 = EDGE_LOOP ( 'NONE', ( #84, #227, #211, #169 ) ) ;
#235 = CARTESIAN_POINT ( 'NONE',  ( -25.71749999999999758, -5.139070771039472512E-15, 5.900000000000000355 ) ) ;
#236 = SHAPE_DEFINITION_REPRESENTATION ( #76, #217 ) ;
#237 = FACE_OUTER_BOUND ( 'NONE', #173, .T. ) ;
#238 = EDGE_CURVE ( 'NONE', #106, #34, #26, .T. ) ;
#239 = ORIENTED_EDGE ( 'NONE', *, *, #177, .F. ) ;
#240 = LINE ( 'NONE', #29, #199 ) ;
#241 = ORIENTED_EDGE ( 'NONE', *, *, #208, .F. ) ;
#242 = CARTESIAN_POINT ( 'NONE',  ( 25.71750000000000469, -7.999999999999991118, 5.900000000000000355 ) ) ;
#243 = ORIENTED_EDGE ( 'NONE', *, *, #221, .T. ) ;
#244 = LINE ( 'NONE', #209, #210 ) ;
#245 = DESIGN_CONTEXT ( 'detailed design', #301, 'design' ) ;
#246 = ORIENTED_EDGE ( 'NONE', *, *, #167, .F. ) ;
#247 = EDGE_CURVE ( 'NONE', #152, #409, #13, .T. ) ;
#248 = DIRECTION ( 'NONE',  ( 0.000000000000000000, 0.000000000000000000, 1.000000000000000000 ) ) ;
#249 = CLOSED_SHELL ( 'NONE', ( #379, #326, #386, #230, #223, #200, #269, #181, #363, #48, #109 ) ) ;
#250 = FACE_BOUND ( 'NONE', #355, .T. ) ;
#251 = EDGE_LOOP ( 'NONE', ( #246, #383, #58, #151 ) ) ;
#252 = DIRECTION ( 'NONE',  ( -0.000000000000000000, -0.000000000000000000, -1.000000000000000000 ) ) ;
#253 = VERTEX_POINT ( 'NONE', #218 ) ;
#254 = ORIENTED_EDGE ( 'NONE', *, *, #115, .F. ) ;
#255 = AXIS2_PLACEMENT_3D ( 'NONE', #275, #162, #267 ) ;
#256 = DIRECTION ( 'NONE',  ( 0.000000000000000000, 0.000000000000000000, 1.000000000000000000 ) ) ;
#257 = ORIENTED_EDGE ( 'NONE', *, *, #348, .F. ) ;
#258 = DIRECTION ( 'NONE',  ( 0.000000000000000000, 0.000000000000000000, 1.000000000000000000 ) ) ;
#259 = DIRECTION ( 'NONE',  ( 1.000000000000000000, 0.000000000000000000, 0.000000000000000000 ) ) ;
#260 = CIRCLE ( 'NONE', #73, 3.149999999999999911 ) ;
#261 = PERSON_AND_ORGANIZATION ( #91, #296 ) ;
#262 = CARTESIAN_POINT ( 'NONE',  ( -25.71749999999999758, -5.139070771039472512E-15, 5.900000000000000355 ) ) ;
#263 = PERSON_AND_ORGANIZATION_ROLE ( 'classification_officer' ) ;
#264 = AXIS2_PLACEMENT_3D ( 'NONE', #116, #10, #280 ) ;
#265 = ORIENTED_EDGE ( 'NONE', *, *, #153, .T. ) ;
#266 = CIRCLE ( 'NONE', #20, 8.000000000000000000 ) ;
#267 = DIRECTION ( 'NONE',  ( -1.000000000000000000, 0.000000000000000000, 0.000000000000000000 ) ) ;
#268 = APPROVAL_ROLE ( '' ) ;
#269 = ADVANCED_FACE ( 'NONE', ( #178 ), #8, .F. ) ;
#270 = DIRECTION ( 'NONE',  ( 0.000000000000000000, 0.000000000000000000, 1.000000000000000000 ) ) ;
#271 = DIRECTION ( 'NONE',  ( -0.000000000000000000, -0.000000000000000000, -1.000000000000000000 ) ) ;
#272 = DIRECTION ( 'NONE',  ( -0.000000000000000000, -0.000000000000000000, -1.000000000000000000 ) ) ;
#273 = CYLINDRICAL_SURFACE ( 'NONE', #40, 3.149999999999999911 ) ;
#274 = VECTOR ( 'NONE', #312, 1000.000000000000000 ) ;
#275 = CARTESIAN_POINT ( 'NONE',  ( 25.71749999999999758, 1.060835625749655086E-14, 5.900000000000000355 ) ) ;
#276 = ORIENTED_EDGE ( 'NONE', *, *, #417, .F. ) ;
#277 = CARTESIAN_POINT ( 'NONE',  ( -33.71749999999999403, -5.139070771039472512E-15, 5.900000000000000355 ) ) ;
#278 = CC_DESIGN_PERSON_AND_ORGANIZATION_ASSIGNMENT ( #190, #329, ( #423 ) ) ;
#279 = ORIENTED_EDGE ( 'NONE', *, *, #238, .F. ) ;
#280 = DIRECTION ( 'NONE',  ( -1.000000000000000000, 0.000000000000000000, 0.000000000000000000 ) ) ;
#281 = ORIENTED_EDGE ( 'NONE', *, *, #358, .F. ) ;
#282 = DIRECTION ( 'NONE',  ( 1.000000000000000000, 0.000000000000000000, -0.000000000000000000 ) ) ;
#283 = CARTESIAN_POINT ( 'NONE',  ( 22.56749999999999901, 1.060835625749655086E-14, 5.900000000000000355 ) ) ;
#284 = PRODUCT ( '04_06_FL_001_Default_sldprt', '04_06_FL_001_Default_sldprt', '', ( #90 ) ) ;
#285 = VERTEX_POINT ( 'NONE', #81 ) ;
#286 = PRODUCT_DEFINITION_FORMATION_WITH_SPECIFIED_SOURCE ( 'ANY', '', #284, .NOT_KNOWN. ) ;
#287 = AXIS2_PLACEMENT_3D ( 'NONE', #309, #146, #144 ) ;
#288 = SECURITY_CLASSIFICATION ( '', '', #337 ) ;
#289 = EDGE_CURVE ( 'NONE', #9, #34, #347, .T. ) ;
#290 = PLANE ( 'NONE',  #16 ) ;
#291 = CARTESIAN_POINT ( 'NONE',  ( -25.71749999999999758, -5.139070771039472512E-15, 5.900000000000000355 ) ) ;
#292 = DIRECTION ( 'NONE',  ( 1.000000000000000000, 0.000000000000000000, 0.000000000000000000 ) ) ;
#293 = VERTEX_POINT ( 'NONE', #405 ) ;
#294 = EDGE_CURVE ( 'NONE', #327, #357, #244, .T. ) ;
#295 = FACE_OUTER_BOUND ( 'NONE', #130, .T. ) ;
#296 = ORGANIZATION ( 'UNSPECIFIED', 'UNSPECIFIED', '' ) ;
#297 = PERSON_AND_ORGANIZATION ( #91, #296 ) ;
#298 = DIRECTION ( 'NONE',  ( 0.000000000000000000, 0.000000000000000000, 1.000000000000000000 ) ) ;
#299 = EDGE_CURVE ( 'NONE', #71, #346, #345, .T. ) ;
#300 = FACE_BOUND ( 'NONE', #418, .T. ) ;
#301 = APPLICATION_CONTEXT ( 'configuration controlled 3d designs of mechanical parts and assemblies' ) ;
#302 = CARTESIAN_POINT ( 'NONE',  ( -22.56749999999999901, -4.753307029308056638E-15, 0.000000000000000000 ) ) ;
#303 = AXIS2_PLACEMENT_3D ( 'NONE', #51, #317, #22 ) ;
#304 = CARTESIAN_POINT ( 'NONE',  ( -33.71749999999999403, -5.139070771039472512E-15, 5.900000000000000355 ) ) ;
#305 = LINE ( 'NONE', #134, #39 ) ;
#306 = CARTESIAN_POINT ( 'NONE',  ( 25.71749999999999758, 1.060835625749655086E-14, 5.900000000000000355 ) ) ;
#307 = AXIS2_PLACEMENT_3D ( 'NONE', #408, #380, #381 ) ;
#308 = CIRCLE ( 'NONE', #319, 3.149999999999999911 ) ;
#309 = CARTESIAN_POINT ( 'NONE',  ( 25.71749999999999403, 8.000000000000012434, 5.900000000000000355 ) ) ;
#310 = EDGE_CURVE ( 'NONE', #357, #9, #19, .T. ) ;
#311 = VERTEX_POINT ( 'NONE', #174 ) ;
#312 = DIRECTION ( 'NONE',  ( -0.000000000000000000, -0.000000000000000000, -1.000000000000000000 ) ) ;
#313 = LINE ( 'NONE', #407, #413 ) ;
#314 = DIRECTION ( 'NONE',  ( 0.000000000000000000, 0.000000000000000000, 1.000000000000000000 ) ) ;
#315 = CARTESIAN_POINT ( 'NONE',  ( -25.71749999999999758, -5.139070771039472512E-15, 0.000000000000000000 ) ) ;
#316 = ORIENTED_EDGE ( 'NONE', *, *, #115, .T. ) ;
#317 = DIRECTION ( 'NONE',  ( -0.000000000000000000, -0.000000000000000000, -1.000000000000000000 ) ) ;
#318 = CC_DESIGN_PERSON_AND_ORGANIZATION_ASSIGNMENT ( #297, #228, ( #286 ) ) ;
#319 = AXIS2_PLACEMENT_3D ( 'NONE', #306, #213, #138 ) ;
#320 = VECTOR ( 'NONE', #101, 1000.000000000000000 ) ;
#321 = APPLICATION_PROTOCOL_DEFINITION ( 'international standard', 'config_control_design', 1994, #86 ) ;
#322 =( LENGTH_UNIT ( ) NAMED_UNIT ( * ) SI_UNIT ( .MILLI., .METRE. ) );
#323 = EDGE_LOOP ( 'NONE', ( #5, #100, #189, #107 ) ) ;
#324 = VERTEX_POINT ( 'NONE', #43 ) ;
#325 =( NAMED_UNIT ( * ) SI_UNIT ( $, .STERADIAN. ) SOLID_ANGLE_UNIT ( ) );
#326 = ADVANCED_FACE ( 'NONE', ( #410 ), #82, .F. ) ;
#327 = VERTEX_POINT ( 'NONE', #382 ) ;
#328 = AXIS2_PLACEMENT_3D ( 'NONE', #46, #314, #149 ) ;
#329 = PERSON_AND_ORGANIZATION_ROLE ( 'creator' ) ;
#330 = COORDINATED_UNIVERSAL_TIME_OFFSET ( 8, 0, .BEHIND. ) ;
#331 = ORIENTED_EDGE ( 'NONE', *, *, #141, .T. ) ;
#332 = CARTESIAN_POINT ( 'NONE',  ( 25.71749999999999403, 8.000000000000012434, 0.000000000000000000 ) ) ;
#333 = EDGE_CURVE ( 'NONE', #409, #311, #85, .T. ) ;
#334 = DIRECTION ( 'NONE',  ( 0.000000000000000000, 0.000000000000000000, 1.000000000000000000 ) ) ;
#335 = DATE_TIME_ROLE ( 'creation_date' ) ;
#336 = DIRECTION ( 'NONE',  ( 1.000000000000000000, 3.035386659626959132E-16, -0.000000000000000000 ) ) ;
#337 = SECURITY_CLASSIFICATION_LEVEL ( 'unclassified' ) ;
#338 = ORIENTED_EDGE ( 'NONE', *, *, #348, .T. ) ;
#339 = DIRECTION ( 'NONE',  ( -1.000000000000000000, 0.000000000000000000, 0.000000000000000000 ) ) ;
#340 =( GEOMETRIC_REPRESENTATION_CONTEXT ( 3 ) GLOBAL_UNCERTAINTY_ASSIGNED_CONTEXT ( ( #65 ) ) GLOBAL_UNIT_ASSIGNED_CONTEXT ( ( #322, #155, #325 ) ) REPRESENTATION_CONTEXT ( 'NONE', 'WORKASPACE' ) );
#341 = EDGE_LOOP ( 'NONE', ( #316, #184, #79, #50 ) ) ;
#342 = DIRECTION ( 'NONE',  ( 1.000000000000000000, 0.000000000000000000, -0.000000000000000000 ) ) ;
#343 = ORIENTED_EDGE ( 'NONE', *, *, #417, .T. ) ;
#344 = AXIS2_PLACEMENT_3D ( 'NONE', #422, #72, #339 ) ;
#345 = LINE ( 'NONE', #150, #191 ) ;
#346 = VERTEX_POINT ( 'NONE', #179 ) ;
#347 = LINE ( 'NONE', #277, #120 ) ;
#348 = EDGE_CURVE ( 'NONE', #34, #233, #412, .T. ) ;
#349 = DIRECTION ( 'NONE',  ( 1.000000000000000000, 0.000000000000000000, 0.000000000000000000 ) ) ;
#350 = EDGE_LOOP ( 'NONE', ( #243, #215 ) ) ;
#351 = CARTESIAN_POINT ( 'NONE',  ( -25.71750000000000114, 7.999999999999996447, 5.900000000000000355 ) ) ;
#352 = APPROVAL ( #157, 'UNSPECIFIED' ) ;
#353 = EDGE_LOOP ( 'NONE', ( #397, #276, #406, #331 ) ) ;
#354 = DIRECTION ( 'NONE',  ( -1.000000000000000000, -3.035386659626959625E-16, 0.000000000000000000 ) ) ;
#355 = EDGE_LOOP ( 'NONE', ( #281, #202 ) ) ;
#356 = PERSON_AND_ORGANIZATION_ROLE ( 'design_owner' ) ;
#357 = VERTEX_POINT ( 'NONE', #83 ) ;
#358 = EDGE_CURVE ( 'NONE', #324, #37, #421, .T. ) ;
#359 = DIRECTION ( 'NONE',  ( -0.000000000000000000, -0.000000000000000000, -1.000000000000000000 ) ) ;
#360 = AXIS2_PLACEMENT_3D ( 'NONE', #401, #398, #163 ) ;
#361 = CC_DESIGN_APPROVAL ( #122, ( #286 ) ) ;
#362 = CALENDAR_DATE ( 2026, 12, 9 ) ;
#363 = ADVANCED_FACE ( 'NONE', ( #295 ), #290, .F. ) ;
#364 = DIRECTION ( 'NONE',  ( 1.000000000000000000, 3.035386659626959132E-16, -0.000000000000000000 ) ) ;
#365 = EDGE_LOOP ( 'NONE', ( #80, #15 ) ) ;
#366 = CARTESIAN_POINT ( 'NONE',  ( -28.86749999999999616, -5.139070771039472512E-15, 5.900000000000000355 ) ) ;
#367 = PERSON_AND_ORGANIZATION ( #91, #296 ) ;
#368 = CYLINDRICAL_SURFACE ( 'NONE', #95, 8.000000000000000000 ) ;
#369 = ORIENTED_EDGE ( 'NONE', *, *, #289, .F. ) ;
#370 = DIRECTION ( 'NONE',  ( 1.000000000000000000, 0.000000000000000000, 0.000000000000000000 ) ) ;
#371 = EDGE_CURVE ( 'NONE', #94, #253, #260, .T. ) ;
#372 = DIRECTION ( 'NONE',  ( -0.000000000000000000, -0.000000000000000000, -1.000000000000000000 ) ) ;
#373 = DIRECTION ( 'NONE',  ( -0.000000000000000000, -0.000000000000000000, -1.000000000000000000 ) ) ;
#374 = CIRCLE ( 'NONE', #49, 3.149999999999999911 ) ;
#375 = ORIENTED_EDGE ( 'NONE', *, *, #238, .T. ) ;
#376 = PLANE ( 'NONE',  #391 ) ;
#377 = CARTESIAN_POINT ( 'NONE',  ( -22.56749999999999901, -4.753307029308056638E-15, 5.900000000000000355 ) ) ;
#378 = VECTOR ( 'NONE', #336, 1000.000000000000000 ) ;
#379 = ADVANCED_FACE ( 'NONE', ( #222 ), #88, .F. ) ;
#380 = DIRECTION ( 'NONE',  ( 0.000000000000000000, 0.000000000000000000, 1.000000000000000000 ) ) ;
#381 = DIRECTION ( 'NONE',  ( 1.000000000000000000, 0.000000000000000000, 0.000000000000000000 ) ) ;
#382 = CARTESIAN_POINT ( 'NONE',  ( 25.71749999999999403, 8.000000000000012434, 5.900000000000000355 ) ) ;
#383 = ORIENTED_EDGE ( 'NONE', *, *, #64, .T. ) ;
#384 = AXIS2_PLACEMENT_3D ( 'NONE', #198, #33, #342 ) ;
#385 = ORIENTED_EDGE ( 'NONE', *, *, #221, .F. ) ;
#386 = ADVANCED_FACE ( 'NONE', ( #416 ), #183, .T. ) ;
#387 = CARTESIAN_POINT ( 'NONE',  ( 25.71750000000000469, -7.999999999999991118, 5.900000000000000355 ) ) ;
#388 = DIRECTION ( 'NONE',  ( 1.000000000000000000, 0.000000000000000000, 0.000000000000000000 ) ) ;
#389 = COORDINATED_UNIVERSAL_TIME_OFFSET ( 8, 0, .BEHIND. ) ;
#390 = DIRECTION ( 'NONE',  ( 1.000000000000000000, 0.000000000000000000, 0.000000000000000000 ) ) ;
#391 = AXIS2_PLACEMENT_3D ( 'NONE', #47, #111, #282 ) ;
#392 = VECTOR ( 'NONE', #364, 1000.000000000000000 ) ;
#393 = FACE_OUTER_BOUND ( 'NONE', #251, .T. ) ;
#394 = DATE_AND_TIME ( #133, #42 ) ;
#395 = DIRECTION ( 'NONE',  ( -1.000000000000000000, -3.035386659626959625E-16, 0.000000000000000000 ) ) ;
#396 = CALENDAR_DATE ( 2026, 12, 9 ) ;
#397 = ORIENTED_EDGE ( 'NONE', *, *, #177, .T. ) ;
#398 = DIRECTION ( 'NONE',  ( 0.000000000000000000, 0.000000000000000000, 1.000000000000000000 ) ) ;
#399 = EDGE_CURVE ( 'NONE', #285, #152, #374, .T. ) ;
#400 = ORIENTED_EDGE ( 'NONE', *, *, #167, .T. ) ;
#401 = CARTESIAN_POINT ( 'NONE',  ( 25.71749999999999758, 1.060835625749655086E-14, 0.000000000000000000 ) ) ;
#402 = ORIENTED_EDGE ( 'NONE', *, *, #128, .T. ) ;
#403 = DIRECTION ( 'NONE',  ( -1.000000000000000000, -3.035386659626959625E-16, 0.000000000000000000 ) ) ;
#404 = CARTESIAN_POINT ( 'NONE',  ( 25.71749999999999758, 1.060835625749655086E-14, 0.000000000000000000 ) ) ;
#405 = CARTESIAN_POINT ( 'NONE',  ( -25.71749999999999758, -8.000000000000007105, 5.900000000000000355 ) ) ;
#406 = ORIENTED_EDGE ( 'NONE', *, *, #294, .F. ) ;
#407 = CARTESIAN_POINT ( 'NONE',  ( 28.86749999999999616, 1.099411999922796753E-14, 5.900000000000000355 ) ) ;
#408 = CARTESIAN_POINT ( 'NONE',  ( -25.71749999999999758, -5.139070771039472512E-15, 0.000000000000000000 ) ) ;
#409 = VERTEX_POINT ( 'NONE', #415 ) ;
#410 = FACE_OUTER_BOUND ( 'NONE', #323, .T. ) ;
#411 = AXIS2_PLACEMENT_3D ( 'NONE', #89, #23, #259 ) ;
#412 = CIRCLE ( 'NONE', #229, 8.000000000000000000 ) ;
#413 = VECTOR ( 'NONE', #271, 1000.000000000000000 ) ;
#414 = CC_DESIGN_APPROVAL ( #224, ( #288 ) ) ;
#415 = CARTESIAN_POINT ( 'NONE',  ( 22.56749999999999901, 1.060835625749655086E-14, 0.000000000000000000 ) ) ;
#416 = FACE_OUTER_BOUND ( 'NONE', #204, .T. ) ;
#417 = EDGE_CURVE ( 'NONE', #357, #106, #123, .T. ) ;
#418 = EDGE_LOOP ( 'NONE', ( #187, #180 ) ) ;
#419 = APPROVAL_ROLE ( '' ) ;
#420 = EDGE_LOOP ( 'NONE', ( #254, #207, #257, #279, #239 ) ) ;
#421 = CIRCLE ( 'NONE', #93, 3.149999999999999911 ) ;
#422 = CARTESIAN_POINT ( 'NONE',  ( -25.71749999999999758, -5.139070771039472512E-15, 5.900000000000000355 ) ) ;
#423 = PRODUCT_DEFINITION ( 'UNKNOWN', '', #286, #245 ) ;
#424 = LINE ( 'NONE', #127, #96 ) ;
ENDSEC;
END-ISO-10303-21;
