ISO-10303-21;
HEADER;
FILE_DESCRIPTION (( 'STEP AP203' ),
    '1' );
FILE_NAME ('04_05_BL_001_Default_sldprt.STEP',
    '2026-09-12T21:35:04',
    ( '' ),
    ( '' ),
    'SwSTEP 2.0',
    'SolidWorks 2025',
    '' );
FILE_SCHEMA (( 'CONFIG_CONTROL_DESIGN' ));
ENDSEC;

DATA;
#1 = ORIENTED_EDGE ( 'NONE', *, *, #51, .F. ) ;
#2 = CARTESIAN_POINT ( 'NONE',  ( 20.22500000000000142, 8.597020530014418129E-15, 5.900000000000000355 ) ) ;
#3 = EDGE_CURVE ( 'NONE', #43, #330, #380, .T. ) ;
#4 = CARTESIAN_POINT ( 'NONE',  ( -23.37500000000000000, -5.716038935020270455E-15, 5.900000000000000355 ) ) ;
#5 = ORIENTED_EDGE ( 'NONE', *, *, #241, .F. ) ;
#6 = EDGE_LOOP ( 'NONE', ( #12, #129, #234, #194 ) ) ;
#7 = DATE_AND_TIME ( #128, #282 ) ;
#8 = ORIENTED_EDGE ( 'NONE', *, *, #110, .T. ) ;
#9 = ORIENTED_EDGE ( 'NONE', *, *, #374, .F. ) ;
#10 = ORIENTED_EDGE ( 'NONE', *, *, #3, .F. ) ;
#11 = PERSON_AND_ORGANIZATION ( #91, #80 ) ;
#12 = ORIENTED_EDGE ( 'NONE', *, *, #392, .T. ) ;
#13 = APPROVAL_ROLE ( '' ) ;
#14 = PLANE ( 'NONE',  #299 ) ;
#15 = AXIS2_PLACEMENT_3D ( 'NONE', #131, #167, #342 ) ;
#16 = ADVANCED_FACE ( 'NONE', ( #93 ), #14, .F. ) ;
#17 = EDGE_LOOP ( 'NONE', ( #405, #94, #40, #263, #400 ) ) ;
#18 = DIRECTION ( 'NONE',  ( 1.000000000000000000, 0.000000000000000000, 0.000000000000000000 ) ) ;
#19 = ADVANCED_FACE ( 'NONE', ( #271 ), #205, .F. ) ;
#20 = DIRECTION ( 'NONE',  ( 2.968510761029830354E-16, -1.000000000000000000, 0.000000000000000000 ) ) ;
#21 = CC_DESIGN_APPROVAL ( #46, ( #86 ) ) ;
#22 = PLANE ( 'NONE',  #227 ) ;
#23 = DIRECTION ( 'NONE',  ( -1.000000000000000000, 0.000000000000000000, 0.000000000000000000 ) ) ;
#24 = LINE ( 'NONE', #417, #120 ) ;
#25 = AXIS2_PLACEMENT_3D ( 'NONE', #75, #317, #251 ) ;
#26 = CARTESIAN_POINT ( 'NONE',  ( -31.37500000000000000, -5.716038935020270455E-15, 0.000000000000000000 ) ) ;
#27 = DIRECTION ( 'NONE',  ( 0.000000000000000000, 0.000000000000000000, 1.000000000000000000 ) ) ;
#28 = DIRECTION ( 'NONE',  ( 1.000000000000000000, 2.968510761029829861E-16, -0.000000000000000000 ) ) ;
#29 = ADVANCED_FACE ( 'NONE', ( #376 ), #346, .F. ) ;
#30 =( GEOMETRIC_REPRESENTATION_CONTEXT ( 3 ) GLOBAL_UNCERTAINTY_ASSIGNED_CONTEXT ( ( #124 ) ) GLOBAL_UNIT_ASSIGNED_CONTEXT ( ( #423, #269, #197 ) ) REPRESENTATION_CONTEXT ( 'NONE', 'WORKASPACE' ) );
#31 = CARTESIAN_POINT ( 'NONE',  ( 26.52499999999999858, 8.982784271745833215E-15, 0.000000000000000000 ) ) ;
#32 = ORIENTED_EDGE ( 'NONE', *, *, #386, .F. ) ;
#33 = CARTESIAN_POINT ( 'NONE',  ( 23.37500000000000000, 8.597020530014418129E-15, 5.900000000000000355 ) ) ;
#34 = ORIENTED_EDGE ( 'NONE', *, *, #291, .F. ) ;
#35 = MECHANICAL_CONTEXT ( 'NONE', #361, 'mechanical' ) ;
#36 = CARTESIAN_POINT ( 'NONE',  ( 23.37500000000000000, 8.597020530014418129E-15, 5.900000000000000355 ) ) ;
#37 = VERTEX_POINT ( 'NONE', #343 ) ;
#38 = EDGE_CURVE ( 'NONE', #404, #277, #74, .T. ) ;
#39 = PERSON_AND_ORGANIZATION ( #91, #80 ) ;
#40 = ORIENTED_EDGE ( 'NONE', *, *, #265, .F. ) ;
#41 = EDGE_LOOP ( 'NONE', ( #34, #364, #191, #1 ) ) ;
#42 = PERSON_AND_ORGANIZATION ( #91, #80 ) ;
#43 = VERTEX_POINT ( 'NONE', #176 ) ;
#44 = APPROVAL_STATUS ( 'not_yet_approved' ) ;
#45 = CARTESIAN_POINT ( 'NONE',  ( -23.37500000000000000, -5.716038935020270455E-15, 5.900000000000000355 ) ) ;
#46 = APPROVAL ( #72, 'UNSPECIFIED' ) ;
#47 = CARTESIAN_POINT ( 'NONE',  ( -23.37500000000000000, -5.716038935020270455E-15, 5.900000000000000355 ) ) ;
#48 = CIRCLE ( 'NONE', #281, 3.149999999999999911 ) ;
#49 = LOCAL_TIME ( 14, 35, 4.000000000000000000, #141 ) ;
#50 = DIRECTION ( 'NONE',  ( 0.000000000000000000, 0.000000000000000000, 1.000000000000000000 ) ) ;
#51 = EDGE_CURVE ( 'NONE', #373, #335, #220, .T. ) ;
#52 = DIRECTION ( 'NONE',  ( 1.000000000000000000, 0.000000000000000000, 0.000000000000000000 ) ) ;
#53 = CARTESIAN_POINT ( 'NONE',  ( -20.22500000000000142, -5.330275193288854581E-15, 0.000000000000000000 ) ) ;
#54 = VECTOR ( 'NONE', #57, 1000.000000000000000 ) ;
#55 = FACE_BOUND ( 'NONE', #334, .T. ) ;
#56 = FACE_OUTER_BOUND ( 'NONE', #135, .T. ) ;
#57 = DIRECTION ( 'NONE',  ( -0.000000000000000000, -0.000000000000000000, -1.000000000000000000 ) ) ;
#58 = CARTESIAN_POINT ( 'NONE',  ( 23.37500000000000000, 8.597020530014418129E-15, 0.000000000000000000 ) ) ;
#59 = EDGE_CURVE ( 'NONE', #89, #259, #48, .T. ) ;
#60 = FACE_BOUND ( 'NONE', #142, .T. ) ;
#61 = CARTESIAN_POINT ( 'NONE',  ( -23.37500000000000355, 7.999999999999992895, 5.900000000000000355 ) ) ;
#62 = ORIENTED_EDGE ( 'NONE', *, *, #341, .F. ) ;
#63 = AXIS2_PLACEMENT_3D ( 'NONE', #348, #266, #67 ) ;
#64 = ORIENTED_EDGE ( 'NONE', *, *, #3, .T. ) ;
#65 = ORIENTED_EDGE ( 'NONE', *, *, #154, .F. ) ;
#66 = COORDINATED_UNIVERSAL_TIME_OFFSET ( 8, 0, .BEHIND. ) ;
#67 = DIRECTION ( 'NONE',  ( 1.000000000000000000, 0.000000000000000000, 0.000000000000000000 ) ) ;
#68 = ORIENTED_EDGE ( 'NONE', *, *, #38, .T. ) ;
#69 = AXIS2_PLACEMENT_3D ( 'NONE', #112, #81, #383 ) ;
#70 = ORIENTED_EDGE ( 'NONE', *, *, #323, .T. ) ;
#71 = VERTEX_POINT ( 'NONE', #310 ) ;
#72 = APPROVAL_STATUS ( 'not_yet_approved' ) ;
#73 = DIRECTION ( 'NONE',  ( -2.968510761029829861E-16, 1.000000000000000000, 0.000000000000000000 ) ) ;
#74 = LINE ( 'NONE', #305, #213 ) ;
#75 = CARTESIAN_POINT ( 'NONE',  ( 23.37500000000000000, 8.597020530014418129E-15, 5.900000000000000355 ) ) ;
#76 = AXIS2_PLACEMENT_3D ( 'NONE', #290, #125, #253 ) ;
#77 = DIRECTION ( 'NONE',  ( -0.000000000000000000, -0.000000000000000000, -1.000000000000000000 ) ) ;
#78 = CARTESIAN_POINT ( 'NONE',  ( -20.22500000000000142, -5.330275193288854581E-15, 5.900000000000000355 ) ) ;
#79 = CARTESIAN_POINT ( 'NONE',  ( -23.37500000000000000, -5.716038935020270455E-15, 5.900000000000000355 ) ) ;
#80 = ORGANIZATION ( 'UNSPECIFIED', 'UNSPECIFIED', '' ) ;
#81 = DIRECTION ( 'NONE',  ( -0.000000000000000000, -0.000000000000000000, -1.000000000000000000 ) ) ;
#82 = CARTESIAN_POINT ( 'NONE',  ( -23.37500000000000355, 7.999999999999992895, 5.900000000000000355 ) ) ;
#83 = CARTESIAN_POINT ( 'NONE',  ( 26.52499999999999858, 8.982784271745833215E-15, 5.900000000000000355 ) ) ;
#84 = CIRCLE ( 'NONE', #25, 3.149999999999999911 ) ;
#85 = CIRCLE ( 'NONE', #338, 8.000000000000000000 ) ;
#86 = PRODUCT_DEFINITION_FORMATION_WITH_SPECIFIED_SOURCE ( 'ANY', '', #325, .NOT_KNOWN. ) ;
#87 = CARTESIAN_POINT ( 'NONE',  ( 23.37500000000000711, -7.999999999999989342, 0.000000000000000000 ) ) ;
#88 = CARTESIAN_POINT ( 'NONE',  ( 23.37499999999999645, 8.000000000000007105, 0.000000000000000000 ) ) ;
#89 = VERTEX_POINT ( 'NONE', #278 ) ;
#90 = LINE ( 'NONE', #83, #54 ) ;
#91 = PERSON ( 'UNSPECIFIED', 'UNSPECIFIED', 'UNSPECIFIED', ('UNSPECIFIED'), ('UNSPECIFIED'), ('UNSPECIFIED') ) ;
#92 = AXIS2_PLACEMENT_3D ( 'NONE', #187, #27, #292 ) ;
#93 = FACE_OUTER_BOUND ( 'NONE', #6, .T. ) ;
#94 = ORIENTED_EDGE ( 'NONE', *, *, #392, .F. ) ;
#95 = APPLICATION_PROTOCOL_DEFINITION ( 'international standard', 'config_control_design', 1994, #361 ) ;
#96 = CARTESIAN_POINT ( 'NONE',  ( 23.37499999999999645, 8.000000000000007105, 0.000000000000000000 ) ) ;
#97 = ORIENTED_EDGE ( 'NONE', *, *, #180, .F. ) ;
#98 = APPROVAL_DATE_TIME ( #161, #46 ) ;
#99 = DIRECTION ( 'NONE',  ( -1.000000000000000000, 0.000000000000000000, 0.000000000000000000 ) ) ;
#100 = VERTEX_POINT ( 'NONE', #96 ) ;
#101 = EDGE_CURVE ( 'NONE', #267, #261, #238, .T. ) ;
#102 = AXIS2_PLACEMENT_3D ( 'NONE', #182, #147, #23 ) ;
#103 = DATE_AND_TIME ( #106, #395 ) ;
#104 = VECTOR ( 'NONE', #28, 1000.000000000000000 ) ;
#105 = CARTESIAN_POINT ( 'NONE',  ( 23.37499999999999645, 8.000000000000007105, 5.900000000000000355 ) ) ;
#106 = CALENDAR_DATE ( 2026, 12, 9 ) ;
#107 = EDGE_LOOP ( 'NONE', ( #369, #9, #273, #225 ) ) ;
#108 = CYLINDRICAL_SURFACE ( 'NONE', #102, 3.149999999999999911 ) ;
#109 = DIRECTION ( 'NONE',  ( 1.000000000000000000, 0.000000000000000000, 0.000000000000000000 ) ) ;
#110 = EDGE_CURVE ( 'NONE', #277, #43, #85, .T. ) ;
#111 = CIRCLE ( 'NONE', #368, 7.999999999999998224 ) ;
#112 = CARTESIAN_POINT ( 'NONE',  ( -23.37500000000000000, -5.716038935020270455E-15, 5.900000000000000355 ) ) ;
#113 = DIRECTION ( 'NONE',  ( 0.000000000000000000, 0.000000000000000000, 1.000000000000000000 ) ) ;
#114 = CC_DESIGN_DATE_AND_TIME_ASSIGNMENT ( #7, #375, ( #355 ) ) ;
#115 = FACE_OUTER_BOUND ( 'NONE', #126, .T. ) ;
#116 = AXIS2_PLACEMENT_3D ( 'NONE', #79, #183, #178 ) ;
#117 = CARTESIAN_POINT ( 'NONE',  ( 23.37499999999999645, 8.000000000000007105, 5.900000000000000355 ) ) ;
#118 = ADVANCED_FACE ( 'NONE', ( #150 ), #108, .F. ) ;
#119 = LINE ( 'NONE', #2, #157 ) ;
#120 = VECTOR ( 'NONE', #385, 1000.000000000000000 ) ;
#121 = CC_DESIGN_APPROVAL ( #274, ( #355 ) ) ;
#122 = LINE ( 'NONE', #117, #388 ) ;
#123 = EDGE_LOOP ( 'NONE', ( #139, #62, #10, #303 ) ) ;
#124 = UNCERTAINTY_MEASURE_WITH_UNIT (LENGTH_MEASURE( 1.000000000000000082E-05 ), #423, 'distance_accuracy_value', 'NONE');
#125 = DIRECTION ( 'NONE',  ( -0.000000000000000000, -0.000000000000000000, -1.000000000000000000 ) ) ;
#126 = EDGE_LOOP ( 'NONE', ( #410, #172, #202, #203 ) ) ;
#127 = EDGE_CURVE ( 'NONE', #259, #267, #247, .T. ) ;
#128 = CALENDAR_DATE ( 2026, 12, 9 ) ;
#129 = ORIENTED_EDGE ( 'NONE', *, *, #286, .F. ) ;
#130 = APPROVAL_PERSON_ORGANIZATION ( #345, #320, #13 ) ;
#131 = CARTESIAN_POINT ( 'NONE',  ( 0.000000000000000000, 0.000000000000000000, 0.000000000000000000 ) ) ;
#132 = VERTEX_POINT ( 'NONE', #387 ) ;
#133 = EDGE_LOOP ( 'NONE', ( #97, #5, #162, #231 ) ) ;
#134 = COORDINATED_UNIVERSAL_TIME_OFFSET ( 8, 0, .BEHIND. ) ;
#135 = EDGE_LOOP ( 'NONE', ( #8, #64, #164, #309, #68 ) ) ;
#136 = ADVANCED_FACE ( 'NONE', ( #55, #56, #149 ), #22, .T. ) ;
#137 = ORIENTED_EDGE ( 'NONE', *, *, #177, .T. ) ;
#138 = PERSON_AND_ORGANIZATION_ROLE ( 'design_supplier' ) ;
#139 = ORIENTED_EDGE ( 'NONE', *, *, #418, .T. ) ;
#140 = VECTOR ( 'NONE', #77, 1000.000000000000000 ) ;
#141 = COORDINATED_UNIVERSAL_TIME_OFFSET ( 8, 0, .BEHIND. ) ;
#142 = EDGE_LOOP ( 'NONE', ( #379, #408 ) ) ;
#143 = DIRECTION ( 'NONE',  ( 0.000000000000000000, 0.000000000000000000, 1.000000000000000000 ) ) ;
#144 = CARTESIAN_POINT ( 'NONE',  ( -26.52499999999999858, -5.716038935020270455E-15, 0.000000000000000000 ) ) ;
#145 = CARTESIAN_POINT ( 'NONE',  ( 23.37500000000000711, -7.999999999999989342, 0.000000000000000000 ) ) ;
#146 = CC_DESIGN_APPROVAL ( #320, ( #403 ) ) ;
#147 = DIRECTION ( 'NONE',  ( -0.000000000000000000, -0.000000000000000000, -1.000000000000000000 ) ) ;
#148 = CC_DESIGN_PERSON_AND_ORGANIZATION_ASSIGNMENT ( #39, #304, ( #325 ) ) ;
#149 = FACE_BOUND ( 'NONE', #230, .T. ) ;
#150 = FACE_OUTER_BOUND ( 'NONE', #300, .T. ) ;
#151 = VECTOR ( 'NONE', #314, 1000.000000000000000 ) ;
#152 = CC_DESIGN_SECURITY_CLASSIFICATION ( #403, ( #86 ) ) ;
#153 = CYLINDRICAL_SURFACE ( 'NONE', #378, 7.999999999999998224 ) ;
#154 = EDGE_CURVE ( 'NONE', #259, #89, #337, .T. ) ;
#155 = DIRECTION ( 'NONE',  ( 1.000000000000000000, 0.000000000000000000, 0.000000000000000000 ) ) ;
#156 = DIRECTION ( 'NONE',  ( -0.000000000000000000, -0.000000000000000000, -1.000000000000000000 ) ) ;
#157 = VECTOR ( 'NONE', #156, 1000.000000000000000 ) ;
#158 = LINE ( 'NONE', #88, #275 ) ;
#159 = CC_DESIGN_PERSON_AND_ORGANIZATION_ASSIGNMENT ( #235, #138, ( #86 ) ) ;
#160 = ORIENTED_EDGE ( 'NONE', *, *, #257, .F. ) ;
#161 = DATE_AND_TIME ( #409, #340 ) ;
#162 = ORIENTED_EDGE ( 'NONE', *, *, #341, .T. ) ;
#163 = DIRECTION ( 'NONE',  ( 1.000000000000000000, 0.000000000000000000, 0.000000000000000000 ) ) ;
#164 = ORIENTED_EDGE ( 'NONE', *, *, #241, .T. ) ;
#165 = CIRCLE ( 'NONE', #264, 8.000000000000000000 ) ;
#166 = ADVANCED_FACE ( 'NONE', ( #352 ), #285, .T. ) ;
#167 = DIRECTION ( 'NONE',  ( 0.000000000000000000, 0.000000000000000000, 1.000000000000000000 ) ) ;
#168 = ORIENTED_EDGE ( 'NONE', *, *, #59, .F. ) ;
#169 = ORIENTED_EDGE ( 'NONE', *, *, #177, .F. ) ;
#170 = DATE_TIME_ROLE ( 'classification_date' ) ;
#171 = VERTEX_POINT ( 'NONE', #420 ) ;
#172 = ORIENTED_EDGE ( 'NONE', *, *, #180, .T. ) ;
#173 = PERSON_AND_ORGANIZATION_ROLE ( 'creator' ) ;
#174 = ORIENTED_EDGE ( 'NONE', *, *, #154, .T. ) ;
#175 = AXIS2_PLACEMENT_3D ( 'NONE', #419, #245, #52 ) ;
#176 = CARTESIAN_POINT ( 'NONE',  ( 23.37499999999999645, 8.000000000000007105, 5.900000000000000355 ) ) ;
#177 = EDGE_CURVE ( 'NONE', #339, #132, #367, .T. ) ;
#178 = DIRECTION ( 'NONE',  ( -1.000000000000000000, 0.000000000000000000, 0.000000000000000000 ) ) ;
#179 = LINE ( 'NONE', #250, #151 ) ;
#180 = EDGE_CURVE ( 'NONE', #71, #297, #179, .T. ) ;
#181 = AXIS2_PLACEMENT_3D ( 'NONE', #36, #407, #99 ) ;
#182 = CARTESIAN_POINT ( 'NONE',  ( -23.37500000000000000, -5.716038935020270455E-15, 5.900000000000000355 ) ) ;
#183 = DIRECTION ( 'NONE',  ( -0.000000000000000000, -0.000000000000000000, -1.000000000000000000 ) ) ;
#184 = DIRECTION ( 'NONE',  ( 1.000000000000000000, 2.968510761029830354E-16, 0.000000000000000000 ) ) ;
#185 = FACE_OUTER_BOUND ( 'NONE', #295, .T. ) ;
#186 = DIRECTION ( 'NONE',  ( 1.000000000000000000, 0.000000000000000000, -0.000000000000000000 ) ) ;
#187 = CARTESIAN_POINT ( 'NONE',  ( -23.37500000000000000, -5.716038935020270455E-15, 0.000000000000000000 ) ) ;
#188 = DIRECTION ( 'NONE',  ( 0.000000000000000000, 0.000000000000000000, 1.000000000000000000 ) ) ;
#189 = CC_DESIGN_PERSON_AND_ORGANIZATION_ASSIGNMENT ( #239, #173, ( #355 ) ) ;
#190 = AXIS2_PLACEMENT_3D ( 'NONE', #356, #249, #109 ) ;
#191 = ORIENTED_EDGE ( 'NONE', *, *, #386, .T. ) ;
#192 = AXIS2_PLACEMENT_3D ( 'NONE', #4, #188, #331 ) ;
#193 = DIRECTION ( 'NONE',  ( -1.000000000000000000, 0.000000000000000000, 0.000000000000000000 ) ) ;
#194 = ORIENTED_EDGE ( 'NONE', *, *, #248, .T. ) ;
#195 = CARTESIAN_POINT ( 'NONE',  ( 23.37500000000000711, -7.999999999999989342, 5.900000000000000355 ) ) ;
#196 = VERTEX_POINT ( 'NONE', #145 ) ;
#197 =( NAMED_UNIT ( * ) SI_UNIT ( $, .STERADIAN. ) SOLID_ANGLE_UNIT ( ) );
#198 = DIRECTION ( 'NONE',  ( -1.000000000000000000, -2.968510761029830354E-16, 0.000000000000000000 ) ) ;
#199 = ORIENTED_EDGE ( 'NONE', *, *, #101, .F. ) ;
#200 = CIRCLE ( 'NONE', #192, 7.999999999999998224 ) ;
#201 = SECURITY_CLASSIFICATION_LEVEL ( 'unclassified' ) ;
#202 = ORIENTED_EDGE ( 'NONE', *, *, #265, .T. ) ;
#203 = ORIENTED_EDGE ( 'NONE', *, *, #248, .F. ) ;
#204 = PERSON_AND_ORGANIZATION_ROLE ( 'creator' ) ;
#205 = CYLINDRICAL_SURFACE ( 'NONE', #181, 3.149999999999999911 ) ;
#206 = DIRECTION ( 'NONE',  ( 1.000000000000000000, 2.968510761029829861E-16, -0.000000000000000000 ) ) ;
#207 = EDGE_CURVE ( 'NONE', #132, #339, #84, .T. ) ;
#208 = AXIS2_PLACEMENT_3D ( 'NONE', #350, #50, #18 ) ;
#209 = DIRECTION ( 'NONE',  ( 1.000000000000000000, 0.000000000000000000, 0.000000000000000000 ) ) ;
#210 = CARTESIAN_POINT ( 'NONE',  ( 23.37500000000000000, 8.597020530014418129E-15, 5.900000000000000355 ) ) ;
#211 = DIRECTION ( 'NONE',  ( 0.000000000000000000, 0.000000000000000000, 1.000000000000000000 ) ) ;
#212 = CC_DESIGN_PERSON_AND_ORGANIZATION_ASSIGNMENT ( #11, #262, ( #403 ) ) ;
#213 = VECTOR ( 'NONE', #206, 1000.000000000000000 ) ;
#214 = DIRECTION ( 'NONE',  ( 0.000000000000000000, 0.000000000000000000, 1.000000000000000000 ) ) ;
#215 = VECTOR ( 'NONE', #327, 1000.000000000000000 ) ;
#216 = FACE_OUTER_BOUND ( 'NONE', #123, .T. ) ;
#217 = ADVANCED_FACE ( 'NONE', ( #115 ), #389, .T. ) ;
#218 = ORIENTED_EDGE ( 'NONE', *, *, #306, .F. ) ;
#219 = FACE_OUTER_BOUND ( 'NONE', #17, .T. ) ;
#220 = CIRCLE ( 'NONE', #63, 3.149999999999999911 ) ;
#221 = MANIFOLD_SOLID_BREP ( 'Boss-Extrude1', #354 ) ;
#222 = DIRECTION ( 'NONE',  ( -0.000000000000000000, -0.000000000000000000, -1.000000000000000000 ) ) ;
#223 = ADVANCED_FACE ( 'NONE', ( #216 ), #357, .F. ) ;
#224 = DIRECTION ( 'NONE',  ( -1.000000000000000000, -2.968510761029830354E-16, 0.000000000000000000 ) ) ;
#225 = ORIENTED_EDGE ( 'NONE', *, *, #286, .T. ) ;
#226 = PLANE ( 'NONE',  #411 ) ;
#227 = AXIS2_PLACEMENT_3D ( 'NONE', #210, #214, #284 ) ;
#228 = ORIENTED_EDGE ( 'NONE', *, *, #101, .T. ) ;
#229 = DATE_AND_TIME ( #302, #329 ) ;
#230 = EDGE_LOOP ( 'NONE', ( #168, #65 ) ) ;
#231 = ORIENTED_EDGE ( 'NONE', *, *, #422, .T. ) ;
#232 = COORDINATED_UNIVERSAL_TIME_OFFSET ( 8, 0, .BEHIND. ) ;
#233 = CARTESIAN_POINT ( 'NONE',  ( -23.37500000000000000, -5.716038935020270455E-15, 0.000000000000000000 ) ) ;
#234 = ORIENTED_EDGE ( 'NONE', *, *, #38, .F. ) ;
#235 = PERSON_AND_ORGANIZATION ( #91, #80 ) ;
#236 = ORIENTED_EDGE ( 'NONE', *, *, #207, .F. ) ;
#237 = ORIENTED_EDGE ( 'NONE', *, *, #127, .F. ) ;
#238 = CIRCLE ( 'NONE', #328, 3.149999999999999911 ) ;
#239 = PERSON_AND_ORGANIZATION ( #91, #80 ) ;
#240 = DIRECTION ( 'NONE',  ( -1.000000000000000000, -2.968510761029829861E-16, 0.000000000000000000 ) ) ;
#241 = EDGE_CURVE ( 'NONE', #330, #71, #256, .T. ) ;
#242 = DATE_AND_TIME ( #412, #49 ) ;
#243 = DIRECTION ( 'NONE',  ( -1.000000000000000000, 0.000000000000000000, 0.000000000000000000 ) ) ;
#244 = PRODUCT_RELATED_PRODUCT_CATEGORY ( 'detail', '', ( #325 ) ) ;
#245 = DIRECTION ( 'NONE',  ( 0.000000000000000000, 0.000000000000000000, 1.000000000000000000 ) ) ;
#246 = VECTOR ( 'NONE', #258, 1000.000000000000000 ) ;
#247 = LINE ( 'NONE', #415, #140 ) ;
#248 = EDGE_CURVE ( 'NONE', #404, #171, #24, .T. ) ;
#249 = DIRECTION ( 'NONE',  ( 0.000000000000000000, 0.000000000000000000, 1.000000000000000000 ) ) ;
#250 = CARTESIAN_POINT ( 'NONE',  ( -31.37500000000000000, -5.716038935020270455E-15, 5.900000000000000355 ) ) ;
#251 = DIRECTION ( 'NONE',  ( 1.000000000000000000, 0.000000000000000000, 0.000000000000000000 ) ) ;
#252 = APPROVAL_PERSON_ORGANIZATION ( #296, #274, #276 ) ;
#253 = DIRECTION ( 'NONE',  ( -1.000000000000000000, 0.000000000000000000, 0.000000000000000000 ) ) ;
#254 = FACE_BOUND ( 'NONE', #344, .T. ) ;
#255 = DIRECTION ( 'NONE',  ( -0.000000000000000000, -0.000000000000000000, -1.000000000000000000 ) ) ;
#256 = CIRCLE ( 'NONE', #315, 7.999999999999998224 ) ;
#257 = EDGE_CURVE ( 'NONE', #335, #373, #377, .T. ) ;
#258 = DIRECTION ( 'NONE',  ( -0.000000000000000000, -0.000000000000000000, -1.000000000000000000 ) ) ;
#259 = VERTEX_POINT ( 'NONE', #78 ) ;
#260 = DIRECTION ( 'NONE',  ( 0.000000000000000000, 0.000000000000000000, 1.000000000000000000 ) ) ;
#261 = VERTEX_POINT ( 'NONE', #144 ) ;
#262 = PERSON_AND_ORGANIZATION_ROLE ( 'classification_officer' ) ;
#263 = ORIENTED_EDGE ( 'NONE', *, *, #422, .F. ) ;
#264 = AXIS2_PLACEMENT_3D ( 'NONE', #287, #390, #155 ) ;
#265 = EDGE_CURVE ( 'NONE', #297, #171, #111, .T. ) ;
#266 = DIRECTION ( 'NONE',  ( 0.000000000000000000, 0.000000000000000000, 1.000000000000000000 ) ) ;
#267 = VERTEX_POINT ( 'NONE', #53 ) ;
#268 = DESIGN_CONTEXT ( 'detailed design', #313, 'design' ) ;
#269 =( NAMED_UNIT ( * ) PLANE_ANGLE_UNIT ( ) SI_UNIT ( $, .RADIAN. ) );
#270 = ADVANCED_BREP_SHAPE_REPRESENTATION ( '04_05_BL_001_Default_sldprt', ( #221, #15 ), #30 ) ;
#271 = FACE_OUTER_BOUND ( 'NONE', #41, .T. ) ;
#272 = ORIENTED_EDGE ( 'NONE', *, *, #306, .T. ) ;
#273 = ORIENTED_EDGE ( 'NONE', *, *, #110, .F. ) ;
#274 = APPROVAL ( #333, 'UNSPECIFIED' ) ;
#275 = VECTOR ( 'NONE', #224, 1000.000000000000000 ) ;
#276 = APPROVAL_ROLE ( '' ) ;
#277 = VERTEX_POINT ( 'NONE', #288 ) ;
#278 = CARTESIAN_POINT ( 'NONE',  ( -26.52499999999999858, -5.716038935020270455E-15, 5.900000000000000355 ) ) ;
#279 = ADVANCED_FACE ( 'NONE', ( #394 ), #153, .T. ) ;
#280 = CARTESIAN_POINT ( 'NONE',  ( -23.37500000000000000, -5.716038935020270455E-15, 0.000000000000000000 ) ) ;
#281 = AXIS2_PLACEMENT_3D ( 'NONE', #47, #143, #163 ) ;
#282 = LOCAL_TIME ( 14, 35, 4.000000000000000000, #134 ) ;
#283 = DIRECTION ( 'NONE',  ( 1.000000000000000000, 0.000000000000000000, 0.000000000000000000 ) ) ;
#284 = DIRECTION ( 'NONE',  ( 1.000000000000000000, 0.000000000000000000, -0.000000000000000000 ) ) ;
#285 = CYLINDRICAL_SURFACE ( 'NONE', #116, 8.000000000000000000 ) ;
#286 = EDGE_CURVE ( 'NONE', #277, #196, #358, .T. ) ;
#287 = CARTESIAN_POINT ( 'NONE',  ( 23.37500000000000000, 8.597020530014418129E-15, 0.000000000000000000 ) ) ;
#288 = CARTESIAN_POINT ( 'NONE',  ( 23.37500000000000711, -7.999999999999989342, 5.900000000000000355 ) ) ;
#289 = PRODUCT_DEFINITION_SHAPE ( 'NONE', 'NONE',  #355 ) ;
#290 = CARTESIAN_POINT ( 'NONE',  ( 23.37500000000000000, 8.597020530014418129E-15, 5.900000000000000355 ) ) ;
#291 = EDGE_CURVE ( 'NONE', #132, #373, #90, .T. ) ;
#292 = DIRECTION ( 'NONE',  ( 1.000000000000000000, 0.000000000000000000, 0.000000000000000000 ) ) ;
#293 = AXIS2_PLACEMENT_3D ( 'NONE', #45, #413, #243 ) ;
#294 = CARTESIAN_POINT ( 'NONE',  ( -23.37500000000000000, -5.716038935020270455E-15, 0.000000000000000000 ) ) ;
#295 = EDGE_LOOP ( 'NONE', ( #137, #370, #160, #32 ) ) ;
#296 = PERSON_AND_ORGANIZATION ( #91, #80 ) ;
#297 = VERTEX_POINT ( 'NONE', #26 ) ;
#298 = APPLICATION_PROTOCOL_DEFINITION ( 'international standard', 'config_control_design', 1994, #313 ) ;
#299 = AXIS2_PLACEMENT_3D ( 'NONE', #195, #73, #240 ) ;
#300 = EDGE_LOOP ( 'NONE', ( #237, #174, #272, #199 ) ) ;
#301 = AXIS2_PLACEMENT_3D ( 'NONE', #294, #260, #399 ) ;
#302 = CALENDAR_DATE ( 2026, 12, 9 ) ;
#303 = ORIENTED_EDGE ( 'NONE', *, *, #374, .T. ) ;
#304 = PERSON_AND_ORGANIZATION_ROLE ( 'design_owner' ) ;
#305 = CARTESIAN_POINT ( 'NONE',  ( 23.37500000000000711, -7.999999999999989342, 5.900000000000000355 ) ) ;
#306 = EDGE_CURVE ( 'NONE', #89, #261, #363, .T. ) ;
#307 = ORIENTED_EDGE ( 'NONE', *, *, #127, .T. ) ;
#308 = COORDINATED_UNIVERSAL_TIME_OFFSET ( 8, 0, .BEHIND. ) ;
#309 = ORIENTED_EDGE ( 'NONE', *, *, #351, .T. ) ;
#310 = CARTESIAN_POINT ( 'NONE',  ( -31.37500000000000000, -5.716038935020270455E-15, 5.900000000000000355 ) ) ;
#311 = CARTESIAN_POINT ( 'NONE',  ( -23.37500000000000000, -5.716038935020270455E-15, 5.900000000000000355 ) ) ;
#312 = ADVANCED_FACE ( 'NONE', ( #219, #60, #254 ), #226, .F. ) ;
#313 = APPLICATION_CONTEXT ( 'configuration controlled 3d designs of mechanical parts and assemblies' ) ;
#314 = DIRECTION ( 'NONE',  ( -0.000000000000000000, -0.000000000000000000, -1.000000000000000000 ) ) ;
#315 = AXIS2_PLACEMENT_3D ( 'NONE', #311, #319, #209 ) ;
#316 = CARTESIAN_POINT ( 'NONE',  ( 23.37500000000000000, 8.597020530014418129E-15, 5.900000000000000355 ) ) ;
#317 = DIRECTION ( 'NONE',  ( 0.000000000000000000, 0.000000000000000000, 1.000000000000000000 ) ) ;
#318 = ADVANCED_FACE ( 'NONE', ( #185 ), #324, .F. ) ;
#319 = DIRECTION ( 'NONE',  ( 0.000000000000000000, 0.000000000000000000, 1.000000000000000000 ) ) ;
#320 = APPROVAL ( #44, 'UNSPECIFIED' ) ;
#321 = LINE ( 'NONE', #87, #104 ) ;
#322 = CIRCLE ( 'NONE', #92, 3.149999999999999911 ) ;
#323 = EDGE_CURVE ( 'NONE', #261, #267, #322, .T. ) ;
#324 = CYLINDRICAL_SURFACE ( 'NONE', #76, 3.149999999999999911 ) ;
#325 = PRODUCT ( '04_05_BL_001_Default_sldprt', '04_05_BL_001_Default_sldprt', '', ( #35 ) ) ;
#326 = LINE ( 'NONE', #82, #215 ) ;
#327 = DIRECTION ( 'NONE',  ( -0.000000000000000000, -0.000000000000000000, -1.000000000000000000 ) ) ;
#328 = AXIS2_PLACEMENT_3D ( 'NONE', #233, #372, #283 ) ;
#329 = LOCAL_TIME ( 14, 35, 4.000000000000000000, #232 ) ;
#330 = VERTEX_POINT ( 'NONE', #61 ) ;
#331 = DIRECTION ( 'NONE',  ( 1.000000000000000000, 0.000000000000000000, 0.000000000000000000 ) ) ;
#332 = ORIENTED_EDGE ( 'NONE', *, *, #59, .T. ) ;
#333 = APPROVAL_STATUS ( 'not_yet_approved' ) ;
#334 = EDGE_LOOP ( 'NONE', ( #169, #236 ) ) ;
#335 = VERTEX_POINT ( 'NONE', #365 ) ;
#336 = CC_DESIGN_DATE_AND_TIME_ASSIGNMENT ( #103, #170, ( #403 ) ) ;
#337 = CIRCLE ( 'NONE', #190, 3.149999999999999911 ) ;
#338 = AXIS2_PLACEMENT_3D ( 'NONE', #316, #113, #384 ) ;
#339 = VERTEX_POINT ( 'NONE', #421 ) ;
#340 = LOCAL_TIME ( 14, 35, 4.000000000000000000, #308 ) ;
#341 = EDGE_CURVE ( 'NONE', #330, #37, #326, .T. ) ;
#342 = DIRECTION ( 'NONE',  ( 1.000000000000000000, 0.000000000000000000, 0.000000000000000000 ) ) ;
#343 = CARTESIAN_POINT ( 'NONE',  ( -23.37500000000000355, 7.999999999999992895, 0.000000000000000000 ) ) ;
#344 = EDGE_LOOP ( 'NONE', ( #70, #228 ) ) ;
#345 = PERSON_AND_ORGANIZATION ( #91, #80 ) ;
#346 = CYLINDRICAL_SURFACE ( 'NONE', #293, 3.149999999999999911 ) ;
#347 = APPROVAL_ROLE ( '' ) ;
#348 = CARTESIAN_POINT ( 'NONE',  ( 23.37500000000000000, 8.597020530014418129E-15, 0.000000000000000000 ) ) ;
#349 = APPROVAL_PERSON_ORGANIZATION ( #406, #46, #347 ) ;
#350 = CARTESIAN_POINT ( 'NONE',  ( 23.37500000000000000, 8.597020530014418129E-15, 0.000000000000000000 ) ) ;
#351 = EDGE_CURVE ( 'NONE', #71, #404, #200, .T. ) ;
#352 = FACE_OUTER_BOUND ( 'NONE', #133, .T. ) ;
#353 = DIRECTION ( 'NONE',  ( 1.000000000000000000, 0.000000000000000000, 0.000000000000000000 ) ) ;
#354 = CLOSED_SHELL ( 'NONE', ( #29, #318, #217, #136, #312, #279, #223, #166, #16, #19, #118 ) ) ;
#355 = PRODUCT_DEFINITION ( 'UNKNOWN', '', #86, #268 ) ;
#356 = CARTESIAN_POINT ( 'NONE',  ( -23.37500000000000000, -5.716038935020270455E-15, 5.900000000000000355 ) ) ;
#357 = PLANE ( 'NONE',  #402 ) ;
#358 = LINE ( 'NONE', #391, #246 ) ;
#359 = DIRECTION ( 'NONE',  ( 0.000000000000000000, 0.000000000000000000, 1.000000000000000000 ) ) ;
#360 = VECTOR ( 'NONE', #255, 1000.000000000000000 ) ;
#361 = APPLICATION_CONTEXT ( 'configuration controlled 3d designs of mechanical parts and assemblies' ) ;
#362 = CARTESIAN_POINT ( 'NONE',  ( -26.52499999999999858, -5.716038935020270455E-15, 5.900000000000000355 ) ) ;
#363 = LINE ( 'NONE', #362, #360 ) ;
#364 = ORIENTED_EDGE ( 'NONE', *, *, #207, .T. ) ;
#365 = CARTESIAN_POINT ( 'NONE',  ( 20.22500000000000142, 8.597020530014418129E-15, 0.000000000000000000 ) ) ;
#366 = EDGE_CURVE ( 'NONE', #196, #100, #165, .T. ) ;
#367 = CIRCLE ( 'NONE', #175, 3.149999999999999911 ) ;
#368 = AXIS2_PLACEMENT_3D ( 'NONE', #280, #211, #353 ) ;
#369 = ORIENTED_EDGE ( 'NONE', *, *, #366, .T. ) ;
#370 = ORIENTED_EDGE ( 'NONE', *, *, #291, .T. ) ;
#371 = APPROVAL_DATE_TIME ( #229, #274 ) ;
#372 = DIRECTION ( 'NONE',  ( 0.000000000000000000, 0.000000000000000000, 1.000000000000000000 ) ) ;
#373 = VERTEX_POINT ( 'NONE', #31 ) ;
#374 = EDGE_CURVE ( 'NONE', #43, #100, #122, .T. ) ;
#375 = DATE_TIME_ROLE ( 'creation_date' ) ;
#376 = FACE_OUTER_BOUND ( 'NONE', #382, .T. ) ;
#377 = CIRCLE ( 'NONE', #208, 3.149999999999999911 ) ;
#378 = AXIS2_PLACEMENT_3D ( 'NONE', #33, #222, #193 ) ;
#379 = ORIENTED_EDGE ( 'NONE', *, *, #257, .T. ) ;
#380 = LINE ( 'NONE', #105, #416 ) ;
#381 = APPROVAL_DATE_TIME ( #242, #320 ) ;
#382 = EDGE_LOOP ( 'NONE', ( #332, #307, #397, #218 ) ) ;
#383 = DIRECTION ( 'NONE',  ( -1.000000000000000000, 0.000000000000000000, 0.000000000000000000 ) ) ;
#384 = DIRECTION ( 'NONE',  ( 1.000000000000000000, 0.000000000000000000, 0.000000000000000000 ) ) ;
#385 = DIRECTION ( 'NONE',  ( -0.000000000000000000, -0.000000000000000000, -1.000000000000000000 ) ) ;
#386 = EDGE_CURVE ( 'NONE', #339, #335, #119, .T. ) ;
#387 = CARTESIAN_POINT ( 'NONE',  ( 26.52499999999999858, 8.982784271745833215E-15, 5.900000000000000355 ) ) ;
#388 = VECTOR ( 'NONE', #424, 1000.000000000000000 ) ;
#389 = CYLINDRICAL_SURFACE ( 'NONE', #69, 8.000000000000000000 ) ;
#390 = DIRECTION ( 'NONE',  ( 0.000000000000000000, 0.000000000000000000, 1.000000000000000000 ) ) ;
#391 = CARTESIAN_POINT ( 'NONE',  ( 23.37500000000000711, -7.999999999999989342, 5.900000000000000355 ) ) ;
#392 = EDGE_CURVE ( 'NONE', #171, #196, #321, .T. ) ;
#393 = CIRCLE ( 'NONE', #301, 7.999999999999998224 ) ;
#394 = FACE_OUTER_BOUND ( 'NONE', #107, .T. ) ;
#395 = LOCAL_TIME ( 14, 35, 4.000000000000000000, #66 ) ;
#396 = CARTESIAN_POINT ( 'NONE',  ( -23.37500000000000000, -8.000000000000003553, 5.900000000000000355 ) ) ;
#397 = ORIENTED_EDGE ( 'NONE', *, *, #323, .F. ) ;
#398 = CC_DESIGN_PERSON_AND_ORGANIZATION_ASSIGNMENT ( #42, #204, ( #86 ) ) ;
#399 = DIRECTION ( 'NONE',  ( 1.000000000000000000, 0.000000000000000000, 0.000000000000000000 ) ) ;
#400 = ORIENTED_EDGE ( 'NONE', *, *, #418, .F. ) ;
#401 = SHAPE_DEFINITION_REPRESENTATION ( #289, #270 ) ;
#402 = AXIS2_PLACEMENT_3D ( 'NONE', #414, #20, #184 ) ;
#403 = SECURITY_CLASSIFICATION ( '', '', #201 ) ;
#404 = VERTEX_POINT ( 'NONE', #396 ) ;
#405 = ORIENTED_EDGE ( 'NONE', *, *, #366, .F. ) ;
#406 = PERSON_AND_ORGANIZATION ( #91, #80 ) ;
#407 = DIRECTION ( 'NONE',  ( -0.000000000000000000, -0.000000000000000000, -1.000000000000000000 ) ) ;
#408 = ORIENTED_EDGE ( 'NONE', *, *, #51, .T. ) ;
#409 = CALENDAR_DATE ( 2026, 12, 9 ) ;
#410 = ORIENTED_EDGE ( 'NONE', *, *, #351, .F. ) ;
#411 = AXIS2_PLACEMENT_3D ( 'NONE', #58, #359, #186 ) ;
#412 = CALENDAR_DATE ( 2026, 12, 9 ) ;
#413 = DIRECTION ( 'NONE',  ( -0.000000000000000000, -0.000000000000000000, -1.000000000000000000 ) ) ;
#414 = CARTESIAN_POINT ( 'NONE',  ( 23.37499999999999645, 8.000000000000007105, 5.900000000000000355 ) ) ;
#415 = CARTESIAN_POINT ( 'NONE',  ( -20.22500000000000142, -5.330275193288854581E-15, 5.900000000000000355 ) ) ;
#416 = VECTOR ( 'NONE', #198, 1000.000000000000000 ) ;
#417 = CARTESIAN_POINT ( 'NONE',  ( -23.37500000000000000, -8.000000000000003553, 5.900000000000000355 ) ) ;
#418 = EDGE_CURVE ( 'NONE', #100, #37, #158, .T. ) ;
#419 = CARTESIAN_POINT ( 'NONE',  ( 23.37500000000000000, 8.597020530014418129E-15, 5.900000000000000355 ) ) ;
#420 = CARTESIAN_POINT ( 'NONE',  ( -23.37500000000000000, -8.000000000000003553, 0.000000000000000000 ) ) ;
#421 = CARTESIAN_POINT ( 'NONE',  ( 20.22500000000000142, 8.597020530014418129E-15, 5.900000000000000355 ) ) ;
#422 = EDGE_CURVE ( 'NONE', #37, #297, #393, .T. ) ;
#423 =( LENGTH_UNIT ( ) NAMED_UNIT ( * ) SI_UNIT ( .MILLI., .METRE. ) );
#424 = DIRECTION ( 'NONE',  ( -0.000000000000000000, -0.000000000000000000, -1.000000000000000000 ) ) ;
ENDSEC;
END-ISO-10303-21;
