ISO-10303-21;
HEADER;
FILE_DESCRIPTION (( 'STEP AP203' ),
    '1' );
FILE_NAME ('BPA1_Default_sldprt.STEP',
    '2026-09-12T21:35:20',
    ( '' ),
    ( '' ),
    'SwSTEP 2.0',
    'SolidWorks 2025',
    '' );
FILE_SCHEMA (( 'CONFIG_CONTROL_DESIGN' ));
ENDSEC;

DATA;
#1 = CARTESIAN_POINT ( 'NONE',  ( 509.0858621962727284, 3.786695166602578683E-15, 0.000000000000000000 ) ) ;
#2 = DIRECTION ( 'NONE',  ( 0.000000000000000000, -1.000000000000000000, 0.000000000000000000 ) ) ;
#3 = AXIS2_PLACEMENT_3D ( 'NONE', #1, #200, #59 ) ;
#4 = PRODUCT ( 'BPA1_Default_sldprt', 'BPA1_Default_sldprt', '', ( #45 ) ) ;
#5 = UNCERTAINTY_MEASURE_WITH_UNIT (LENGTH_MEASURE( 1.000000000000000082E-05 ), #160, 'distance_accuracy_value', 'NONE');
#6 = ORIENTED_EDGE ( 'NONE', *, *, #8, .F. ) ;
#7 = CARTESIAN_POINT ( 'NONE',  ( 509.0858621962727284, -0.9999999999999963363, 0.000000000000000000 ) ) ;
#8 = EDGE_CURVE ( 'NONE', #230, #190, #114, .T. ) ;
#9 = VERTEX_POINT ( 'NONE', #42 ) ;
#10 = VECTOR ( 'NONE', #70, 1000.000000000000000 ) ;
#11 = ORIENTED_EDGE ( 'NONE', *, *, #166, .F. ) ;
#12 = ORIENTED_EDGE ( 'NONE', *, *, #8, .T. ) ;
#13 = PERSON_AND_ORGANIZATION ( #153, #71 ) ;
#14 = CARTESIAN_POINT ( 'NONE',  ( 0.000000000000000000, 0.000000000000000000, 0.000000000000000000 ) ) ;
#15 = AXIS2_PLACEMENT_3D ( 'NONE', #231, #41, #92 ) ;
#16 = COORDINATED_UNIVERSAL_TIME_OFFSET ( 8, 0, .BEHIND. ) ;
#17 = LOCAL_TIME ( 14, 35, 20.00000000000000000, #120 ) ;
#18 = EDGE_CURVE ( 'NONE', #190, #193, #239, .T. ) ;
#19 = PLANE ( 'NONE',  #139 ) ;
#20 = CYLINDRICAL_SURFACE ( 'NONE', #199, 1.000000000000000000 ) ;
#21 = VECTOR ( 'NONE', #69, 1000.000000000000000 ) ;
#22 = DIRECTION ( 'NONE',  ( 1.635612634922949772E-16, 1.000000000000000000, 0.000000000000000000 ) ) ;
#23 = CARTESIAN_POINT ( 'NONE',  ( 509.0858621962727284, 3.786695166602578683E-15, 0.000000000000000000 ) ) ;
#24 = PERSON_AND_ORGANIZATION ( #153, #71 ) ;
#25 = APPROVAL ( #245, 'UNSPECIFIED' ) ;
#26 = APPROVAL_DATE_TIME ( #202, #102 ) ;
#27 = AXIS2_PLACEMENT_3D ( 'NONE', #76, #182, #95 ) ;
#28 =( NAMED_UNIT ( * ) SI_UNIT ( $, .STERADIAN. ) SOLID_ANGLE_UNIT ( ) );
#29 = DATE_AND_TIME ( #241, #175 ) ;
#30 = ADVANCED_FACE ( 'NONE', ( #196, #156 ), #51, .T. ) ;
#31 = AXIS2_PLACEMENT_3D ( 'NONE', #14, #233, #212 ) ;
#32 = ORIENTED_EDGE ( 'NONE', *, *, #124, .F. ) ;
#33 = ORIENTED_EDGE ( 'NONE', *, *, #127, .F. ) ;
#34 = FACE_OUTER_BOUND ( 'NONE', #83, .T. ) ;
#35 = SECURITY_CLASSIFICATION ( '', '', #49 ) ;
#36 = DIRECTION ( 'NONE',  ( 1.000000000000000000, -1.635612634922949772E-16, 0.000000000000000000 ) ) ;
#37 = PRODUCT_DEFINITION ( 'UNKNOWN', '', #155, #207 ) ;
#38 = CIRCLE ( 'NONE', #3, 1.000000000000000000 ) ;
#39 = CARTESIAN_POINT ( 'NONE',  ( 561.0858621962725010, -6.938893903907228378E-14, 0.000000000000000000 ) ) ;
#40 = EDGE_CURVE ( 'NONE', #228, #9, #218, .T. ) ;
#41 = DIRECTION ( 'NONE',  ( -1.000000000000000000, 1.407223734724518270E-15, 0.000000000000000000 ) ) ;
#42 = CARTESIAN_POINT ( 'NONE',  ( 509.0858621962727284, 19.99999999999991829, 0.000000000000000000 ) ) ;
#43 = AXIS2_PLACEMENT_3D ( 'NONE', #23, #152, #253 ) ;
#44 = COORDINATED_UNIVERSAL_TIME_OFFSET ( 8, 0, .BEHIND. ) ;
#45 = MECHANICAL_CONTEXT ( 'NONE', #116, 'mechanical' ) ;
#46 = CARTESIAN_POINT ( 'NONE',  ( 561.0858621962725010, 0.9999999999999306111, 1.224646799147353207E-16 ) ) ;
#47 = ORIENTED_EDGE ( 'NONE', *, *, #255, .F. ) ;
#48 = APPROVAL_PERSON_ORGANIZATION ( #105, #191, #88 ) ;
#49 = SECURITY_CLASSIFICATION_LEVEL ( 'unclassified' ) ;
#50 = FACE_OUTER_BOUND ( 'NONE', #210, .T. ) ;
#51 = PLANE ( 'NONE',  #61 ) ;
#52 = ADVANCED_FACE ( 'NONE', ( #125 ), #20, .T. ) ;
#53 = LINE ( 'NONE', #176, #146 ) ;
#54 = AXIS2_PLACEMENT_3D ( 'NONE', #216, #223, #244 ) ;
#55 = DIRECTION ( 'NONE',  ( -1.000000000000000000, 1.407223734724518270E-15, 0.000000000000000000 ) ) ;
#56 = CARTESIAN_POINT ( 'NONE',  ( 0.000000000000000000, 0.000000000000000000, 0.000000000000000000 ) ) ;
#57 = CC_DESIGN_APPROVAL ( #25, ( #37 ) ) ;
#58 = CALENDAR_DATE ( 2026, 12, 9 ) ;
#59 = DIRECTION ( 'NONE',  ( 0.000000000000000000, -1.000000000000000000, 0.000000000000000000 ) ) ;
#60 = PRODUCT_DEFINITION_SHAPE ( 'NONE', 'NONE',  #37 ) ;
#61 = AXIS2_PLACEMENT_3D ( 'NONE', #171, #104, #73 ) ;
#62 = PERSON_AND_ORGANIZATION_ROLE ( 'creator' ) ;
#63 = EDGE_LOOP ( 'NONE', ( #115, #101, #33, #144 ) ) ;
#64 = PERSON_AND_ORGANIZATION_ROLE ( 'design_supplier' ) ;
#65 = CALENDAR_DATE ( 2026, 12, 9 ) ;
#66 = ADVANCED_FACE ( 'NONE', ( #254 ), #238, .T. ) ;
#67 = LOCAL_TIME ( 14, 35, 20.00000000000000000, #240 ) ;
#68 = DIRECTION ( 'NONE',  ( 1.635612634922949772E-16, 1.000000000000000000, 0.000000000000000000 ) ) ;
#69 = DIRECTION ( 'NONE',  ( -1.000000000000000000, 1.407223734724521425E-15, 0.000000000000000000 ) ) ;
#70 = DIRECTION ( 'NONE',  ( 1.000000000000000000, -1.635612634922949772E-16, 0.000000000000000000 ) ) ;
#71 = ORGANIZATION ( 'UNSPECIFIED', 'UNSPECIFIED', '' ) ;
#72 = DIRECTION ( 'NONE',  ( 1.000000000000000000, -1.635612634922949772E-16, 0.000000000000000000 ) ) ;
#73 = DIRECTION ( 'NONE',  ( 1.635612634922949772E-16, 1.000000000000000000, 0.000000000000000000 ) ) ;
#74 = EDGE_CURVE ( 'NONE', #190, #230, #229, .T. ) ;
#75 = APPLICATION_PROTOCOL_DEFINITION ( 'international standard', 'config_control_design', 1994, #116 ) ;
#76 = CARTESIAN_POINT ( 'NONE',  ( 0.000000000000000000, 0.000000000000000000, 0.000000000000000000 ) ) ;
#77 = VERTEX_POINT ( 'NONE', #108 ) ;
#78 = PERSON_AND_ORGANIZATION_ROLE ( 'design_owner' ) ;
#79 = ADVANCED_FACE ( 'NONE', ( #109 ), #195, .T. ) ;
#80 = ORIENTED_EDGE ( 'NONE', *, *, #166, .T. ) ;
#81 = CARTESIAN_POINT ( 'NONE',  ( 509.0858621962727284, -20.00000000000008527, 2.449293598294711246E-15 ) ) ;
#82 = AXIS2_PLACEMENT_3D ( 'NONE', #251, #86, #147 ) ;
#83 = EDGE_LOOP ( 'NONE', ( #224, #6 ) ) ;
#84 = ORIENTED_EDGE ( 'NONE', *, *, #255, .T. ) ;
#85 = ORIENTED_EDGE ( 'NONE', *, *, #40, .T. ) ;
#86 = DIRECTION ( 'NONE',  ( 1.000000000000000000, -1.635612634922949772E-16, 0.000000000000000000 ) ) ;
#87 = CC_DESIGN_APPROVAL ( #191, ( #35 ) ) ;
#88 = APPROVAL_ROLE ( '' ) ;
#89 = CARTESIAN_POINT ( 'NONE',  ( 0.000000000000000000, 0.000000000000000000, 0.000000000000000000 ) ) ;
#90 = DIRECTION ( 'NONE',  ( -1.407223734724518270E-15, -1.000000000000000000, 0.000000000000000000 ) ) ;
#91 = CC_DESIGN_SECURITY_CLASSIFICATION ( #35, ( #155 ) ) ;
#92 = DIRECTION ( 'NONE',  ( 0.000000000000000000, -1.000000000000000000, 0.000000000000000000 ) ) ;
#93 = AXIS2_PLACEMENT_3D ( 'NONE', #89, #252, #22 ) ;
#94 = DIRECTION ( 'NONE',  ( -1.000000000000000000, 1.407223734724521425E-15, 0.000000000000000000 ) ) ;
#95 = DIRECTION ( 'NONE',  ( 1.000000000000000000, 0.000000000000000000, 0.000000000000000000 ) ) ;
#96 = CYLINDRICAL_SURFACE ( 'NONE', #128, 1.000000000000000000 ) ;
#97 = PERSON_AND_ORGANIZATION ( #153, #71 ) ;
#98 = CLOSED_SHELL ( 'NONE', ( #213, #79, #66, #30, #119, #52, #99 ) ) ;
#99 = ADVANCED_FACE ( 'NONE', ( #34 ), #19, .F. ) ;
#100 = DIRECTION ( 'NONE',  ( -1.000000000000000000, 1.407223734724521425E-15, 0.000000000000000000 ) ) ;
#101 = ORIENTED_EDGE ( 'NONE', *, *, #222, .T. ) ;
#102 = APPROVAL ( #134, 'UNSPECIFIED' ) ;
#103 = ORIENTED_EDGE ( 'NONE', *, *, #185, .F. ) ;
#104 = DIRECTION ( 'NONE',  ( 1.000000000000000000, -1.635612634922949772E-16, 0.000000000000000000 ) ) ;
#105 = PERSON_AND_ORGANIZATION ( #153, #71 ) ;
#106 = PLANE ( 'NONE',  #93 ) ;
#107 = EDGE_CURVE ( 'NONE', #77, #168, #234, .T. ) ;
#108 = CARTESIAN_POINT ( 'NONE',  ( 3.271225269845899347E-15, 20.00000000000000000, 0.000000000000000000 ) ) ;
#109 = FACE_OUTER_BOUND ( 'NONE', #161, .T. ) ;
#110 = AXIS2_PLACEMENT_3D ( 'NONE', #157, #36, #123 ) ;
#111 = DIRECTION ( 'NONE',  ( -1.000000000000000000, 1.407223734724518270E-15, 0.000000000000000000 ) ) ;
#112 = APPROVAL_ROLE ( '' ) ;
#113 = CALENDAR_DATE ( 2026, 12, 9 ) ;
#114 = CIRCLE ( 'NONE', #15, 1.000000000000000000 ) ;
#115 = ORIENTED_EDGE ( 'NONE', *, *, #74, .T. ) ;
#116 = APPLICATION_CONTEXT ( 'configuration controlled 3d designs of mechanical parts and assemblies' ) ;
#117 = EDGE_CURVE ( 'NONE', #168, #77, #149, .T. ) ;
#118 = MANIFOLD_SOLID_BREP ( 'Sweep2', #98 ) ;
#119 = ADVANCED_FACE ( 'NONE', ( #50 ), #106, .F. ) ;
#120 = COORDINATED_UNIVERSAL_TIME_OFFSET ( 8, 0, .BEHIND. ) ;
#121 = ORIENTED_EDGE ( 'NONE', *, *, #107, .T. ) ;
#122 = PERSON_AND_ORGANIZATION_ROLE ( 'classification_officer' ) ;
#123 = DIRECTION ( 'NONE',  ( 0.000000000000000000, 1.000000000000000000, 0.000000000000000000 ) ) ;
#124 = EDGE_CURVE ( 'NONE', #77, #9, #148, .T. ) ;
#125 = FACE_OUTER_BOUND ( 'NONE', #142, .T. ) ;
#126 = LOCAL_TIME ( 14, 35, 20.00000000000000000, #44 ) ;
#127 = EDGE_CURVE ( 'NONE', #193, #167, #214, .T. ) ;
#128 = AXIS2_PLACEMENT_3D ( 'NONE', #164, #242, #2 ) ;
#129 = CARTESIAN_POINT ( 'NONE',  ( 509.0858621962727284, 1.000000000000003775, 1.224646799147397827E-16 ) ) ;
#130 = CARTESIAN_POINT ( 'NONE',  ( -3.271225269845899347E-15, -20.00000000000000000, 2.449293598294706513E-15 ) ) ;
#131 = CARTESIAN_POINT ( 'NONE',  ( 561.0858621962725010, -1.000000000000069500, 0.000000000000000000 ) ) ;
#132 = AXIS2_PLACEMENT_3D ( 'NONE', #198, #236, #68 ) ;
#133 = DATE_TIME_ROLE ( 'creation_date' ) ;
#134 = APPROVAL_STATUS ( 'not_yet_approved' ) ;
#135 = PRODUCT_RELATED_PRODUCT_CATEGORY ( 'detail', '', ( #4 ) ) ;
#136 = CARTESIAN_POINT ( 'NONE',  ( 561.0858621962725010, 0.9999999999999306111, 1.224646799147353207E-16 ) ) ;
#137 = ORIENTED_EDGE ( 'NONE', *, *, #18, .T. ) ;
#138 = PERSON_AND_ORGANIZATION ( #153, #71 ) ;
#139 = AXIS2_PLACEMENT_3D ( 'NONE', #197, #55, #90 ) ;
#140 = ORIENTED_EDGE ( 'NONE', *, *, #185, .T. ) ;
#141 = DATE_AND_TIME ( #58, #67 ) ;
#142 = EDGE_LOOP ( 'NONE', ( #189, #12, #137, #47 ) ) ;
#143 = DATE_AND_TIME ( #248, #17 ) ;
#144 = ORIENTED_EDGE ( 'NONE', *, *, #18, .F. ) ;
#145 = PERSON_AND_ORGANIZATION_ROLE ( 'creator' ) ;
#146 = VECTOR ( 'NONE', #72, 1000.000000000000000 ) ;
#147 = DIRECTION ( 'NONE',  ( 1.635612634922949772E-16, 1.000000000000000000, 0.000000000000000000 ) ) ;
#148 = LINE ( 'NONE', #174, #10 ) ;
#149 = CIRCLE ( 'NONE', #82, 20.00000000000000000 ) ;
#150 = CC_DESIGN_DATE_AND_TIME_ASSIGNMENT ( #141, #133, ( #37 ) ) ;
#151 = APPLICATION_CONTEXT ( 'configuration controlled 3d designs of mechanical parts and assemblies' ) ;
#152 = DIRECTION ( 'NONE',  ( -1.000000000000000000, 1.407223734724518270E-15, 0.000000000000000000 ) ) ;
#153 = PERSON ( 'UNSPECIFIED', 'UNSPECIFIED', 'UNSPECIFIED', ('UNSPECIFIED'), ('UNSPECIFIED'), ('UNSPECIFIED') ) ;
#154 = ADVANCED_BREP_SHAPE_REPRESENTATION ( 'BPA1_Default_sldprt', ( #118, #27 ), #188 ) ;
#155 = PRODUCT_DEFINITION_FORMATION_WITH_SPECIFIED_SOURCE ( 'ANY', '', #4, .NOT_KNOWN. ) ;
#156 = FACE_OUTER_BOUND ( 'NONE', #243, .T. ) ;
#157 = CARTESIAN_POINT ( 'NONE',  ( 509.0858621962727284, -8.326672684688672791E-14, 0.000000000000000000 ) ) ;
#158 = PERSON_AND_ORGANIZATION ( #153, #71 ) ;
#159 = CC_DESIGN_PERSON_AND_ORGANIZATION_ASSIGNMENT ( #13, #122, ( #35 ) ) ;
#160 =( LENGTH_UNIT ( ) NAMED_UNIT ( * ) SI_UNIT ( .MILLI., .METRE. ) );
#161 = EDGE_LOOP ( 'NONE', ( #121, #80, #103, #32 ) ) ;
#162 = APPLICATION_PROTOCOL_DEFINITION ( 'international standard', 'config_control_design', 1994, #151 ) ;
#163 = ORIENTED_EDGE ( 'NONE', *, *, #107, .F. ) ;
#164 = CARTESIAN_POINT ( 'NONE',  ( 561.0858621962725010, -6.938893903907228378E-14, 0.000000000000000000 ) ) ;
#165 = LOCAL_TIME ( 14, 35, 20.00000000000000000, #16 ) ;
#166 = EDGE_CURVE ( 'NONE', #168, #228, #53, .T. ) ;
#167 = VERTEX_POINT ( 'NONE', #129 ) ;
#168 = VERTEX_POINT ( 'NONE', #130 ) ;
#169 = DATE_AND_TIME ( #65, #165 ) ;
#170 = AXIS2_PLACEMENT_3D ( 'NONE', #56, #249, #217 ) ;
#171 = CARTESIAN_POINT ( 'NONE',  ( 509.0858621962727284, -8.326672684688672791E-14, 0.000000000000000000 ) ) ;
#172 = CARTESIAN_POINT ( 'NONE',  ( 561.0858621962725010, -6.938893903907228378E-14, 0.000000000000000000 ) ) ;
#173 = DATE_TIME_ROLE ( 'classification_date' ) ;
#174 = CARTESIAN_POINT ( 'NONE',  ( 3.271225269845899347E-15, 20.00000000000000000, 0.000000000000000000 ) ) ;
#175 = LOCAL_TIME ( 14, 35, 20.00000000000000000, #204 ) ;
#176 = CARTESIAN_POINT ( 'NONE',  ( -3.271225269845899347E-15, -20.00000000000000000, 2.449293598294706513E-15 ) ) ;
#177 = CC_DESIGN_APPROVAL ( #102, ( #155 ) ) ;
#178 = DIRECTION ( 'NONE',  ( 0.000000000000000000, -1.000000000000000000, 0.000000000000000000 ) ) ;
#179 = LINE ( 'NONE', #136, #181 ) ;
#180 = CARTESIAN_POINT ( 'NONE',  ( 561.0858621962725010, -1.000000000000069500, 0.000000000000000000 ) ) ;
#181 = VECTOR ( 'NONE', #100, 1000.000000000000000 ) ;
#182 = DIRECTION ( 'NONE',  ( 0.000000000000000000, 0.000000000000000000, 1.000000000000000000 ) ) ;
#183 = ORIENTED_EDGE ( 'NONE', *, *, #117, .F. ) ;
#184 = APPROVAL_DATE_TIME ( #29, #25 ) ;
#185 = EDGE_CURVE ( 'NONE', #9, #228, #237, .T. ) ;
#186 = ORIENTED_EDGE ( 'NONE', *, *, #124, .T. ) ;
#187 = APPROVAL_STATUS ( 'not_yet_approved' ) ;
#188 =( GEOMETRIC_REPRESENTATION_CONTEXT ( 3 ) GLOBAL_UNCERTAINTY_ASSIGNED_CONTEXT ( ( #5 ) ) GLOBAL_UNIT_ASSIGNED_CONTEXT ( ( #160, #220, #28 ) ) REPRESENTATION_CONTEXT ( 'NONE', 'WORKASPACE' ) );
#189 = ORIENTED_EDGE ( 'NONE', *, *, #222, .F. ) ;
#190 = VERTEX_POINT ( 'NONE', #180 ) ;
#191 = APPROVAL ( #187, 'UNSPECIFIED' ) ;
#192 = PERSON_AND_ORGANIZATION ( #153, #71 ) ;
#193 = VERTEX_POINT ( 'NONE', #7 ) ;
#194 = AXIS2_PLACEMENT_3D ( 'NONE', #39, #111, #215 ) ;
#195 = CYLINDRICAL_SURFACE ( 'NONE', #132, 20.00000000000000000 ) ;
#196 = FACE_BOUND ( 'NONE', #226, .T. ) ;
#197 = CARTESIAN_POINT ( 'NONE',  ( 561.0858621962725010, -6.938893903907228378E-14, 0.000000000000000000 ) ) ;
#198 = CARTESIAN_POINT ( 'NONE',  ( 0.000000000000000000, 0.000000000000000000, 0.000000000000000000 ) ) ;
#199 = AXIS2_PLACEMENT_3D ( 'NONE', #172, #94, #178 ) ;
#200 = DIRECTION ( 'NONE',  ( -1.000000000000000000, 1.407223734724518270E-15, 0.000000000000000000 ) ) ;
#201 = PERSON_AND_ORGANIZATION ( #153, #71 ) ;
#202 = DATE_AND_TIME ( #113, #126 ) ;
#203 = APPROVAL_PERSON_ORGANIZATION ( #138, #25, #112 ) ;
#204 = COORDINATED_UNIVERSAL_TIME_OFFSET ( 8, 0, .BEHIND. ) ;
#205 = SHAPE_DEFINITION_REPRESENTATION ( #60, #154 ) ;
#206 = APPROVAL_PERSON_ORGANIZATION ( #24, #102, #225 ) ;
#207 = DESIGN_CONTEXT ( 'detailed design', #151, 'design' ) ;
#208 = CC_DESIGN_PERSON_AND_ORGANIZATION_ASSIGNMENT ( #97, #145, ( #155 ) ) ;
#209 = ORIENTED_EDGE ( 'NONE', *, *, #117, .T. ) ;
#210 = EDGE_LOOP ( 'NONE', ( #163, #183 ) ) ;
#211 = ORIENTED_EDGE ( 'NONE', *, *, #127, .T. ) ;
#212 = DIRECTION ( 'NONE',  ( 1.635612634922949772E-16, 1.000000000000000000, 0.000000000000000000 ) ) ;
#213 = ADVANCED_FACE ( 'NONE', ( #219 ), #96, .T. ) ;
#214 = CIRCLE ( 'NONE', #43, 1.000000000000000000 ) ;
#215 = DIRECTION ( 'NONE',  ( 0.000000000000000000, -1.000000000000000000, 0.000000000000000000 ) ) ;
#216 = CARTESIAN_POINT ( 'NONE',  ( 509.0858621962727284, -8.326672684688672791E-14, 0.000000000000000000 ) ) ;
#217 = DIRECTION ( 'NONE',  ( 1.635612634922949772E-16, 1.000000000000000000, 0.000000000000000000 ) ) ;
#218 = CIRCLE ( 'NONE', #110, 20.00000000000000000 ) ;
#219 = FACE_OUTER_BOUND ( 'NONE', #63, .T. ) ;
#220 =( NAMED_UNIT ( * ) PLANE_ANGLE_UNIT ( ) SI_UNIT ( $, .RADIAN. ) );
#221 = ORIENTED_EDGE ( 'NONE', *, *, #40, .F. ) ;
#222 = EDGE_CURVE ( 'NONE', #230, #167, #179, .T. ) ;
#223 = DIRECTION ( 'NONE',  ( 1.000000000000000000, -1.635612634922949772E-16, 0.000000000000000000 ) ) ;
#224 = ORIENTED_EDGE ( 'NONE', *, *, #74, .F. ) ;
#225 = APPROVAL_ROLE ( '' ) ;
#226 = EDGE_LOOP ( 'NONE', ( #211, #84 ) ) ;
#227 = CC_DESIGN_PERSON_AND_ORGANIZATION_ASSIGNMENT ( #192, #64, ( #155 ) ) ;
#228 = VERTEX_POINT ( 'NONE', #81 ) ;
#229 = CIRCLE ( 'NONE', #194, 1.000000000000000000 ) ;
#230 = VERTEX_POINT ( 'NONE', #46 ) ;
#231 = CARTESIAN_POINT ( 'NONE',  ( 561.0858621962725010, -6.938893903907228378E-14, 0.000000000000000000 ) ) ;
#232 = APPROVAL_DATE_TIME ( #143, #191 ) ;
#233 = DIRECTION ( 'NONE',  ( 1.000000000000000000, -1.635612634922949772E-16, 0.000000000000000000 ) ) ;
#234 = CIRCLE ( 'NONE', #31, 20.00000000000000000 ) ;
#235 = CC_DESIGN_DATE_AND_TIME_ASSIGNMENT ( #169, #173, ( #35 ) ) ;
#236 = DIRECTION ( 'NONE',  ( 1.000000000000000000, -1.635612634922949772E-16, 0.000000000000000000 ) ) ;
#237 = CIRCLE ( 'NONE', #54, 20.00000000000000000 ) ;
#238 = CYLINDRICAL_SURFACE ( 'NONE', #170, 20.00000000000000000 ) ;
#239 = LINE ( 'NONE', #131, #21 ) ;
#240 = COORDINATED_UNIVERSAL_TIME_OFFSET ( 8, 0, .BEHIND. ) ;
#241 = CALENDAR_DATE ( 2026, 12, 9 ) ;
#242 = DIRECTION ( 'NONE',  ( -1.000000000000000000, 1.407223734724521425E-15, 0.000000000000000000 ) ) ;
#243 = EDGE_LOOP ( 'NONE', ( #140, #85 ) ) ;
#244 = DIRECTION ( 'NONE',  ( 0.000000000000000000, 1.000000000000000000, 0.000000000000000000 ) ) ;
#245 = APPROVAL_STATUS ( 'not_yet_approved' ) ;
#246 = CC_DESIGN_PERSON_AND_ORGANIZATION_ASSIGNMENT ( #201, #62, ( #37 ) ) ;
#247 = EDGE_LOOP ( 'NONE', ( #11, #209, #186, #221 ) ) ;
#248 = CALENDAR_DATE ( 2026, 12, 9 ) ;
#249 = DIRECTION ( 'NONE',  ( 1.000000000000000000, -1.635612634922949772E-16, 0.000000000000000000 ) ) ;
#250 = CC_DESIGN_PERSON_AND_ORGANIZATION_ASSIGNMENT ( #158, #78, ( #4 ) ) ;
#251 = CARTESIAN_POINT ( 'NONE',  ( 0.000000000000000000, 0.000000000000000000, 0.000000000000000000 ) ) ;
#252 = DIRECTION ( 'NONE',  ( 1.000000000000000000, -1.635612634922949772E-16, 0.000000000000000000 ) ) ;
#253 = DIRECTION ( 'NONE',  ( 0.000000000000000000, -1.000000000000000000, 0.000000000000000000 ) ) ;
#254 = FACE_OUTER_BOUND ( 'NONE', #247, .T. ) ;
#255 = EDGE_CURVE ( 'NONE', #167, #193, #38, .T. ) ;
ENDSEC;
END-ISO-10303-21;
