ISO-10303-21;
HEADER;
FILE_DESCRIPTION (( 'STEP AP203' ),
    '1' );
FILE_NAME ('BPA2_Default_sldprt.STEP',
    '2026-09-12T21:35:22',
    ( '' ),
    ( '' ),
    'SwSTEP 2.0',
    'SolidWorks 2025',
    '' );
FILE_SCHEMA (( 'CONFIG_CONTROL_DESIGN' ));
ENDSEC;

DATA;
#1 = EDGE_CURVE ( 'NONE', #64, #93, #105, .T. ) ;
#2 = UNCERTAINTY_MEASURE_WITH_UNIT (LENGTH_MEASURE( 1.000000000000000082E-05 ), #32, 'distance_accuracy_value', 'NONE');
#3 = AXIS2_PLACEMENT_3D ( 'NONE', #20, #57, #169 ) ;
#4 = DIRECTION ( 'NONE',  ( 1.000000000000000000, 0.000000000000000000, 0.000000000000000000 ) ) ;
#5 = ADVANCED_FACE ( 'NONE', ( #44 ), #38, .T. ) ;
#6 =( GEOMETRIC_REPRESENTATION_CONTEXT ( 3 ) GLOBAL_UNCERTAINTY_ASSIGNED_CONTEXT ( ( #2 ) ) GLOBAL_UNIT_ASSIGNED_CONTEXT ( ( #32, #9, #142 ) ) REPRESENTATION_CONTEXT ( 'NONE', 'WORKASPACE' ) );
#7 = FACE_OUTER_BOUND ( 'NONE', #16, .T. ) ;
#8 = PRODUCT_RELATED_PRODUCT_CATEGORY ( 'detail', '', ( #122 ) ) ;
#9 =( NAMED_UNIT ( * ) PLANE_ANGLE_UNIT ( ) SI_UNIT ( $, .RADIAN. ) );
#10 = DATE_AND_TIME ( #149, #137 ) ;
#11 = PERSON_AND_ORGANIZATION ( #50, #66 ) ;
#12 = ORIENTED_EDGE ( 'NONE', *, *, #78, .F. ) ;
#13 = DATE_AND_TIME ( #132, #167 ) ;
#14 = PERSON_AND_ORGANIZATION ( #50, #66 ) ;
#15 = VERTEX_POINT ( 'NONE', #89 ) ;
#16 = EDGE_LOOP ( 'NONE', ( #79, #124 ) ) ;
#17 = AXIS2_PLACEMENT_3D ( 'NONE', #23, #19, #35 ) ;
#18 = CC_DESIGN_SECURITY_CLASSIFICATION ( #43, ( #170 ) ) ;
#19 = DIRECTION ( 'NONE',  ( 1.000000000000000000, 0.000000000000000000, 0.000000000000000000 ) ) ;
#20 = CARTESIAN_POINT ( 'NONE',  ( 0.000000000000000000, 0.000000000000000000, 0.000000000000000000 ) ) ;
#21 = CARTESIAN_POINT ( 'NONE',  ( 0.000000000000000000, 0.000000000000000000, -20.00000000000000000 ) ) ;
#22 = EDGE_CURVE ( 'NONE', #15, #93, #148, .T. ) ;
#23 = CARTESIAN_POINT ( 'NONE',  ( 0.000000000000000000, 0.000000000000000000, 0.000000000000000000 ) ) ;
#24 = COORDINATED_UNIVERSAL_TIME_OFFSET ( 8, 0, .BEHIND. ) ;
#25 = APPROVAL_DATE_TIME ( #61, #40 ) ;
#26 = CC_DESIGN_PERSON_AND_ORGANIZATION_ASSIGNMENT ( #62, #72, ( #170 ) ) ;
#27 = APPROVAL_STATUS ( 'not_yet_approved' ) ;
#28 = CARTESIAN_POINT ( 'NONE',  ( 0.000000000000000000, 2.449293598294706513E-15, 20.00000000000000000 ) ) ;
#29 = DATE_AND_TIME ( #129, #92 ) ;
#30 = APPROVAL_PERSON_ORGANIZATION ( #47, #40, #159 ) ;
#31 = ORIENTED_EDGE ( 'NONE', *, *, #112, .F. ) ;
#32 =( LENGTH_UNIT ( ) NAMED_UNIT ( * ) SI_UNIT ( .MILLI., .METRE. ) );
#33 = DIRECTION ( 'NONE',  ( 1.000000000000000000, 0.000000000000000000, 0.000000000000000000 ) ) ;
#34 = COORDINATED_UNIVERSAL_TIME_OFFSET ( 8, 0, .BEHIND. ) ;
#35 = DIRECTION ( 'NONE',  ( 0.000000000000000000, 0.000000000000000000, -1.000000000000000000 ) ) ;
#36 = ADVANCED_FACE ( 'NONE', ( #134 ), #145, .T. ) ;
#37 = DATE_TIME_ROLE ( 'classification_date' ) ;
#38 = CYLINDRICAL_SURFACE ( 'NONE', #153, 20.00000000000000000 ) ;
#39 = APPROVAL_DATE_TIME ( #13, #82 ) ;
#40 = APPROVAL ( #98, 'UNSPECIFIED' ) ;
#41 = EDGE_LOOP ( 'NONE', ( #31, #174 ) ) ;
#42 = ORIENTED_EDGE ( 'NONE', *, *, #109, .F. ) ;
#43 = SECURITY_CLASSIFICATION ( '', '', #118 ) ;
#44 = FACE_OUTER_BOUND ( 'NONE', #91, .T. ) ;
#45 = DIRECTION ( 'NONE',  ( 0.000000000000000000, 0.000000000000000000, -1.000000000000000000 ) ) ;
#46 = MANIFOLD_SOLID_BREP ( 'Sweep1', #125 ) ;
#47 = PERSON_AND_ORGANIZATION ( #50, #66 ) ;
#48 = DIRECTION ( 'NONE',  ( 1.000000000000000000, 0.000000000000000000, 0.000000000000000000 ) ) ;
#49 = PERSON_AND_ORGANIZATION ( #50, #66 ) ;
#50 = PERSON ( 'UNSPECIFIED', 'UNSPECIFIED', 'UNSPECIFIED', ('UNSPECIFIED'), ('UNSPECIFIED'), ('UNSPECIFIED') ) ;
#51 = COORDINATED_UNIVERSAL_TIME_OFFSET ( 8, 0, .BEHIND. ) ;
#52 = DATE_TIME_ROLE ( 'creation_date' ) ;
#53 = CC_DESIGN_APPROVAL ( #107, ( #43 ) ) ;
#54 = CC_DESIGN_PERSON_AND_ORGANIZATION_ASSIGNMENT ( #14, #119, ( #170 ) ) ;
#55 = DIRECTION ( 'NONE',  ( 0.000000000000000000, 0.000000000000000000, -1.000000000000000000 ) ) ;
#56 = APPLICATION_CONTEXT ( 'configuration controlled 3d designs of mechanical parts and assemblies' ) ;
#57 = DIRECTION ( 'NONE',  ( 0.000000000000000000, 0.000000000000000000, 1.000000000000000000 ) ) ;
#58 = PERSON_AND_ORGANIZATION_ROLE ( 'design_owner' ) ;
#59 = CC_DESIGN_APPROVAL ( #82, ( #170 ) ) ;
#60 = DIRECTION ( 'NONE',  ( 1.000000000000000000, 0.000000000000000000, 0.000000000000000000 ) ) ;
#61 = DATE_AND_TIME ( #99, #172 ) ;
#62 = PERSON_AND_ORGANIZATION ( #50, #66 ) ;
#63 = APPROVAL_PERSON_ORGANIZATION ( #86, #82, #87 ) ;
#64 = VERTEX_POINT ( 'NONE', #85 ) ;
#65 = CIRCLE ( 'NONE', #162, 20.00000000000000000 ) ;
#66 = ORGANIZATION ( 'UNSPECIFIED', 'UNSPECIFIED', '' ) ;
#67 = DIRECTION ( 'NONE',  ( 0.000000000000000000, 0.000000000000000000, -1.000000000000000000 ) ) ;
#68 = CARTESIAN_POINT ( 'NONE',  ( 0.000000000000000000, 0.000000000000000000, 0.000000000000000000 ) ) ;
#69 = MECHANICAL_CONTEXT ( 'NONE', #56, 'mechanical' ) ;
#70 = CARTESIAN_POINT ( 'NONE',  ( 299.4968621089223575, 0.000000000000000000, 0.000000000000000000 ) ) ;
#71 = APPROVAL_ROLE ( '' ) ;
#72 = PERSON_AND_ORGANIZATION_ROLE ( 'design_supplier' ) ;
#73 = DATE_AND_TIME ( #103, #140 ) ;
#74 = DIRECTION ( 'NONE',  ( 0.000000000000000000, 0.000000000000000000, -1.000000000000000000 ) ) ;
#75 = DIRECTION ( 'NONE',  ( 1.000000000000000000, 0.000000000000000000, 0.000000000000000000 ) ) ;
#76 = APPROVAL_PERSON_ORGANIZATION ( #131, #107, #71 ) ;
#77 = ORIENTED_EDGE ( 'NONE', *, *, #112, .T. ) ;
#78 = EDGE_CURVE ( 'NONE', #93, #64, #65, .T. ) ;
#79 = ORIENTED_EDGE ( 'NONE', *, *, #1, .T. ) ;
#80 = CARTESIAN_POINT ( 'NONE',  ( 299.4968621089223575, 2.449293598294706513E-15, 20.00000000000000000 ) ) ;
#81 = APPLICATION_PROTOCOL_DEFINITION ( 'international standard', 'config_control_design', 1994, #56 ) ;
#82 = APPROVAL ( #27, 'UNSPECIFIED' ) ;
#83 = DIRECTION ( 'NONE',  ( 1.000000000000000000, 0.000000000000000000, 0.000000000000000000 ) ) ;
#84 = VECTOR ( 'NONE', #75, 1000.000000000000000 ) ;
#85 = CARTESIAN_POINT ( 'NONE',  ( 299.4968621089223575, 0.000000000000000000, -20.00000000000000000 ) ) ;
#86 = PERSON_AND_ORGANIZATION ( #50, #66 ) ;
#87 = APPROVAL_ROLE ( '' ) ;
#88 = ADVANCED_FACE ( 'NONE', ( #7 ), #96, .T. ) ;
#89 = CARTESIAN_POINT ( 'NONE',  ( 0.000000000000000000, 2.449293598294706513E-15, 20.00000000000000000 ) ) ;
#90 = COORDINATED_UNIVERSAL_TIME_OFFSET ( 8, 0, .BEHIND. ) ;
#91 = EDGE_LOOP ( 'NONE', ( #77, #106, #165, #42 ) ) ;
#92 = LOCAL_TIME ( 14, 35, 22.00000000000000000, #90 ) ;
#93 = VERTEX_POINT ( 'NONE', #80 ) ;
#94 = PRODUCT_DEFINITION_SHAPE ( 'NONE', 'NONE',  #152 ) ;
#95 = CARTESIAN_POINT ( 'NONE',  ( 0.000000000000000000, 0.000000000000000000, 0.000000000000000000 ) ) ;
#96 = PLANE ( 'NONE',  #117 ) ;
#97 = FACE_OUTER_BOUND ( 'NONE', #41, .T. ) ;
#98 = APPROVAL_STATUS ( 'not_yet_approved' ) ;
#99 = CALENDAR_DATE ( 2026, 12, 9 ) ;
#100 = CC_DESIGN_DATE_AND_TIME_ASSIGNMENT ( #10, #52, ( #152 ) ) ;
#101 = VECTOR ( 'NONE', #83, 1000.000000000000000 ) ;
#102 = CARTESIAN_POINT ( 'NONE',  ( 0.000000000000000000, 0.000000000000000000, 0.000000000000000000 ) ) ;
#103 = CALENDAR_DATE ( 2026, 12, 9 ) ;
#104 = CC_DESIGN_PERSON_AND_ORGANIZATION_ASSIGNMENT ( #11, #175, ( #43 ) ) ;
#105 = CIRCLE ( 'NONE', #108, 20.00000000000000000 ) ;
#106 = ORIENTED_EDGE ( 'NONE', *, *, #22, .T. ) ;
#107 = APPROVAL ( #133, 'UNSPECIFIED' ) ;
#108 = AXIS2_PLACEMENT_3D ( 'NONE', #154, #141, #168 ) ;
#109 = EDGE_CURVE ( 'NONE', #138, #64, #160, .T. ) ;
#110 = DESIGN_CONTEXT ( 'detailed design', #164, 'design' ) ;
#111 = ORIENTED_EDGE ( 'NONE', *, *, #22, .F. ) ;
#112 = EDGE_CURVE ( 'NONE', #138, #15, #130, .T. ) ;
#113 = DIRECTION ( 'NONE',  ( 0.000000000000000000, 0.000000000000000000, -1.000000000000000000 ) ) ;
#114 = CIRCLE ( 'NONE', #151, 20.00000000000000000 ) ;
#115 = APPLICATION_PROTOCOL_DEFINITION ( 'international standard', 'config_control_design', 1994, #164 ) ;
#116 = DIRECTION ( 'NONE',  ( 0.000000000000000000, 0.000000000000000000, -1.000000000000000000 ) ) ;
#117 = AXIS2_PLACEMENT_3D ( 'NONE', #158, #60, #113 ) ;
#118 = SECURITY_CLASSIFICATION_LEVEL ( 'unclassified' ) ;
#119 = PERSON_AND_ORGANIZATION_ROLE ( 'creator' ) ;
#120 = ADVANCED_BREP_SHAPE_REPRESENTATION ( 'BPA2_Default_sldprt', ( #46, #3 ), #6 ) ;
#121 = AXIS2_PLACEMENT_3D ( 'NONE', #102, #33, #116 ) ;
#122 = PRODUCT ( 'BPA2_Default_sldprt', 'BPA2_Default_sldprt', '', ( #69 ) ) ;
#123 = ADVANCED_FACE ( 'NONE', ( #97 ), #127, .F. ) ;
#124 = ORIENTED_EDGE ( 'NONE', *, *, #78, .T. ) ;
#125 = CLOSED_SHELL ( 'NONE', ( #5, #36, #88, #123 ) ) ;
#126 = AXIS2_PLACEMENT_3D ( 'NONE', #128, #48, #45 ) ;
#127 = PLANE ( 'NONE',  #17 ) ;
#128 = CARTESIAN_POINT ( 'NONE',  ( 0.000000000000000000, 0.000000000000000000, 0.000000000000000000 ) ) ;
#129 = CALENDAR_DATE ( 2026, 12, 9 ) ;
#130 = CIRCLE ( 'NONE', #121, 20.00000000000000000 ) ;
#131 = PERSON_AND_ORGANIZATION ( #50, #66 ) ;
#132 = CALENDAR_DATE ( 2026, 12, 9 ) ;
#133 = APPROVAL_STATUS ( 'not_yet_approved' ) ;
#134 = FACE_OUTER_BOUND ( 'NONE', #139, .T. ) ;
#135 = CC_DESIGN_PERSON_AND_ORGANIZATION_ASSIGNMENT ( #49, #161, ( #152 ) ) ;
#136 = COORDINATED_UNIVERSAL_TIME_OFFSET ( 8, 0, .BEHIND. ) ;
#137 = LOCAL_TIME ( 14, 35, 22.00000000000000000, #51 ) ;
#138 = VERTEX_POINT ( 'NONE', #21 ) ;
#139 = EDGE_LOOP ( 'NONE', ( #111, #150, #163, #12 ) ) ;
#140 = LOCAL_TIME ( 14, 35, 22.00000000000000000, #136 ) ;
#141 = DIRECTION ( 'NONE',  ( 1.000000000000000000, 0.000000000000000000, 0.000000000000000000 ) ) ;
#142 =( NAMED_UNIT ( * ) SI_UNIT ( $, .STERADIAN. ) SOLID_ANGLE_UNIT ( ) );
#143 = DIRECTION ( 'NONE',  ( 1.000000000000000000, 0.000000000000000000, 0.000000000000000000 ) ) ;
#144 = EDGE_CURVE ( 'NONE', #15, #138, #114, .T. ) ;
#145 = CYLINDRICAL_SURFACE ( 'NONE', #126, 20.00000000000000000 ) ;
#146 = CC_DESIGN_APPROVAL ( #40, ( #152 ) ) ;
#147 = SHAPE_DEFINITION_REPRESENTATION ( #94, #120 ) ;
#148 = LINE ( 'NONE', #28, #84 ) ;
#149 = CALENDAR_DATE ( 2026, 12, 9 ) ;
#150 = ORIENTED_EDGE ( 'NONE', *, *, #144, .T. ) ;
#151 = AXIS2_PLACEMENT_3D ( 'NONE', #68, #4, #55 ) ;
#152 = PRODUCT_DEFINITION ( 'UNKNOWN', '', #170, #110 ) ;
#153 = AXIS2_PLACEMENT_3D ( 'NONE', #95, #156, #74 ) ;
#154 = CARTESIAN_POINT ( 'NONE',  ( 299.4968621089223575, 0.000000000000000000, 0.000000000000000000 ) ) ;
#155 = CC_DESIGN_DATE_AND_TIME_ASSIGNMENT ( #73, #37, ( #43 ) ) ;
#156 = DIRECTION ( 'NONE',  ( 1.000000000000000000, 0.000000000000000000, 0.000000000000000000 ) ) ;
#157 = CARTESIAN_POINT ( 'NONE',  ( 0.000000000000000000, 0.000000000000000000, -20.00000000000000000 ) ) ;
#158 = CARTESIAN_POINT ( 'NONE',  ( 299.4968621089223575, 0.000000000000000000, 0.000000000000000000 ) ) ;
#159 = APPROVAL_ROLE ( '' ) ;
#160 = LINE ( 'NONE', #157, #101 ) ;
#161 = PERSON_AND_ORGANIZATION_ROLE ( 'creator' ) ;
#162 = AXIS2_PLACEMENT_3D ( 'NONE', #70, #143, #67 ) ;
#163 = ORIENTED_EDGE ( 'NONE', *, *, #109, .T. ) ;
#164 = APPLICATION_CONTEXT ( 'configuration controlled 3d designs of mechanical parts and assemblies' ) ;
#165 = ORIENTED_EDGE ( 'NONE', *, *, #1, .F. ) ;
#166 = CC_DESIGN_PERSON_AND_ORGANIZATION_ASSIGNMENT ( #171, #58, ( #122 ) ) ;
#167 = LOCAL_TIME ( 14, 35, 22.00000000000000000, #24 ) ;
#168 = DIRECTION ( 'NONE',  ( 0.000000000000000000, 0.000000000000000000, -1.000000000000000000 ) ) ;
#169 = DIRECTION ( 'NONE',  ( 1.000000000000000000, 0.000000000000000000, 0.000000000000000000 ) ) ;
#170 = PRODUCT_DEFINITION_FORMATION_WITH_SPECIFIED_SOURCE ( 'ANY', '', #122, .NOT_KNOWN. ) ;
#171 = PERSON_AND_ORGANIZATION ( #50, #66 ) ;
#172 = LOCAL_TIME ( 14, 35, 22.00000000000000000, #34 ) ;
#173 = APPROVAL_DATE_TIME ( #29, #107 ) ;
#174 = ORIENTED_EDGE ( 'NONE', *, *, #144, .F. ) ;
#175 = PERSON_AND_ORGANIZATION_ROLE ( 'classification_officer' ) ;
ENDSEC;
END-ISO-10303-21;
