<?xml version="1.0" encoding="utf-8" standalone="no"?>
<!DOCTYPE svg PUBLIC "-//W3C//DTD SVG 1.1//EN"
  "http://www.w3.org/Graphics/SVG/1.1/DTD/svg11.dtd">
<svg xmlns:xlink="http://www.w3.org/1999/xlink" width="416.592pt" height="500.4pt" viewBox="0 0 416.592 500.4" xmlns="http://www.w3.org/2000/svg" version="1.1">
 <metadata>
  <rdf:RDF xmlns:dc="http://purl.org/dc/elements/1.1/" xmlns:cc="http://creativecommons.org/ns#" xmlns:rdf="http://www.w3.org/1999/02/22-rdf-syntax-ns#">
   <cc:Work>
    <dc:type rdf:resource="http://purl.org/dc/dcmitype/StillImage"/>
    <dc:date>2026-09-25T21:27:23.684257</dc:date>
    <dc:format>image/svg+xml</dc:format>
    <dc:creator>
     <cc:Agent>
      <dc:title>Matplotlib v3.7.5, https://matplotlib.org/</dc:title>
     </cc:Agent>
    </dc:creator>
   </cc:Work>
  </rdf:RDF>
 </metadata>
 <defs>
  <style type="text/css">*{stroke-linejoin: round; stroke-linecap: butt}</style>
 </defs>
 <g id="figure_1">
  <g id="patch_1">
   <path d="M 0 500.4
L 416.592 500.4
L 416.592 0
L 0 0
z
" style="fill: #ffffff"/>
  </g>
  <g id="axes_1">
   <g id="line2d_1">
    <path d="M 107.028 428.292
L 292.104 107.028
" clip-path="url(#p0196ae2e3b)" style="fill: none; stroke-dasharray: 4,3; stroke-dashoffset: 0; stroke: #8c8c8c"/>
   </g>
   <g id="line2d_2">
    <path d="M 147.5352 362.6424
L 145.517504 361.480031
" clip-path="url(#p0196ae2e3b)" style="fill: none; stroke-dasharray: 3.3,2.2; stroke-dashoffset: 0; stroke: #8c8c8c; stroke-width: 1.1"/>
   </g>
   <g id="line2d_3">
    <path d="M 245.3112 42.7752
L 308.235968 79.025338
" clip-path="url(#p0196ae2e3b)" style="fill: none; stroke-dasharray: 3.3,2.2; stroke-dashoffset: 0; stroke: #8c8c8c; stroke-width: 1.1"/>
   </g>
   <g id="text_1">
    <!-- $\hat e_{1}^{(1)}$ -->
    <g style="fill: #4477aa" transform="translate(153.41722 443.541953) scale(0.105 -0.105)">
     <defs>
      <path id="DejaVuSans-302" d="M -1831 5119
L -1369 5119
L -603 3944
L -1038 3944
L -1600 4709
L -2163 3944
L -2597 3944
L -1831 5119
z
M -1600 3584
L -1600 3584
z
" transform="scale(0.015625)"/>
      <path id="DejaVuSans-Oblique-65" d="M 3078 2063
Q 3088 2113 3092 2166
Q 3097 2219 3097 2272
Q 3097 2653 2873 2875
Q 2650 3097 2266 3097
Q 1838 3097 1509 2826
Q 1181 2556 1013 2059
L 3078 2063
z
M 3578 1613
L 903 1613
Q 884 1494 878 1425
Q 872 1356 872 1306
Q 872 872 1139 634
Q 1406 397 1894 397
Q 2269 397 2603 481
Q 2938 566 3225 728
L 3116 159
Q 2806 34 2476 -28
Q 2147 -91 1806 -91
Q 1078 -91 686 257
Q 294 606 294 1247
Q 294 1794 489 2264
Q 684 2734 1063 3103
Q 1306 3334 1642 3459
Q 1978 3584 2356 3584
Q 2950 3584 3301 3228
Q 3653 2872 3653 2272
Q 3653 2128 3634 1964
Q 3616 1800 3578 1613
z
" transform="scale(0.015625)"/>
      <path id="DejaVuSans-28" d="M 1984 4856
Q 1566 4138 1362 3434
Q 1159 2731 1159 2009
Q 1159 1288 1364 580
Q 1569 -128 1984 -844
L 1484 -844
Q 1016 -109 783 600
Q 550 1309 550 2009
Q 550 2706 781 3412
Q 1013 4119 1484 4856
L 1984 4856
z
" transform="scale(0.015625)"/>
      <path id="DejaVuSans-31" d="M 794 531
L 1825 531
L 1825 4091
L 703 3866
L 703 4441
L 1819 4666
L 2450 4666
L 2450 531
L 3481 531
L 3481 0
L 794 0
L 794 531
z
" transform="scale(0.015625)"/>
      <path id="DejaVuSans-29" d="M 513 4856
L 1013 4856
Q 1481 4119 1714 3412
Q 1947 2706 1947 2009
Q 1947 1309 1714 600
Q 1481 -109 1013 -844
L 513 -844
Q 928 -128 1133 580
Q 1338 1288 1338 2009
Q 1338 2731 1133 3434
Q 928 4138 513 4856
z
" transform="scale(0.015625)"/>
     </defs>
     <use xlink:href="#DejaVuSans-302" transform="translate(57.699219 12.965625)"/>
     <use xlink:href="#DejaVuSans-Oblique-65" transform="translate(0 0.465625)"/>
     <use xlink:href="#DejaVuSans-28" transform="translate(62.480469 45.8875) scale(0.7)"/>
     <use xlink:href="#DejaVuSans-31" transform="translate(89.790039 45.8875) scale(0.7)"/>
     <use xlink:href="#DejaVuSans-29" transform="translate(134.326172 45.8875) scale(0.7)"/>
     <use xlink:href="#DejaVuSans-31" transform="translate(62.480469 -26.878125) scale(0.7)"/>
    </g>
   </g>
   <g id="text_2">
    <!-- $\hat e_{2}^{(1)}$ -->
    <g style="fill: #ee6677" transform="translate(65.655744 470.015317) scale(0.105 -0.105)">
     <defs>
      <path id="DejaVuSans-32" d="M 1228 531
L 3431 531
L 3431 0
L 469 0
L 469 531
Q 828 903 1448 1529
Q 2069 2156 2228 2338
Q 2531 2678 2651 2914
Q 2772 3150 2772 3378
Q 2772 3750 2511 3984
Q 2250 4219 1831 4219
Q 1534 4219 1204 4116
Q 875 4013 500 3803
L 500 4441
Q 881 4594 1212 4672
Q 1544 4750 1819 4750
Q 2544 4750 2975 4387
Q 3406 4025 3406 3419
Q 3406 3131 3298 2873
Q 3191 2616 2906 2266
Q 2828 2175 2409 1742
Q 1991 1309 1228 531
z
" transform="scale(0.015625)"/>
     </defs>
     <use xlink:href="#DejaVuSans-302" transform="translate(57.699219 13.046875)"/>
     <use xlink:href="#DejaVuSans-Oblique-65" transform="translate(0 0.546875)"/>
     <use xlink:href="#DejaVuSans-28" transform="translate(62.480469 46.8875) scale(0.7)"/>
     <use xlink:href="#DejaVuSans-31" transform="translate(89.790039 46.8875) scale(0.7)"/>
     <use xlink:href="#DejaVuSans-29" transform="translate(134.326172 46.8875) scale(0.7)"/>
     <use xlink:href="#DejaVuSans-32" transform="translate(62.480469 -26.796875) scale(0.7)"/>
    </g>
   </g>
   <g id="text_3">
    <!-- $\hat e_{3}^{(1)}$ -->
    <g style="fill: #228833" transform="translate(98.3655 370.253004) scale(0.105 -0.105)">
     <defs>
      <path id="DejaVuSans-33" d="M 2597 2516
Q 3050 2419 3304 2112
Q 3559 1806 3559 1356
Q 3559 666 3084 287
Q 2609 -91 1734 -91
Q 1441 -91 1130 -33
Q 819 25 488 141
L 488 750
Q 750 597 1062 519
Q 1375 441 1716 441
Q 2309 441 2620 675
Q 2931 909 2931 1356
Q 2931 1769 2642 2001
Q 2353 2234 1838 2234
L 1294 2234
L 1294 2753
L 1863 2753
Q 2328 2753 2575 2939
Q 2822 3125 2822 3475
Q 2822 3834 2567 4026
Q 2313 4219 1838 4219
Q 1578 4219 1281 4162
Q 984 4106 628 3988
L 628 4550
Q 988 4650 1302 4700
Q 1616 4750 1894 4750
Q 2613 4750 3031 4423
Q 3450 4097 3450 3541
Q 3450 3153 3228 2886
Q 3006 2619 2597 2516
z
" transform="scale(0.015625)"/>
     </defs>
     <use xlink:href="#DejaVuSans-302" transform="translate(57.699219 13.046875)"/>
     <use xlink:href="#DejaVuSans-Oblique-65" transform="translate(0 0.546875)"/>
     <use xlink:href="#DejaVuSans-28" transform="translate(62.480469 46.8875) scale(0.7)"/>
     <use xlink:href="#DejaVuSans-31" transform="translate(89.790039 46.8875) scale(0.7)"/>
     <use xlink:href="#DejaVuSans-29" transform="translate(134.326172 46.8875) scale(0.7)"/>
     <use xlink:href="#DejaVuSans-33" transform="translate(62.480469 -26.796875) scale(0.7)"/>
    </g>
   </g>
   <g id="text_4">
    <!-- $\hat e_{1}^{(2)}$ -->
    <g style="fill: #4477aa" transform="translate(325.691386 80.855581) scale(0.105 -0.105)">
     <use xlink:href="#DejaVuSans-302" transform="translate(57.699219 12.965625)"/>
     <use xlink:href="#DejaVuSans-Oblique-65" transform="translate(0 0.465625)"/>
     <use xlink:href="#DejaVuSans-28" transform="translate(62.480469 45.8875) scale(0.7)"/>
     <use xlink:href="#DejaVuSans-32" transform="translate(89.790039 45.8875) scale(0.7)"/>
     <use xlink:href="#DejaVuSans-29" transform="translate(134.326172 45.8875) scale(0.7)"/>
     <use xlink:href="#DejaVuSans-31" transform="translate(62.480469 -26.878125) scale(0.7)"/>
    </g>
   </g>
   <g id="text_5">
    <!-- $\hat e_{2}^{(2)}$ -->
    <g style="fill: #ee6677" transform="translate(240.578066 97.413177) scale(0.105 -0.105)">
     <use xlink:href="#DejaVuSans-302" transform="translate(57.699219 13.046875)"/>
     <use xlink:href="#DejaVuSans-Oblique-65" transform="translate(0 0.546875)"/>
     <use xlink:href="#DejaVuSans-28" transform="translate(62.480469 46.8875) scale(0.7)"/>
     <use xlink:href="#DejaVuSans-32" transform="translate(89.790039 46.8875) scale(0.7)"/>
     <use xlink:href="#DejaVuSans-29" transform="translate(134.326172 46.8875) scale(0.7)"/>
     <use xlink:href="#DejaVuSans-32" transform="translate(62.480469 -26.796875) scale(0.7)"/>
    </g>
   </g>
   <g id="text_6">
    <!-- $\hat e_{3}^{(2)}$ -->
    <g style="fill: #228833" transform="translate(283.4415 48.989004) scale(0.105 -0.105)">
     <use xlink:href="#DejaVuSans-302" transform="translate(57.699219 13.046875)"/>
     <use xlink:href="#DejaVuSans-Oblique-65" transform="translate(0 0.546875)"/>
     <use xlink:href="#DejaVuSans-28" transform="translate(62.480469 46.8875) scale(0.7)"/>
     <use xlink:href="#DejaVuSans-32" transform="translate(89.790039 46.8875) scale(0.7)"/>
     <use xlink:href="#DejaVuSans-29" transform="translate(134.326172 46.8875) scale(0.7)"/>
     <use xlink:href="#DejaVuSans-33" transform="translate(62.480469 -26.796875) scale(0.7)"/>
    </g>
   </g>
   <g id="text_7">
    <!-- $\{br,1\}$ -->
    <g transform="translate(37.7902 415.7208) scale(0.115 -0.115)">
     <defs>
      <path id="DejaVuSans-7b" d="M 3272 -594
L 3272 -1044
L 3078 -1044
Q 2300 -1044 2036 -812
Q 1772 -581 1772 109
L 1772 856
Q 1772 1328 1603 1509
Q 1434 1691 991 1691
L 800 1691
L 800 2138
L 991 2138
Q 1438 2138 1605 2317
Q 1772 2497 1772 2963
L 1772 3713
Q 1772 4403 2036 4633
Q 2300 4863 3078 4863
L 3272 4863
L 3272 4416
L 3059 4416
Q 2619 4416 2484 4278
Q 2350 4141 2350 3700
L 2350 2925
Q 2350 2434 2208 2212
Q 2066 1991 1722 1913
Q 2069 1828 2209 1606
Q 2350 1384 2350 897
L 2350 122
Q 2350 -319 2484 -456
Q 2619 -594 3059 -594
L 3272 -594
z
" transform="scale(0.015625)"/>
      <path id="DejaVuSans-Oblique-62" d="M 3169 2138
Q 3169 2591 2961 2847
Q 2753 3103 2388 3103
Q 2122 3103 1889 2973
Q 1656 2844 1484 2597
Q 1303 2338 1198 1995
Q 1094 1653 1094 1313
Q 1094 881 1298 636
Q 1503 391 1863 391
Q 2134 391 2365 517
Q 2597 644 2772 891
Q 2950 1147 3059 1487
Q 3169 1828 3169 2138
z
M 1381 2969
Q 1594 3256 1914 3420
Q 2234 3584 2584 3584
Q 3122 3584 3439 3221
Q 3756 2859 3756 2241
Q 3756 1734 3570 1259
Q 3384 784 3041 416
Q 2816 172 2522 40
Q 2228 -91 1906 -91
Q 1566 -91 1316 65
Q 1066 222 909 531
L 806 0
L 231 0
L 1178 4863
L 1753 4863
L 1381 2969
z
" transform="scale(0.015625)"/>
      <path id="DejaVuSans-Oblique-72" d="M 2853 2969
Q 2766 3016 2653 3041
Q 2541 3066 2413 3066
Q 1953 3066 1609 2717
Q 1266 2369 1153 1784
L 800 0
L 225 0
L 909 3500
L 1484 3500
L 1375 2956
Q 1603 3259 1920 3421
Q 2238 3584 2597 3584
Q 2691 3584 2781 3573
Q 2872 3563 2963 3538
L 2853 2969
z
" transform="scale(0.015625)"/>
      <path id="DejaVuSans-2c" d="M 750 794
L 1409 794
L 1409 256
L 897 -744
L 494 -744
L 750 256
L 750 794
z
" transform="scale(0.015625)"/>
      <path id="DejaVuSans-7d" d="M 800 -594
L 1019 -594
Q 1456 -594 1589 -459
Q 1722 -325 1722 122
L 1722 897
Q 1722 1384 1862 1606
Q 2003 1828 2350 1913
Q 2003 1991 1862 2212
Q 1722 2434 1722 2925
L 1722 3700
Q 1722 4144 1589 4280
Q 1456 4416 1019 4416
L 800 4416
L 800 4863
L 997 4863
Q 1775 4863 2036 4633
Q 2297 4403 2297 3713
L 2297 2963
Q 2297 2497 2465 2317
Q 2634 2138 3078 2138
L 3272 2138
L 3272 1691
L 3078 1691
Q 2634 1691 2465 1509
Q 2297 1328 2297 856
L 2297 109
Q 2297 -581 2036 -812
Q 1775 -1044 997 -1044
L 800 -1044
L 800 -594
z
" transform="scale(0.015625)"/>
     </defs>
     <use xlink:href="#DejaVuSans-7b" transform="translate(0 0.015625)"/>
     <use xlink:href="#DejaVuSans-Oblique-62" transform="translate(63.623047 0.015625)"/>
     <use xlink:href="#DejaVuSans-Oblique-72" transform="translate(127.099609 0.015625)"/>
     <use xlink:href="#DejaVuSans-2c" transform="translate(168.212891 0.015625)"/>
     <use xlink:href="#DejaVuSans-31" transform="translate(219.482422 0.015625)"/>
     <use xlink:href="#DejaVuSans-7d" transform="translate(283.105469 0.015625)"/>
    </g>
   </g>
   <g id="text_8">
    <!-- $\{br,2\}$ -->
    <g transform="translate(321.4368 152.424) scale(0.115 -0.115)">
     <use xlink:href="#DejaVuSans-7b" transform="translate(0 0.015625)"/>
     <use xlink:href="#DejaVuSans-Oblique-62" transform="translate(63.623047 0.015625)"/>
     <use xlink:href="#DejaVuSans-Oblique-72" transform="translate(127.099609 0.015625)"/>
     <use xlink:href="#DejaVuSans-2c" transform="translate(168.212891 0.015625)"/>
     <use xlink:href="#DejaVuSans-32" transform="translate(219.482422 0.015625)"/>
     <use xlink:href="#DejaVuSans-7d" transform="translate(283.105469 0.015625)"/>
    </g>
   </g>
   <g id="text_9">
    <!-- $\hat{\mathbf{u}}_1=-\hat{\mathbf{u}}_2$ -->
    <g style="fill: #595959" transform="translate(133.670885 295.842803) scale(0.1 -0.1)">
     <defs>
      <path id="DejaVuSans-Bold-75" d="M 500 1363
L 500 3500
L 1625 3500
L 1625 3150
Q 1625 2866 1622 2436
Q 1619 2006 1619 1863
Q 1619 1441 1641 1255
Q 1663 1069 1716 984
Q 1784 875 1895 815
Q 2006 756 2150 756
Q 2500 756 2700 1025
Q 2900 1294 2900 1772
L 2900 3500
L 4019 3500
L 4019 0
L 2900 0
L 2900 506
Q 2647 200 2364 54
Q 2081 -91 1741 -91
Q 1134 -91 817 281
Q 500 653 500 1363
z
" transform="scale(0.015625)"/>
      <path id="DejaVuSans-3d" d="M 678 2906
L 4684 2906
L 4684 2381
L 678 2381
L 678 2906
z
M 678 1631
L 4684 1631
L 4684 1100
L 678 1100
L 678 1631
z
" transform="scale(0.015625)"/>
      <path id="DejaVuSans-2212" d="M 678 2272
L 4684 2272
L 4684 1741
L 678 1741
L 678 2272
z
" transform="scale(0.015625)"/>
     </defs>
     <use xlink:href="#DejaVuSans-302" transform="translate(69.375977 12.015625)"/>
     <use xlink:href="#DejaVuSans-Bold-75" transform="translate(0 0.828125)"/>
     <use xlink:href="#DejaVuSans-31" transform="translate(72.148438 -15.578125) scale(0.7)"/>
     <use xlink:href="#DejaVuSans-3d" transform="translate(138.901367 0.828125)"/>
     <use xlink:href="#DejaVuSans-2212" transform="translate(261.655273 0.828125)"/>
     <use xlink:href="#DejaVuSans-302" transform="translate(434.302734 12.015625)"/>
     <use xlink:href="#DejaVuSans-Bold-75" transform="translate(364.926758 0.828125)"/>
     <use xlink:href="#DejaVuSans-32" transform="translate(437.075195 -15.578125) scale(0.7)"/>
    </g>
   </g>
   <g id="text_10">
    <!-- $\mathbf{F}'_2=-\mathbf{F}'_1$ -->
    <g transform="translate(201.163406 142.909984) scale(0.115 -0.115)">
     <defs>
      <path id="DejaVuSans-Bold-46" d="M 588 4666
L 3834 4666
L 3834 3756
L 1791 3756
L 1791 2888
L 3713 2888
L 3713 1978
L 1791 1978
L 1791 0
L 588 0
L 588 4666
z
" transform="scale(0.015625)"/>
      <path id="Cmsy10-30" d="M 225 347
Q 184 359 184 409
L 966 3316
Q 1003 3434 1093 3506
Q 1184 3578 1300 3578
Q 1450 3578 1564 3479
Q 1678 3381 1678 3231
Q 1678 3166 1644 3084
L 488 319
Q 466 275 428 275
Q 394 275 320 306
Q 247 338 225 347
z
" transform="scale(0.015625)"/>
     </defs>
     <use xlink:href="#DejaVuSans-Bold-46" transform="translate(0 0.584375)"/>
     <use xlink:href="#Cmsy10-30" transform="translate(69.267578 38.865625) scale(0.7)"/>
     <use xlink:href="#DejaVuSans-32" transform="translate(92.202148 -15.821875) scale(0.7)"/>
     <use xlink:href="#DejaVuSans-3d" transform="translate(158.955078 0.584375)"/>
     <use xlink:href="#DejaVuSans-2212" transform="translate(281.708984 0.584375)"/>
     <use xlink:href="#DejaVuSans-Bold-46" transform="translate(384.980469 0.584375)"/>
     <use xlink:href="#Cmsy10-30" transform="translate(454.248047 38.865625) scale(0.7)"/>
     <use xlink:href="#DejaVuSans-31" transform="translate(477.182617 -15.821875) scale(0.7)"/>
    </g>
   </g>
   <g id="text_11">
    <!-- $\mathbf{\eta}_{br,1}$ -->
    <g style="fill: #882255" transform="translate(127.98 354.2616) scale(0.115 -0.115)">
     <defs>
      <path id="DejaVuSans-Bold-3b7" d="M 4056 2131
L 4056 -1331
L 2931 -1331
L 2931 347
L 2931 1631
Q 2931 2084 2911 2256
Q 2891 2428 2841 2509
Q 2775 2619 2662 2680
Q 2550 2741 2406 2741
Q 2056 2741 1856 2470
Q 1656 2200 1656 1722
L 1656 0
L 538 0
L 538 3500
L 1656 3500
L 1656 2988
Q 1909 3294 2193 3439
Q 2478 3584 2822 3584
Q 3428 3584 3742 3212
Q 4056 2841 4056 2131
z
" transform="scale(0.015625)"/>
     </defs>
     <use xlink:href="#DejaVuSans-Bold-3b7"/>
     <use xlink:href="#DejaVuSans-Oblique-62" transform="translate(72.148438 -16.40625) scale(0.7)"/>
     <use xlink:href="#DejaVuSans-Oblique-72" transform="translate(116.582031 -16.40625) scale(0.7)"/>
     <use xlink:href="#DejaVuSans-2c" transform="translate(145.361328 -16.40625) scale(0.7)"/>
     <use xlink:href="#DejaVuSans-31" transform="translate(181.25 -16.40625) scale(0.7)"/>
    </g>
   </g>
   <g id="text_12">
    <!-- $\mathbf{\eta}_{br,2}$ -->
    <g style="fill: #882255" transform="translate(243.9144 30.9024) scale(0.115 -0.115)">
     <use xlink:href="#DejaVuSans-Bold-3b7"/>
     <use xlink:href="#DejaVuSans-Oblique-62" transform="translate(72.148438 -16.40625) scale(0.7)"/>
     <use xlink:href="#DejaVuSans-Oblique-72" transform="translate(116.582031 -16.40625) scale(0.7)"/>
     <use xlink:href="#DejaVuSans-2c" transform="translate(145.361328 -16.40625) scale(0.7)"/>
     <use xlink:href="#DejaVuSans-32" transform="translate(181.25 -16.40625) scale(0.7)"/>
    </g>
   </g>
   <g id="text_13">
    <!-- $\delta_{br,1}$ -->
    <g style="fill: #332288" transform="translate(139.759757 412.751954) scale(0.115 -0.115)">
     <defs>
      <path id="DejaVuSans-Oblique-3b4" d="M 3472 4053
Q 3197 4272 2450 4272
Q 1659 4272 1588 3906
Q 1531 3619 2328 3469
Q 2953 3353 3253 3003
Q 3616 2581 3447 1716
Q 3284 888 2763 400
Q 2238 -91 1488 -91
Q 741 -91 406 400
Q 72 888 241 1747
Q 363 2384 891 2900
Q 1097 3100 1353 3213
Q 913 3459 1000 3900
Q 1166 4750 2544 4750
Q 3234 4750 3566 4531
L 3472 4053
z
M 1753 3056
Q 1525 2966 1306 2738
Q 969 2384 847 1747
Q 722 1113 919 756
Q 1119 397 1584 397
Q 2044 397 2381 759
Q 2722 1122 2838 1716
Q 2956 2338 2731 2638
Q 2491 2959 2103 2994
Q 1906 3013 1753 3056
z
" transform="scale(0.015625)"/>
     </defs>
     <use xlink:href="#DejaVuSans-Oblique-3b4" transform="translate(0 0.78125)"/>
     <use xlink:href="#DejaVuSans-Oblique-62" transform="translate(61.181641 -15.625) scale(0.7)"/>
     <use xlink:href="#DejaVuSans-Oblique-72" transform="translate(105.615234 -15.625) scale(0.7)"/>
     <use xlink:href="#DejaVuSans-2c" transform="translate(134.394531 -15.625) scale(0.7)"/>
     <use xlink:href="#DejaVuSans-31" transform="translate(170.283203 -15.625) scale(0.7)"/>
    </g>
   </g>
   <g id="text_14">
    <!-- $\delta_{br,2}$ -->
    <g style="fill: #332288" transform="translate(336.048017 123.791786) scale(0.115 -0.115)">
     <use xlink:href="#DejaVuSans-Oblique-3b4" transform="translate(0 0.78125)"/>
     <use xlink:href="#DejaVuSans-Oblique-62" transform="translate(61.181641 -15.625) scale(0.7)"/>
     <use xlink:href="#DejaVuSans-Oblique-72" transform="translate(105.615234 -15.625) scale(0.7)"/>
     <use xlink:href="#DejaVuSans-2c" transform="translate(134.394531 -15.625) scale(0.7)"/>
     <use xlink:href="#DejaVuSans-32" transform="translate(170.283203 -15.625) scale(0.7)"/>
    </g>
   </g>
   <g id="text_15">
    <!-- $\delta_{\mathrm{tendon}}$ -->
    <g style="fill: #cc6677" transform="translate(177.81748 357.181284) scale(0.115 -0.115)">
     <defs>
      <path id="DejaVuSans-74" d="M 1172 4494
L 1172 3500
L 2356 3500
L 2356 3053
L 1172 3053
L 1172 1153
Q 1172 725 1289 603
Q 1406 481 1766 481
L 2356 481
L 2356 0
L 1766 0
Q 1100 0 847 248
Q 594 497 594 1153
L 594 3053
L 172 3053
L 172 3500
L 594 3500
L 594 4494
L 1172 4494
z
" transform="scale(0.015625)"/>
      <path id="DejaVuSans-65" d="M 3597 1894
L 3597 1613
L 953 1613
Q 991 1019 1311 708
Q 1631 397 2203 397
Q 2534 397 2845 478
Q 3156 559 3463 722
L 3463 178
Q 3153 47 2828 -22
Q 2503 -91 2169 -91
Q 1331 -91 842 396
Q 353 884 353 1716
Q 353 2575 817 3079
Q 1281 3584 2069 3584
Q 2775 3584 3186 3129
Q 3597 2675 3597 1894
z
M 3022 2063
Q 3016 2534 2758 2815
Q 2500 3097 2075 3097
Q 1594 3097 1305 2825
Q 1016 2553 972 2059
L 3022 2063
z
" transform="scale(0.015625)"/>
      <path id="DejaVuSans-6e" d="M 3513 2113
L 3513 0
L 2938 0
L 2938 2094
Q 2938 2591 2744 2837
Q 2550 3084 2163 3084
Q 1697 3084 1428 2787
Q 1159 2491 1159 1978
L 1159 0
L 581 0
L 581 3500
L 1159 3500
L 1159 2956
Q 1366 3272 1645 3428
Q 1925 3584 2291 3584
Q 2894 3584 3203 3211
Q 3513 2838 3513 2113
z
" transform="scale(0.015625)"/>
      <path id="DejaVuSans-64" d="M 2906 2969
L 2906 4863
L 3481 4863
L 3481 0
L 2906 0
L 2906 525
Q 2725 213 2448 61
Q 2172 -91 1784 -91
Q 1150 -91 751 415
Q 353 922 353 1747
Q 353 2572 751 3078
Q 1150 3584 1784 3584
Q 2172 3584 2448 3432
Q 2725 3281 2906 2969
z
M 947 1747
Q 947 1113 1208 752
Q 1469 391 1925 391
Q 2381 391 2643 752
Q 2906 1113 2906 1747
Q 2906 2381 2643 2742
Q 2381 3103 1925 3103
Q 1469 3103 1208 2742
Q 947 2381 947 1747
z
" transform="scale(0.015625)"/>
      <path id="DejaVuSans-6f" d="M 1959 3097
Q 1497 3097 1228 2736
Q 959 2375 959 1747
Q 959 1119 1226 758
Q 1494 397 1959 397
Q 2419 397 2687 759
Q 2956 1122 2956 1747
Q 2956 2369 2687 2733
Q 2419 3097 1959 3097
z
M 1959 3584
Q 2709 3584 3137 3096
Q 3566 2609 3566 1747
Q 3566 888 3137 398
Q 2709 -91 1959 -91
Q 1206 -91 779 398
Q 353 888 353 1747
Q 353 2609 779 3096
Q 1206 3584 1959 3584
z
" transform="scale(0.015625)"/>
     </defs>
     <use xlink:href="#DejaVuSans-Oblique-3b4" transform="translate(0 0.78125)"/>
     <use xlink:href="#DejaVuSans-74" transform="translate(61.181641 -15.625) scale(0.7)"/>
     <use xlink:href="#DejaVuSans-65" transform="translate(88.62793 -15.625) scale(0.7)"/>
     <use xlink:href="#DejaVuSans-6e" transform="translate(131.694336 -15.625) scale(0.7)"/>
     <use xlink:href="#DejaVuSans-64" transform="translate(176.05957 -15.625) scale(0.7)"/>
     <use xlink:href="#DejaVuSans-6f" transform="translate(220.493164 -15.625) scale(0.7)"/>
     <use xlink:href="#DejaVuSans-6e" transform="translate(263.320312 -15.625) scale(0.7)"/>
    </g>
   </g>
   <g id="patch_2">
    <path d="M 108.9867 428.70196
Q 130.452184 433.194736 149.838457 437.252328
" style="fill: none; stroke: #4477aa; stroke-width: 1.9; stroke-linecap: round"/>
    <path d="M 145.631934 433.919888
L 149.838457 437.252328
L 144.648591 438.618083
z
" style="fill: #4477aa; stroke: #4477aa; stroke-width: 1.9; stroke-linecap: round"/>
   </g>
   <g id="patch_3">
    <path d="M 105.722976 429.805828
Q 93.410384 444.088435 82.484808 456.762102
" style="fill: none; stroke: #ee6677; stroke-width: 1.9; stroke-linecap: round"/>
    <path d="M 87.436702 454.69359
L 82.484808 456.762102
L 83.801135 451.559479
z
" style="fill: #ee6677; stroke: #ee6677; stroke-width: 1.9; stroke-linecap: round"/>
   </g>
   <g id="patch_4">
    <path d="M 107.028 426.294598
Q 107.028 401.599424 107.028 379.028514
" style="fill: none; stroke: #228833; stroke-width: 1.9; stroke-linecap: round"/>
    <path d="M 104.628 383.828514
L 107.028 379.028514
L 109.428 383.828514
z
" style="fill: #228833; stroke: #228833; stroke-width: 1.9; stroke-linecap: round"/>
   </g>
   <g id="patch_5">
    <path d="M 293.735696 105.873261
Q 309.808927 94.498359 324.148182 84.350579
" style="fill: none; stroke: #4477aa; stroke-width: 1.9; stroke-linecap: round"/>
    <path d="M 318.843675 85.164339
L 324.148182 84.350579
L 321.616485 89.08244
z
" style="fill: #4477aa; stroke: #4477aa; stroke-width: 1.9; stroke-linecap: round"/>
   </g>
   <g id="patch_6">
    <path d="M 290.193112 106.430848
Q 274.671862 101.580457 261.178181 97.363682
" style="fill: none; stroke: #ee6677; stroke-width: 1.9; stroke-linecap: round"/>
    <path d="M 265.043825 101.086153
L 261.178181 97.363682
L 266.475545 96.50465
z
" style="fill: #ee6677; stroke: #ee6677; stroke-width: 1.9; stroke-linecap: round"/>
   </g>
   <g id="patch_7">
    <path d="M 292.104 105.030598
Q 292.104 80.335424 292.104 57.764514
" style="fill: none; stroke: #228833; stroke-width: 1.9; stroke-linecap: round"/>
    <path d="M 289.704 62.564514
L 292.104 57.764514
L 294.504 62.564514
z
" style="fill: #228833; stroke: #228833; stroke-width: 1.9; stroke-linecap: round"/>
   </g>
   <g id="patch_8">
    <path d="M 111.512055 420.508358
Q 137.009749 376.248209 161.112197 334.409998
" style="fill: none; stroke: #000000; stroke-width: 2.5; stroke-linecap: round"/>
    <path d="M 155.890598 337.864692
L 161.112197 334.409998
L 160.742993 340.660093
z
" style="stroke: #000000; stroke-width: 2.5; stroke-linecap: round"/>
   </g>
   <g id="patch_9">
    <path d="M 287.619945 114.811642
Q 262.122251 159.071791 238.019803 200.910002
" style="fill: none; stroke: #000000; stroke-width: 2.5; stroke-linecap: round"/>
    <path d="M 243.241402 197.455308
L 238.019803 200.910002
L 238.389007 194.659907
z
" style="stroke: #000000; stroke-width: 2.5; stroke-linecap: round"/>
   </g>
   <g id="patch_10">
    <path d="M 108.078754 426.589053
Q 127.280779 395.468531 144.897666 366.917024
" style="fill: none; stroke: #882255; stroke-width: 2.7; stroke-linecap: round"/>
    <path d="M 139.574164 370.212525
L 144.897666 366.917024
L 144.339966 373.153126
z
" style="fill: #882255; stroke: #882255; stroke-width: 2.7; stroke-linecap: round"/>
   </g>
   <g id="patch_11">
    <path d="M 290.92447 105.408346
Q 268.706654 74.9003 248.265923 46.832432
" style="fill: none; stroke: #882255; stroke-width: 2.7; stroke-linecap: round"/>
    <path d="M 249.299213 53.007569
L 248.265923 46.832432
L 253.826006 49.710882
z
" style="fill: #882255; stroke: #882255; stroke-width: 2.7; stroke-linecap: round"/>
   </g>
   <g id="patch_12">
    <path d="M 122.509424 433.597838
Q 140.191499 402.904424 157.873574 372.211011
" style="fill: none; stroke: #332288; stroke-width: 2.8; stroke-linecap: round"/>
    <path d="M 127.358051 430.389908
L 122.509424 433.597838
L 122.852256 427.794178
" style="fill: none; stroke: #332288; stroke-width: 2.8; stroke-linecap: round"/>
    <path d="M 153.024947 375.418941
L 157.873574 372.211011
L 157.530742 378.014671
" style="fill: none; stroke: #332288; stroke-width: 2.8; stroke-linecap: round"/>
   </g>
   <g id="patch_13">
    <path d="M 326.950637 123.489884
Q 333.453944 112.201124 339.957252 100.912365
" style="fill: none; stroke: #332288; stroke-width: 2.8; stroke-linecap: round"/>
    <path d="M 331.799264 120.281954
L 326.950637 123.489884
L 327.293469 117.686225
" style="fill: none; stroke: #332288; stroke-width: 2.8; stroke-linecap: round"/>
    <path d="M 335.108625 104.120295
L 339.957252 100.912365
L 339.614419 106.716024
" style="fill: none; stroke: #332288; stroke-width: 2.8; stroke-linecap: round"/>
   </g>
   <g id="patch_14">
    <path d="M 160.998927 366.785869
Q 175.124441 342.266109 189.249955 317.746349
" style="fill: none; stroke: #cc6677; stroke-width: 2.8; stroke-linecap: round"/>
    <path d="M 165.847554 363.577939
L 160.998927 366.785869
L 161.34176 360.982209
" style="fill: none; stroke: #cc6677; stroke-width: 2.8; stroke-linecap: round"/>
    <path d="M 184.401328 320.954279
L 189.249955 317.746349
L 188.907123 323.550009
" style="fill: none; stroke: #cc6677; stroke-width: 2.8; stroke-linecap: round"/>
   </g>
  </g>
 </g>
 <defs>
  <clipPath id="p0196ae2e3b">
   <rect x="5.76" y="5.76" width="405.072" height="488.88"/>
  </clipPath>
 </defs>
</svg>
